<svg xmlns="http://www.w3.org/2000/svg" xmlns:xlink="http://www.w3.org/1999/xlink" contentStyleType="text/css" height="959px" preserveAspectRatio="none" style="width:842px;height:959px;background:#FFFFFF;" version="1.1" viewBox="0 0 842 959" width="842px" zoomAndPan="magnify"><defs/><g><!--cluster env_proc--><g id="cluster_env_proc"><rect fill="none" height="561.68" rx="2.5" ry="2.5" style="stroke:#181818;stroke-width:1;" width="284" x="7" y="39.5659"/><path d="M217.6895,39.5659 L217.6895,48.8628 L207.6895,58.8628 L7,58.8628 " fill="none" style="stroke:#181818;stroke-width:1;"/><text fill="#000000" font-family="sans-serif" font-size="14" font-weight="bold" lengthAdjust="spacing" textLength="200.6895" x="10" y="53.561">The Environment Process</text></g><!--cluster ctrl_proc--><g id="cluster_ctrl_proc"><rect fill="none" height="795.91" rx="2.5" ry="2.5" style="stroke:#181818;stroke-width:1;" width="475" x="361" y="157.6359"/><path d="M585.9561,157.6359 L585.9561,166.9328 L575.9561,176.9328 L361,176.9328 " fill="none" style="stroke:#181818;stroke-width:1;"/><text fill="#000000" font-family="sans-serif" font-size="14" font-weight="bold" lengthAdjust="spacing" textLength="214.9561" x="364" y="171.631">The Controller Sub-Process</text></g><!--entity instance--><g id="elem_instance"><rect fill="#F1F1F1" height="353.9375" rx="2.5" ry="2.5" style="stroke:#181818;stroke-width:0.5;" width="252.8125" x="22.59" y="93.5659"/><text fill="#000000" font-family="sans-serif" font-size="14" font-style="italic" lengthAdjust="spacing" textLength="51.8848" x="123.0539" y="116.561">«class»</text><text fill="#000000" font-family="sans-serif" font-size="14" font-weight="bold" lengthAdjust="spacing" textLength="201.4346" x="32.59" y="132.8579">npc_maker.ctrl.Controller</text><text fill="#000000" font-family="sans-serif" font-size="14" lengthAdjust="spacing" textLength="4.4502" x="32.59" y="149.1548"> </text><ellipse cx="38.09" cy="177.5503" fill="#000000" rx="2.5" ry="2.5" style="stroke:#000000;stroke-width:0;"/><text fill="#000000" font-family="sans-serif" font-size="14" lengthAdjust="spacing" textLength="182.2119" x="44.59" y="181.7485">environment specification</text><ellipse cx="38.09" cy="193.8472" fill="#000000" rx="2.5" ry="2.5" style="stroke:#000000;stroke-width:0;"/><text fill="#000000" font-family="sans-serif" font-size="14" lengthAdjust="spacing" textLength="118.6514" x="44.59" y="198.0454">population name</text><ellipse cx="38.09" cy="210.144" fill="#000000" rx="2.5" ry="2.5" style="stroke:#000000;stroke-width:0;"/><text fill="#000000" font-family="sans-serif" font-size="14" lengthAdjust="spacing" textLength="141.4219" x="44.59" y="214.3423">controller command</text><ellipse cx="38.09" cy="226.4409" fill="#000000" rx="2.5" ry="2.5" style="stroke:#000000;stroke-width:0;"/><text fill="#000000" font-family="sans-serif" font-size="14" lengthAdjust="spacing" textLength="41.7949" x="44.59" y="230.6392">stderr</text><text fill="#000000" font-family="sans-serif" font-size="14" lengthAdjust="spacing" textLength="4.4502" x="32.59" y="246.936"> </text><line style="stroke:#181818;stroke-width:1;stroke-dasharray:1.0,2.0;" x1="23.59" x2="64.2921" y1="160.605" y2="160.605"/><text fill="#000000" font-family="sans-serif" font-size="14" font-style="italic" lengthAdjust="spacing" textLength="160.5078" x="68.7423" y="164.9517">constructor arguments</text><line style="stroke:#181818;stroke-width:1;stroke-dasharray:1.0,2.0;" x1="233.7004" x2="274.4025" y1="160.605" y2="160.605"/><ellipse cx="38.09" cy="279.3315" fill="#000000" rx="2.5" ry="2.5" style="stroke:#000000;stroke-width:0;"/><text fill="#000000" font-family="sans-serif" font-size="14" lengthAdjust="spacing" textLength="97.0498" x="44.59" y="283.5298">new(genome)</text><ellipse cx="38.09" cy="295.6284" fill="#000000" rx="2.5" ry="2.5" style="stroke:#000000;stroke-width:0;"/><text fill="#000000" font-family="sans-serif" font-size="14" lengthAdjust="spacing" textLength="46.6895" x="44.59" y="299.8267">reset()</text><ellipse cx="38.09" cy="311.9253" fill="#000000" rx="2.5" ry="2.5" style="stroke:#000000;stroke-width:0;"/><text fill="#000000" font-family="sans-serif" font-size="14" lengthAdjust="spacing" textLength="84.8135" x="44.59" y="316.1235">advance(dt)</text><ellipse cx="38.09" cy="328.2222" fill="#000000" rx="2.5" ry="2.5" style="stroke:#000000;stroke-width:0;"/><text fill="#000000" font-family="sans-serif" font-size="14" lengthAdjust="spacing" textLength="144.1221" x="44.59" y="332.4204">set_input(gin, value)</text><ellipse cx="38.09" cy="344.519" fill="#000000" rx="2.5" ry="2.5" style="stroke:#000000;stroke-width:0;"/><text fill="#000000" font-family="sans-serif" font-size="14" lengthAdjust="spacing" textLength="152.708" x="44.59" y="348.7173">set_binary(gin, bytes)</text><ellipse cx="38.09" cy="360.8159" fill="#000000" rx="2.5" ry="2.5" style="stroke:#000000;stroke-width:0;"/><text fill="#000000" font-family="sans-serif" font-size="14" lengthAdjust="spacing" textLength="214.8125" x="44.59" y="365.0142">get_outputs(gin_list) -&gt; values</text><ellipse cx="38.09" cy="377.1128" fill="#000000" rx="2.5" ry="2.5" style="stroke:#000000;stroke-width:0;"/><text fill="#000000" font-family="sans-serif" font-size="14" lengthAdjust="spacing" textLength="75.5234" x="44.59" y="381.311">save(path)</text><ellipse cx="38.09" cy="393.4097" fill="#000000" rx="2.5" ry="2.5" style="stroke:#000000;stroke-width:0;"/><text fill="#000000" font-family="sans-serif" font-size="14" lengthAdjust="spacing" textLength="72.6729" x="44.59" y="397.6079">load(path)</text><ellipse cx="38.09" cy="409.7065" fill="#000000" rx="2.5" ry="2.5" style="stroke:#000000;stroke-width:0;"/><text fill="#000000" font-family="sans-serif" font-size="14" lengthAdjust="spacing" textLength="176.9346" x="44.59" y="413.9048">message(type, message)</text><ellipse cx="38.09" cy="426.0034" fill="#000000" rx="2.5" ry="2.5" style="stroke:#000000;stroke-width:0;"/><text fill="#000000" font-family="sans-serif" font-size="14" lengthAdjust="spacing" textLength="38.0625" x="44.59" y="430.2017">quit()</text><line style="stroke:#181818;stroke-width:1;stroke-dasharray:1.0,2.0;" x1="23.59" x2="113.8664" y1="262.3862" y2="262.3862"/><text fill="#000000" font-family="sans-serif" font-size="14" font-style="italic" lengthAdjust="spacing" textLength="61.3594" x="118.3166" y="266.7329">methods</text><line style="stroke:#181818;stroke-width:1;stroke-dasharray:1.0,2.0;" x1="184.1261" x2="274.4025" y1="262.3862" y2="262.3862"/></g><!--entity env_stderr--><g id="elem_env_stderr"><rect fill="#F1F1F1" height="52.5938" rx="2.5" ry="2.5" style="stroke:#181818;stroke-width:0.5;" width="135.7363" x="90.13" y="532.6459"/><text fill="#000000" font-family="sans-serif" font-size="14" font-style="italic" lengthAdjust="spacing" textLength="113.7363" x="101.13" y="555.641">«file descriptor»</text><text fill="#000000" font-family="sans-serif" font-size="14" lengthAdjust="spacing" textLength="41.7949" x="137.1007" y="571.9379">stderr</text></g><!--entity main--><g id="elem_main"><rect fill="#F1F1F1" height="117.7813" rx="2.5" ry="2.5" style="stroke:#181818;stroke-width:0.5;" width="339.5186" x="480.24" y="211.6359"/><text fill="#000000" font-family="sans-serif" font-size="14" font-style="italic" lengthAdjust="spacing" textLength="38.4521" x="630.7732" y="234.631">«file»</text><text fill="#000000" font-family="sans-serif" font-size="14" font-weight="bold" lengthAdjust="spacing" textLength="63.2666" x="490.24" y="250.9279">main.py</text><text fill="#000000" font-family="sans-serif" font-size="14" lengthAdjust="spacing" textLength="4.4502" x="490.24" y="267.2248"> </text><text fill="#000000" font-family="sans-serif" font-size="14" lengthAdjust="spacing" textLength="319.5186" x="490.24" y="283.5217">1| env_spec, pop = npc_maker.ctrl.get_args()</text><text fill="#000000" font-family="sans-serif" font-size="14" lengthAdjust="spacing" textLength="206.2607" x="490.24" y="299.8185">2| controller = MyController()</text><text fill="#000000" font-family="sans-serif" font-size="14" lengthAdjust="spacing" textLength="276.8623" x="490.24" y="316.1154">3| npc_maker.ctrl.main_loop(controller)</text></g><!--entity main_loop--><g id="elem_main_loop"><rect fill="#F1F1F1" height="68.8906" rx="2.5" ry="2.5" style="stroke:#181818;stroke-width:0.5;" width="290.7881" x="429.61" y="524.4959"/><text fill="#000000" font-family="sans-serif" font-size="14" font-style="italic" lengthAdjust="spacing" textLength="81.6143" x="534.1969" y="547.491">«functions»</text><text fill="#000000" font-family="sans-serif" font-size="14" lengthAdjust="spacing" textLength="4.4502" x="439.61" y="563.7879"> </text><ellipse cx="445.11" cy="575.8865" fill="#000000" rx="2.5" ry="2.5" style="stroke:#000000;stroke-width:0;"/><text fill="#000000" font-family="sans-serif" font-size="14" lengthAdjust="spacing" textLength="258.7881" x="451.61" y="580.0848">npc_maker.ctrl.main_loop(controller)</text></g><!--entity API--><g id="elem_API"><rect fill="#F1F1F1" height="252.1563" rx="2.5" ry="2.5" style="stroke:#181818;stroke-width:0.5;" width="214.9346" x="605.53" y="685.3859"/><text fill="#000000" font-family="sans-serif" font-size="14" font-style="italic" lengthAdjust="spacing" textLength="114.1055" x="655.9446" y="708.381">«abstract class»</text><text fill="#000000" font-family="sans-serif" font-size="14" font-weight="bold" lengthAdjust="spacing" textLength="148.668" x="615.53" y="724.6779">npc_maker.ctrl.API</text><text fill="#000000" font-family="sans-serif" font-size="14" lengthAdjust="spacing" textLength="4.4502" x="615.53" y="740.9748"> </text><ellipse cx="621.03" cy="769.3703" fill="#000000" rx="2.5" ry="2.5" style="stroke:#000000;stroke-width:0;"/><text fill="#000000" font-family="sans-serif" font-size="14" lengthAdjust="spacing" textLength="97.0498" x="627.53" y="773.5685">new(genome)</text><ellipse cx="621.03" cy="785.6672" fill="#000000" rx="2.5" ry="2.5" style="stroke:#000000;stroke-width:0;"/><text fill="#000000" font-family="sans-serif" font-size="14" lengthAdjust="spacing" textLength="46.6895" x="627.53" y="789.8654">reset()</text><ellipse cx="621.03" cy="801.964" fill="#000000" rx="2.5" ry="2.5" style="stroke:#000000;stroke-width:0;"/><text fill="#000000" font-family="sans-serif" font-size="14" lengthAdjust="spacing" textLength="84.8135" x="627.53" y="806.1623">advance(dt)</text><ellipse cx="621.03" cy="818.2609" fill="#000000" rx="2.5" ry="2.5" style="stroke:#000000;stroke-width:0;"/><text fill="#000000" font-family="sans-serif" font-size="14" lengthAdjust="spacing" textLength="144.1221" x="627.53" y="822.4592">set_input(gin, value)</text><ellipse cx="621.03" cy="834.5578" fill="#000000" rx="2.5" ry="2.5" style="stroke:#000000;stroke-width:0;"/><text fill="#000000" font-family="sans-serif" font-size="14" lengthAdjust="spacing" textLength="152.708" x="627.53" y="838.756">set_binary(gin, bytes)</text><ellipse cx="621.03" cy="850.8547" fill="#000000" rx="2.5" ry="2.5" style="stroke:#000000;stroke-width:0;"/><text fill="#000000" font-family="sans-serif" font-size="14" lengthAdjust="spacing" textLength="172.6621" x="627.53" y="855.0529">get_output(gin) -&gt; value</text><ellipse cx="621.03" cy="867.1515" fill="#000000" rx="2.5" ry="2.5" style="stroke:#000000;stroke-width:0;"/><text fill="#000000" font-family="sans-serif" font-size="14" lengthAdjust="spacing" textLength="75.5234" x="627.53" y="871.3498">save(path)</text><ellipse cx="621.03" cy="883.4484" fill="#000000" rx="2.5" ry="2.5" style="stroke:#000000;stroke-width:0;"/><text fill="#000000" font-family="sans-serif" font-size="14" lengthAdjust="spacing" textLength="72.6729" x="627.53" y="887.6467">load(path)</text><ellipse cx="621.03" cy="899.7453" fill="#000000" rx="2.5" ry="2.5" style="stroke:#000000;stroke-width:0;"/><text fill="#000000" font-family="sans-serif" font-size="14" lengthAdjust="spacing" textLength="176.9346" x="627.53" y="903.9435">message(type, message)</text><ellipse cx="621.03" cy="916.0422" fill="#000000" rx="2.5" ry="2.5" style="stroke:#000000;stroke-width:0;"/><text fill="#000000" font-family="sans-serif" font-size="14" lengthAdjust="spacing" textLength="38.0625" x="627.53" y="920.2404">quit()</text><line style="stroke:#181818;stroke-width:1;stroke-dasharray:1.0,2.0;" x1="606.53" x2="677.8674" y1="752.425" y2="752.425"/><text fill="#000000" font-family="sans-serif" font-size="14" font-style="italic" lengthAdjust="spacing" textLength="61.3594" x="682.3176" y="756.7717">methods</text><line style="stroke:#181818;stroke-width:1;stroke-dasharray:1.0,2.0;" x1="748.1272" x2="819.4646" y1="752.425" y2="752.425"/></g><!--entity eprint--><g id="elem_eprint"><rect fill="#F1F1F1" height="68.8906" rx="2.5" ry="2.5" style="stroke:#181818;stroke-width:0.5;" width="193.3145" x="377.34" y="777.0259"/><text fill="#000000" font-family="sans-serif" font-size="14" font-style="italic" lengthAdjust="spacing" textLength="81.6143" x="433.1901" y="800.021">«functions»</text><text fill="#000000" font-family="sans-serif" font-size="14" lengthAdjust="spacing" textLength="4.4502" x="387.34" y="816.3179"> </text><ellipse cx="392.84" cy="828.4165" fill="#000000" rx="2.5" ry="2.5" style="stroke:#000000;stroke-width:0;"/><text fill="#000000" font-family="sans-serif" font-size="14" lengthAdjust="spacing" textLength="161.3145" x="399.34" y="832.6148">npc_maker.ctrl.eprint()</text></g><!--entity stdin--><g id="elem_stdin"><ellipse cx="326" cy="270.5259" fill="#F1F1F1" rx="8" ry="8" style="stroke:#181818;stroke-width:0.5;"/><text fill="#000000" font-family="sans-serif" font-size="14" lengthAdjust="spacing" textLength="34.4326" x="308.7837" y="300.521">stdin</text></g><!--entity stdout--><g id="elem_stdout"><ellipse cx="326" cy="558.9459" fill="#F1F1F1" rx="8" ry="8" style="stroke:#181818;stroke-width:0.5;"/><text fill="#000000" font-family="sans-serif" font-size="14" lengthAdjust="spacing" textLength="44.5977" x="303.7012" y="588.941">stdout</text></g><!--entity stderr--><g id="elem_stderr"><ellipse cx="326" cy="811.4659" fill="#F1F1F1" rx="8" ry="8" style="stroke:#181818;stroke-width:0.5;"/><text fill="#000000" font-family="sans-serif" font-size="14" lengthAdjust="spacing" textLength="41.7949" x="305.1025" y="841.461">stderr</text></g><!--link instance to env_stderr--><!--link stdin to stdout--><!--link stdout to stderr--><!--link main to main_loop--><g id="link_main_main_loop"><path codeLine="75" d="M634.73,329.8359 C619.4,388.3859 597.8195,470.7815 585.3195,518.5315 " fill="none" id="main-to-main_loop" style="stroke:#181818;stroke-width:1;"/><polygon fill="#181818" points="583.8,524.3359,589.9488,516.6423,585.0662,519.4989,582.2096,514.6163,583.8,524.3359" style="stroke:#181818;stroke-width:1;"/><text fill="#000000" font-family="sans-serif" font-size="13" lengthAdjust="spacing" textLength="29.1104" x="596" y="490.5628">calls</text></g><!--link main_loop to API--><g id="link_main_loop_API"><path codeLine="76" d="M586.19,593.8159 C592.81,612.3959 601.87,635.6159 612,655.3859 C617.06,665.2559 619.5684,670.0865 625.3484,680.0465 " fill="none" id="main_loop-to-API" style="stroke:#181818;stroke-width:1;"/><polygon fill="#181818" points="628.36,685.2359,627.3023,675.444,625.8504,680.9114,620.383,679.4594,628.36,685.2359" style="stroke:#181818;stroke-width:1;"/><text fill="#000000" font-family="sans-serif" font-size="13" lengthAdjust="spacing" textLength="62.3022" x="620.303" y="636.4528">controller</text><text fill="#000000" font-family="sans-serif" font-size="13" lengthAdjust="spacing" textLength="76.9082" x="613" y="651.5856">implements</text></g><!--link main_loop to API--><!--link main_loop to eprint--><!--link instance to main--><g id="link_instance_main"><path codeLine="81" d="M248.17,93.2259 C277.74,63.9659 313.07,46.7259 353,59.4759 C446.1,89.1859 530.5952,155.8428 586.4552,207.2528 " fill="none" id="instance-to-main" style="stroke:#181818;stroke-width:1;"/><polygon fill="#181818" points="590.87,211.3159,586.9565,202.278,587.191,207.93,581.539,208.1644,590.87,211.3159" style="stroke:#181818;stroke-width:1;"/><text fill="#000000" font-family="sans-serif" font-size="13" lengthAdjust="spacing" textLength="204.7437" x="276" y="19.6328">constructor spawns subprocess</text></g><!--link instance to stdin--><g id="link_instance_stdin"><path codeLine="82" d="M275.87,270.5259 C289.45,270.5259 297.03,270.5259 310.6,270.5259 " fill="none" id="instance-to-stdin" style="stroke:#181818;stroke-width:1;"/><polygon fill="#181818" points="316.6,270.5259,307.6,266.5259,311.6,270.5259,307.6,274.5259,316.6,270.5259" style="stroke:#181818;stroke-width:1;"/></g><!--link stdin to main_loop--><g id="link_stdin_main_loop"><path codeLine="83" d="M325.28,279.8859 C323.39,307.0559 320.91,394.2459 361,447.4959 C387.15,482.2359 421.887,504.5395 460.437,521.6695 " fill="none" id="stdin-to-main_loop" style="stroke:#181818;stroke-width:1;"/><polygon fill="#181818" points="465.92,524.1059,459.3197,516.7959,461.3508,522.0756,456.0711,524.1066,465.92,524.1059" style="stroke:#181818;stroke-width:1;"/></g><!--link main_loop to stdout--><g id="link_main_loop_stdout"><path codeLine="84" d="M429.36,558.9459 C397.99,558.9459 372.62,558.9459 341.24,558.9459 " fill="none" id="main_loop-to-stdout" style="stroke:#181818;stroke-width:1;"/><polygon fill="#181818" points="335.24,558.9459,344.24,562.9459,340.24,558.9459,344.24,554.9459,335.24,558.9459" style="stroke:#181818;stroke-width:1;"/></g><!--link stdout to instance--><g id="link_stdout_instance"><path codeLine="85" d="M320.81,549.5459 C310.38,532.6759 288.6537,497.5202 260.9737,452.7202 " fill="none" id="stdout-to-instance" style="stroke:#181818;stroke-width:1;"/><polygon fill="#181818" points="257.82,447.6159,259.1477,457.3749,260.4481,451.8695,265.9535,453.1699,257.82,447.6159" style="stroke:#181818;stroke-width:1;"/></g><!--link eprint to stderr--><g id="link_eprint_stderr"><path codeLine="86" d="M376.98,811.4659 C363.07,811.4659 355.16,811.4659 341.25,811.4659 " fill="none" id="eprint-to-stderr" style="stroke:#181818;stroke-width:1;"/><polygon fill="#181818" points="335.25,811.4659,344.25,815.4659,340.25,811.4659,344.25,807.4659,335.25,811.4659" style="stroke:#181818;stroke-width:1;"/></g><!--link stderr to env_stderr--><g id="link_stderr_env_stderr"><path codeLine="87" d="M317.51,802.0759 C295.41,779.8459 235.19,716.9459 198,655.3859 C184.53,633.0959 175.5026,611.0883 168.4526,591.2883 " fill="none" id="stderr-to-env_stderr" style="stroke:#181818;stroke-width:1;"/><polygon fill="#181818" points="166.44,585.6359,165.6906,595.4562,168.1172,590.3462,173.2271,592.7728,166.44,585.6359" style="stroke:#181818;stroke-width:1;"/><text fill="#000000" font-family="sans-serif" font-size="13" lengthAdjust="spacing" textLength="118.8662" x="199" y="643.9528">inherits by default</text></g><!--SRC=[pLN1Yjim4BtxAuOzEM7ZfUqjx0PAwQ67miBsjbs28aySiRAaId8Mq_JVEx9aMmbRMWg5-c9htioRaUQDx9w5Cioo5hXkZLQe_8Fl9O95xfbg91R5dc24goy7X8_gAAnMBRd1lTKSdRi2vW3LSMje3T-B0cOg4CeH2qUulUMIERVPm2Cv02oNol1jovxHLjnRMNtGobij9ThbiXXSgWfkReYBA6p7lRR0RDE5r2u0LHM9Gkwf9cUGYxtWp0kj4cwqwUHW04KRILO-vGlbjapL2N2-Hck7HLP6Y_wWw_F42b_A1fLkSP4i5XtwSbon-XZsNjP-j12wfVFkVDa8TGr79ZlCiPrGpFOHtFKUtGWs1EhEKwGBw5OAvnUmsaGADrAm8vQ6-SCO9ZMhpmmjDOmrMFhUuFMu6i5ldOZ5FvqtCJGtdWgrSIz873KwReMXdeI6JYSsn4qjNpqUH5sZUbfb3CMFeYWNuP25IX-qh_GLy079OvD7V5q08I2NvomYUEXsgroXGMIlIhHbb2_kArDdi5Qc9orEGdXpYliWYLq7KS4TN6WuT8aqwf82tfvobTt1vtwkBxcyErroXCHRgRKfvzXNUZAvXT8xnOEyv-aQ1VfNrE_lFn4fsz7OCUxXDtDBtlaX_MVJ4i1vJlxnc1WhwFNd_OW1CzMWn1KLEpTt3Pn9wH8ORS4Zz6YTgUkh4gsHE5oEvyxpl53Chw1OIPZDQNeXrH7JJ5UmC-n5EN3TpiJXEe-8SnrdE3pvPeeizUPYhAFhI5MaeuIHCrqCuGQAjknAMbFO0QsWlyAkfvjfpphfVm80]--></g></svg>