<svg xmlns="http://www.w3.org/2000/svg" xmlns:xlink="http://www.w3.org/1999/xlink" contentStyleType="text/css" height="738px" preserveAspectRatio="none" style="width:931px;height:738px;background:#FFFFFF;" version="1.1" viewBox="0 0 931 738" width="931px" zoomAndPan="magnify"><defs/><g><!--cluster env_proc--><g id="cluster_env_proc"><rect fill="none" height="398.86" rx="2.5" ry="2.5" style="stroke:#181818;stroke-width:1.0;" width="392" x="7" y="39.5659"/><path d="M217.6895,39.5659 L217.6895,48.8628 L207.6895,58.8628 L7,58.8628 " fill="none" style="stroke:#181818;stroke-width:1.0;"/><text fill="#000000" font-family="sans-serif" font-size="14" font-weight="bold" lengthAdjust="spacing" textLength="200.6895" x="10" y="53.561">The Environment Process</text></g><!--cluster ctrl_proc--><g id="cluster_ctrl_proc"><rect fill="none" height="636.38" rx="2.5" ry="2.5" style="stroke:#181818;stroke-width:1.0;" width="458" x="467" y="96.6059"/><path d="M691.9561,96.6059 L691.9561,105.9028 L681.9561,115.9028 L467,115.9028 " fill="none" style="stroke:#181818;stroke-width:1.0;"/><text fill="#000000" font-family="sans-serif" font-size="14" font-weight="bold" lengthAdjust="spacing" textLength="214.9561" x="470" y="110.601">The Controller Sub-Process</text></g><!--entity instance--><g id="elem_instance"><rect fill="#F1F1F1" height="215.5625" rx="2.5" ry="2.5" style="stroke:#181818;stroke-width:0.5;" width="359.8076" x="23.1" y="93.5659"/><text fill="#000000" font-family="sans-serif" font-size="14" lengthAdjust="spacing" textLength="339.8076" x="33.1" y="116.561">npc_maker.ctrl.Controller(env, pop, cmd, stderr)</text><text fill="#000000" font-family="sans-serif" font-size="14" lengthAdjust="spacing" textLength="4.4502" x="33.1" y="132.8579"> </text><ellipse cx="38.6" cy="144.9565" fill="#000000" rx="2.5" ry="2.5" style="stroke:#000000;stroke-width:0.0;"/><text fill="#000000" font-family="sans-serif" font-size="14" lengthAdjust="spacing" textLength="97.0498" x="45.1" y="149.1548">new(genome)</text><ellipse cx="38.6" cy="161.2534" fill="#000000" rx="2.5" ry="2.5" style="stroke:#000000;stroke-width:0.0;"/><text fill="#000000" font-family="sans-serif" font-size="14" lengthAdjust="spacing" textLength="46.6895" x="45.1" y="165.4517">reset()</text><ellipse cx="38.6" cy="177.5503" fill="#000000" rx="2.5" ry="2.5" style="stroke:#000000;stroke-width:0.0;"/><text fill="#000000" font-family="sans-serif" font-size="14" lengthAdjust="spacing" textLength="84.8135" x="45.1" y="181.7485">advance(dt)</text><ellipse cx="38.6" cy="193.8472" fill="#000000" rx="2.5" ry="2.5" style="stroke:#000000;stroke-width:0.0;"/><text fill="#000000" font-family="sans-serif" font-size="14" lengthAdjust="spacing" textLength="144.1221" x="45.1" y="198.0454">set_input(gin, value)</text><ellipse cx="38.6" cy="210.144" fill="#000000" rx="2.5" ry="2.5" style="stroke:#000000;stroke-width:0.0;"/><text fill="#000000" font-family="sans-serif" font-size="14" lengthAdjust="spacing" textLength="152.708" x="45.1" y="214.3423">set_binary(gin, bytes)</text><ellipse cx="38.6" cy="226.4409" fill="#000000" rx="2.5" ry="2.5" style="stroke:#000000;stroke-width:0.0;"/><text fill="#000000" font-family="sans-serif" font-size="14" lengthAdjust="spacing" textLength="214.8125" x="45.1" y="230.6392">get_outputs(gin_list) -&gt; values</text><ellipse cx="38.6" cy="242.7378" fill="#000000" rx="2.5" ry="2.5" style="stroke:#000000;stroke-width:0.0;"/><text fill="#000000" font-family="sans-serif" font-size="14" lengthAdjust="spacing" textLength="75.5234" x="45.1" y="246.936">save(path)</text><ellipse cx="38.6" cy="259.0347" fill="#000000" rx="2.5" ry="2.5" style="stroke:#000000;stroke-width:0.0;"/><text fill="#000000" font-family="sans-serif" font-size="14" lengthAdjust="spacing" textLength="72.6729" x="45.1" y="263.2329">load(path)</text><ellipse cx="38.6" cy="275.3315" fill="#000000" rx="2.5" ry="2.5" style="stroke:#000000;stroke-width:0.0;"/><text fill="#000000" font-family="sans-serif" font-size="14" lengthAdjust="spacing" textLength="148.6406" x="45.1" y="279.5298">message(type, body)</text><ellipse cx="38.6" cy="291.6284" fill="#000000" rx="2.5" ry="2.5" style="stroke:#000000;stroke-width:0.0;"/><text fill="#000000" font-family="sans-serif" font-size="14" lengthAdjust="spacing" textLength="38.0625" x="45.1" y="295.8267">quit()</text></g><!--entity env_stderr--><g id="elem_env_stderr"><rect fill="#F1F1F1" height="36.2969" rx="2.5" ry="2.5" style="stroke:#181818;stroke-width:0.5;" width="61.7949" x="194.1" y="386.1259"/><text fill="#000000" font-family="sans-serif" font-size="14" lengthAdjust="spacing" textLength="41.7949" x="204.1" y="409.121">stderr</text></g><!--entity main--><g id="elem_main"><rect fill="#F1F1F1" height="101.4844" rx="2.5" ry="2.5" style="stroke:#181818;stroke-width:0.5;" width="300.0273" x="509.99" y="150.6059"/><text fill="#000000" font-family="sans-serif" font-size="14" lengthAdjust="spacing" textLength="56.6016" x="519.99" y="173.601">main.py</text><text fill="#000000" font-family="sans-serif" font-size="14" lengthAdjust="spacing" textLength="4.4502" x="519.99" y="189.8979"> </text><text fill="#000000" font-family="sans-serif" font-size="14" lengthAdjust="spacing" textLength="280.0273" x="519.99" y="206.1948">1| env, pop = npc_maker.ctrl.get_args()</text><text fill="#000000" font-family="sans-serif" font-size="14" lengthAdjust="spacing" textLength="206.2607" x="519.99" y="222.4917">2| controller = MyController()</text><text fill="#000000" font-family="sans-serif" font-size="14" lengthAdjust="spacing" textLength="276.8623" x="519.99" y="238.7885">3| npc_maker.ctrl.main_loop(controller)</text></g><!--entity main_loop--><g id="elem_main_loop"><rect fill="#F1F1F1" height="36.2969" rx="2.5" ry="2.5" style="stroke:#181818;stroke-width:0.5;" width="278.7881" x="482.61" y="386.1259"/><text fill="#000000" font-family="sans-serif" font-size="14" lengthAdjust="spacing" textLength="258.7881" x="492.61" y="409.121">npc_maker.ctrl.main_loop(controller)</text></g><!--entity API--><g id="elem_API"><rect fill="#F1F1F1" height="215.5625" rx="2.5" ry="2.5" style="stroke:#181818;stroke-width:0.5;" width="184.708" x="712.65" y="501.4259"/><text fill="#000000" font-family="sans-serif" font-size="14" lengthAdjust="spacing" textLength="131.0313" x="722.65" y="524.421">npc_maker.ctrl.API</text><text fill="#000000" font-family="sans-serif" font-size="14" lengthAdjust="spacing" textLength="4.4502" x="722.65" y="540.7179"> </text><ellipse cx="728.15" cy="552.8165" fill="#000000" rx="2.5" ry="2.5" style="stroke:#000000;stroke-width:0.0;"/><text fill="#000000" font-family="sans-serif" font-size="14" lengthAdjust="spacing" textLength="97.0498" x="734.65" y="557.0148">new(genome)</text><ellipse cx="728.15" cy="569.1134" fill="#000000" rx="2.5" ry="2.5" style="stroke:#000000;stroke-width:0.0;"/><text fill="#000000" font-family="sans-serif" font-size="14" lengthAdjust="spacing" textLength="46.6895" x="734.65" y="573.3117">reset()</text><ellipse cx="728.15" cy="585.4103" fill="#000000" rx="2.5" ry="2.5" style="stroke:#000000;stroke-width:0.0;"/><text fill="#000000" font-family="sans-serif" font-size="14" lengthAdjust="spacing" textLength="84.8135" x="734.65" y="589.6085">advance(dt)</text><ellipse cx="728.15" cy="601.7072" fill="#000000" rx="2.5" ry="2.5" style="stroke:#000000;stroke-width:0.0;"/><text fill="#000000" font-family="sans-serif" font-size="14" lengthAdjust="spacing" textLength="144.1221" x="734.65" y="605.9054">set_input(gin, value)</text><ellipse cx="728.15" cy="618.004" fill="#000000" rx="2.5" ry="2.5" style="stroke:#000000;stroke-width:0.0;"/><text fill="#000000" font-family="sans-serif" font-size="14" lengthAdjust="spacing" textLength="152.708" x="734.65" y="622.2023">set_binary(gin, bytes)</text><ellipse cx="728.15" cy="634.3009" fill="#000000" rx="2.5" ry="2.5" style="stroke:#000000;stroke-width:0.0;"/><text fill="#000000" font-family="sans-serif" font-size="14" lengthAdjust="spacing" textLength="108.7393" x="734.65" y="638.4992">get_output(gin)</text><ellipse cx="728.15" cy="650.5978" fill="#000000" rx="2.5" ry="2.5" style="stroke:#000000;stroke-width:0.0;"/><text fill="#000000" font-family="sans-serif" font-size="14" lengthAdjust="spacing" textLength="75.5234" x="734.65" y="654.796">save(path)</text><ellipse cx="728.15" cy="666.8947" fill="#000000" rx="2.5" ry="2.5" style="stroke:#000000;stroke-width:0.0;"/><text fill="#000000" font-family="sans-serif" font-size="14" lengthAdjust="spacing" textLength="72.6729" x="734.65" y="671.0929">load(path)</text><ellipse cx="728.15" cy="683.1915" fill="#000000" rx="2.5" ry="2.5" style="stroke:#000000;stroke-width:0.0;"/><text fill="#000000" font-family="sans-serif" font-size="14" lengthAdjust="spacing" textLength="148.6406" x="734.65" y="687.3898">message(type, body)</text><ellipse cx="728.15" cy="699.4884" fill="#000000" rx="2.5" ry="2.5" style="stroke:#000000;stroke-width:0.0;"/><text fill="#000000" font-family="sans-serif" font-size="14" lengthAdjust="spacing" textLength="38.0625" x="734.65" y="703.6867">quit()</text></g><!--entity eprint--><g id="elem_eprint"><rect fill="#F1F1F1" height="36.2969" rx="2.5" ry="2.5" style="stroke:#181818;stroke-width:0.5;" width="181.3145" x="490.34" y="591.0559"/><text fill="#000000" font-family="sans-serif" font-size="14" lengthAdjust="spacing" textLength="161.3145" x="500.34" y="614.051">npc_maker.ctrl.eprint()</text></g><!--entity stdin--><g id="elem_stdin"><ellipse cx="433" cy="201.3459" fill="#F1F1F1" rx="8" ry="8" style="stroke:#181818;stroke-width:0.5;"/><text fill="#000000" font-family="sans-serif" font-size="14" lengthAdjust="spacing" textLength="34.4326" x="415.7837" y="231.341">stdin</text></g><!--entity stdout--><g id="elem_stdout"><ellipse cx="433" cy="404.2759" fill="#F1F1F1" rx="8" ry="8" style="stroke:#181818;stroke-width:0.5;"/><text fill="#000000" font-family="sans-serif" font-size="14" lengthAdjust="spacing" textLength="44.5977" x="410.7012" y="434.271">stdout</text></g><!--entity stderr--><g id="elem_stderr"><ellipse cx="433" cy="609.2059" fill="#F1F1F1" rx="8" ry="8" style="stroke:#181818;stroke-width:0.5;"/><text fill="#000000" font-family="sans-serif" font-size="14" lengthAdjust="spacing" textLength="41.7949" x="412.1025" y="639.201">stderr</text></g><!--link instance to env_stderr--><!--link stdin to stdout--><!--link stdout to stderr--><!--link main to main_loop--><g id="link_main_main_loop"><path codeLine="65" d="M650.51,252.5259 C642.29,296.0059 631.9869,350.5008 626.4169,379.9008 " fill="none" id="main-to-main_loop" style="stroke:#181818;stroke-width:1.0;"/><polygon fill="#181818" points="625.3,385.7959,630.9054,377.6978,626.2307,380.8833,623.0452,376.2086,625.3,385.7959" style="stroke:#181818;stroke-width:1.0;"/><text fill="#000000" font-family="sans-serif" font-size="13" lengthAdjust="spacing" textLength="29.1104" x="634" y="352.1928">calls</text></g><!--link main to API--><g id="link_main_API"><path codeLine="66" d="M701.51,252.4159 C728.28,287.5859 761.3,336.9559 779,386.1259 C792.05,422.3759 798.332,457.9219 801.812,495.1819 " fill="none" id="main-to-API" style="stroke:#181818;stroke-width:1.0;"/><polygon fill="#181818" points="802.37,501.1559,805.5157,491.8229,801.905,496.1776,797.5504,492.5669,802.37,501.1559" style="stroke:#181818;stroke-width:1.0;"/><text fill="#000000" font-family="sans-serif" font-size="13" lengthAdjust="spacing" textLength="62.3022" x="802.303" y="401.3428">controller</text><text fill="#000000" font-family="sans-serif" font-size="13" lengthAdjust="spacing" textLength="76.9082" x="795" y="416.4756">implements</text></g><!--link main_loop to API--><!--link main_loop to eprint--><!--link instance to main--><g id="link_instance_main"><path codeLine="71" d="M320.77,93.1859 C347.36,74.6059 376.74,58.0559 407,47.9459 C489.09,20.5259 568.7869,91.1335 616.3669,145.7035 " fill="none" id="instance-to-main" style="stroke:#181818;stroke-width:1.0;"/><polygon fill="#181818" points="620.31,150.2259,617.4103,140.8136,617.0241,146.4573,611.3804,146.0711,620.31,150.2259" style="stroke:#181818;stroke-width:1.0;"/><text fill="#000000" font-family="sans-serif" font-size="13" lengthAdjust="spacing" textLength="126.2739" x="383" y="19.6328">spawns subprocess</text></g><!--link instance to stdin--><g id="link_instance_stdin"><path codeLine="72" d="M383.14,201.3459 C396.64,201.3459 404.15,201.3459 417.65,201.3459 " fill="none" id="instance-to-stdin" style="stroke:#181818;stroke-width:1.0;"/><polygon fill="#181818" points="423.65,201.3459,414.65,197.3459,418.65,201.3459,414.65,205.3459,423.65,201.3459" style="stroke:#181818;stroke-width:1.0;"/></g><!--link stdin to main_loop--><g id="link_stdin_main_loop"><path codeLine="73" d="M433.69,210.7559 C435.65,230.0959 442.82,278.3959 467,309.1259 C495.23,345.0059 535.7242,368.0157 570.2842,383.3257 " fill="none" id="stdin-to-main_loop" style="stroke:#181818;stroke-width:1.0;"/><polygon fill="#181818" points="575.77,385.7559,569.1614,378.4534,571.1985,383.7308,565.9211,385.7678,575.77,385.7559" style="stroke:#181818;stroke-width:1.0;"/></g><!--link main_loop to stdout--><g id="link_main_loop_stdout"><path codeLine="74" d="M482.26,404.2759 C468.91,404.2759 461.57,404.2759 448.23,404.2759 " fill="none" id="main_loop-to-stdout" style="stroke:#181818;stroke-width:1.0;"/><polygon fill="#181818" points="442.23,404.2759,451.23,408.2759,447.23,404.2759,451.23,400.2759,442.23,404.2759" style="stroke:#181818;stroke-width:1.0;"/></g><!--link stdout to instance--><g id="link_stdout_instance"><path codeLine="75" d="M423.68,395.1259 C406.21,379.8759 371.1487,349.2433 330.2587,313.5233 " fill="none" id="stdout-to-instance" style="stroke:#181818;stroke-width:1.0;"/><polygon fill="#181818" points="325.74,309.5759,329.8864,318.5094,329.5056,312.8654,335.1496,312.4845,325.74,309.5759" style="stroke:#181818;stroke-width:1.0;"/></g><!--link eprint to stderr--><g id="link_eprint_stderr"><path codeLine="76" d="M489.95,609.2059 C474.05,609.2059 464.15,609.2059 448.25,609.2059 " fill="none" id="eprint-to-stderr" style="stroke:#181818;stroke-width:1.0;"/><polygon fill="#181818" points="442.25,609.2059,451.25,613.2059,447.25,609.2059,451.25,605.2059,442.25,609.2059" style="stroke:#181818;stroke-width:1.0;"/></g><!--link stderr to env_stderr--><g id="link_stderr_env_stderr"><path codeLine="77" d="M424.5,599.9159 C393.42,569.5959 289.8649,468.5556 247.0249,426.7656 " fill="none" id="stderr-to-env_stderr" style="stroke:#181818;stroke-width:1.0;"/><polygon fill="#181818" points="242.73,422.5759,246.3793,431.7237,246.3091,426.0673,251.9655,425.9971,242.73,422.5759" style="stroke:#181818;stroke-width:1.0;"/><text fill="#000000" font-family="sans-serif" font-size="13" lengthAdjust="spacing" textLength="118.8662" x="293" y="467.4928">inherits by default</text></g><!--SRC=[nLHDYzim4BthLmnxiaiSQ7iBx48fFVHGMDZUqiKezgmZLfPKIVPYclxtZY8hLe8FlPJwOCdpvaDwRyRkLIZ3BU-XqRtH2fL_yfD4iDXuhZg9ZBqGZ73t_OZmHOt2QjMJ6pnQtQ1pTy0Te1fhGz_mYp5OKe5GZh8q27io0oZJr3r_HRjjl9NRprfvgwL4Mr223HXjDj3qxGQSRz7QyXnqVhq3XMz5XqhtMCuMYmvzaRvuEuPAHUkJXT2QRZVueXDg0oEN0-ROGIXkfmWU9eykWHs1Ul0KwG9QI-5y2TL3JE5I2ZvYORW_fZ2fUNjbw8aUtc7X9uDKGhTJGduE8fxy-Pglm6EyE-pZcdmkJ5RxesXRLCzLvir-CrQKWJQXvWrTODu5_8paiRD7N6w0492hlkW4JyEXoeKFEgugttEg5rKFswsP5Z7Vdo3f3VUtJH78vxPpix0VJfJqKluUlarPrqINZwVR7A5YBRKsnHAxmlR5RRqz_pBBfyUlw_44_FS63c3vBnlMM47BwlqZjaITMwAYCLfutq73fNGv6EZSPPh_KA8t4iCl9_d5sAnd8zEhK3n4c8_B1C5y12hZ37zJ3jnmCB6fhxtYFCNP2Kz-TfQLUxWPf-YQKh6P94Wvvu4CKnvjsTZlAEo8LdX7aaABBtoG_Wy0]--></g></svg>