<svg xmlns="http://www.w3.org/2000/svg" xmlns:xlink="http://www.w3.org/1999/xlink" contentStyleType="text/css" height="288px" preserveAspectRatio="none" style="width:974px;height:288px;background:#FFFFFF;" version="1.1" viewBox="0 0 974 288" width="974px" zoomAndPan="magnify"><defs/><g><rect fill="#F1F1F1" height="142.0781" rx="5" ry="5" style="stroke:#F1F1F1;stroke-width:1.5;" width="237.4922" x="10" y="10"/><text fill="#000000" font-family="sans-serif" font-size="14" font-weight="bold" lengthAdjust="spacing" textLength="43.4971" x="15" y="24.9951">name</text><text fill="#000000" font-family="sans-serif" font-size="14" lengthAdjust="spacing" textLength="41.7813" x="124.4629" y="24.9951">String</text><line style="stroke:#000000;stroke-width:1.0;" x1="119.4629" x2="119.4629" y1="10" y2="30.2969"/><line style="stroke:#000000;stroke-width:1.0;" x1="10" x2="247.4922" y1="30.2969" y2="30.2969"/><text fill="#000000" font-family="sans-serif" font-size="14" font-weight="bold" lengthAdjust="spacing" textLength="88.9492" x="15" y="45.292">description</text><text fill="#000000" font-family="sans-serif" font-size="14" lengthAdjust="spacing" textLength="105.4238" x="124.4629" y="45.292">Optional String</text><line style="stroke:#000000;stroke-width:1.0;" x1="119.4629" x2="119.4629" y1="30.2969" y2="50.5938"/><line style="stroke:#000000;stroke-width:1.0;" x1="10" x2="247.4922" y1="50.5938" y2="50.5938"/><text fill="#000000" font-family="sans-serif" font-size="14" font-weight="bold" lengthAdjust="spacing" textLength="36.1484" x="15" y="65.5889">spec</text><text fill="#000000" font-family="sans-serif" font-size="14" lengthAdjust="spacing" textLength="118.0293" x="124.4629" y="65.5889">Automatic String</text><line style="stroke:#000000;stroke-width:1.0;" x1="119.4629" x2="119.4629" y1="50.5938" y2="70.8906"/><line style="stroke:#000000;stroke-width:1.0;" x1="10" x2="247.4922" y1="70.8906" y2="70.8906"/><text fill="#000000" font-family="sans-serif" font-size="14" font-weight="bold" lengthAdjust="spacing" textLength="36.1279" x="15" y="85.8857">path</text><text fill="#000000" font-family="sans-serif" font-size="14" lengthAdjust="spacing" textLength="13.3506" x="124.4629" y="85.8857">   </text><line style="stroke:#000000;stroke-width:1.0;" x1="119.4629" x2="119.4629" y1="70.8906" y2="91.1875"/><line style="stroke:#000000;stroke-width:1.0;" x1="10" x2="247.4922" y1="91.1875" y2="91.1875"/><text fill="#000000" font-family="sans-serif" font-size="14" font-weight="bold" lengthAdjust="spacing" textLength="93.2832" x="15" y="106.1826">populations</text><text fill="#000000" font-family="sans-serif" font-size="14" lengthAdjust="spacing" textLength="13.3506" x="124.4629" y="106.1826">   </text><line style="stroke:#000000;stroke-width:1.0;" x1="119.4629" x2="119.4629" y1="91.1875" y2="111.4844"/><line style="stroke:#000000;stroke-width:1.0;" x1="10" x2="247.4922" y1="111.4844" y2="111.4844"/><text fill="#000000" font-family="sans-serif" font-size="14" font-weight="bold" lengthAdjust="spacing" textLength="64.333" x="15" y="126.4795">settings</text><text fill="#000000" font-family="sans-serif" font-size="14" lengthAdjust="spacing" textLength="13.3506" x="124.4629" y="126.4795">   </text><line style="stroke:#000000;stroke-width:1.0;" x1="119.4629" x2="119.4629" y1="111.4844" y2="131.7813"/><line style="stroke:#000000;stroke-width:1.0;" x1="10" x2="247.4922" y1="131.7813" y2="131.7813"/><text fill="#000000" font-family="sans-serif" font-size="14" font-weight="bold" lengthAdjust="spacing" textLength="99.4629" x="15" y="146.7764">user defined</text><text fill="#000000" font-family="sans-serif" font-size="14" lengthAdjust="spacing" textLength="13.3506" x="124.4629" y="146.7764">...</text><line style="stroke:#000000;stroke-width:1.0;" x1="119.4629" x2="119.4629" y1="131.7813" y2="152.0781"/><rect fill="none" height="142.0781" rx="5" ry="5" style="stroke:#000000;stroke-width:1.5;" width="237.4922" x="10" y="10"/><rect fill="#F1F1F1" height="60.8906" rx="5" ry="5" style="stroke:#F1F1F1;stroke-width:1.5;" width="59.0752" x="284" y="11.5391"/><text fill="#000000" font-family="sans-serif" font-size="14" lengthAdjust="spacing" textLength="24.4727" x="289" y="26.5342">List</text><line style="stroke:#000000;stroke-width:1.0;" x1="284" x2="343.0752" y1="31.8359" y2="31.8359"/><text fill="#000000" font-family="sans-serif" font-size="14" lengthAdjust="spacing" textLength="13.4941" x="289" y="46.8311">of</text><line style="stroke:#000000;stroke-width:1.0;" x1="284" x2="343.0752" y1="52.1328" y2="52.1328"/><text fill="#000000" font-family="sans-serif" font-size="14" lengthAdjust="spacing" textLength="49.0752" x="289" y="67.1279">Strings</text><rect fill="none" height="60.8906" rx="5" ry="5" style="stroke:#000000;stroke-width:1.5;" width="59.0752" x="284" y="11.5391"/><rect fill="#F1F1F1" height="20.2969" rx="5" ry="5" style="stroke:#F1F1F1;stroke-width:1.5;" width="23.3506" x="302" y="90.8906"/><text fill="#000000" font-family="sans-serif" font-size="14" lengthAdjust="spacing" textLength="13.3506" x="307" y="105.8857">   </text><rect fill="none" height="20.2969" rx="5" ry="5" style="stroke:#000000;stroke-width:1.5;" width="23.3506" x="302" y="90.8906"/><rect fill="#F1F1F1" height="81.1875" rx="5" ry="5" style="stroke:#F1F1F1;stroke-width:1.5;" width="224.8867" x="380" y="14.4453"/><text fill="#000000" font-family="sans-serif" font-size="14" font-weight="bold" lengthAdjust="spacing" textLength="43.4971" x="385" y="29.4404">name</text><text fill="#000000" font-family="sans-serif" font-size="14" lengthAdjust="spacing" textLength="41.7813" x="494.4629" y="29.4404">String</text><line style="stroke:#000000;stroke-width:1.0;" x1="489.4629" x2="489.4629" y1="14.4453" y2="34.7422"/><line style="stroke:#000000;stroke-width:1.0;" x1="380" x2="604.8867" y1="34.7422" y2="34.7422"/><text fill="#000000" font-family="sans-serif" font-size="14" font-weight="bold" lengthAdjust="spacing" textLength="88.9492" x="385" y="49.7373">description</text><text fill="#000000" font-family="sans-serif" font-size="14" lengthAdjust="spacing" textLength="105.4238" x="494.4629" y="49.7373">Optional String</text><line style="stroke:#000000;stroke-width:1.0;" x1="489.4629" x2="489.4629" y1="34.7422" y2="55.0391"/><line style="stroke:#000000;stroke-width:1.0;" x1="380" x2="604.8867" y1="55.0391" y2="55.0391"/><text fill="#000000" font-family="sans-serif" font-size="14" font-weight="bold" lengthAdjust="spacing" textLength="79.5225" x="385" y="70.0342">interfaces</text><text fill="#000000" font-family="sans-serif" font-size="14" lengthAdjust="spacing" textLength="13.3506" x="494.4629" y="70.0342">   </text><line style="stroke:#000000;stroke-width:1.0;" x1="489.4629" x2="489.4629" y1="55.0391" y2="75.3359"/><line style="stroke:#000000;stroke-width:1.0;" x1="380" x2="604.8867" y1="75.3359" y2="75.3359"/><text fill="#000000" font-family="sans-serif" font-size="14" font-weight="bold" lengthAdjust="spacing" textLength="99.4629" x="385" y="90.3311">user defined</text><text fill="#000000" font-family="sans-serif" font-size="14" lengthAdjust="spacing" textLength="13.3506" x="494.4629" y="90.3311">...</text><line style="stroke:#000000;stroke-width:1.0;" x1="489.4629" x2="489.4629" y1="75.3359" y2="95.6328"/><rect fill="none" height="81.1875" rx="5" ry="5" style="stroke:#000000;stroke-width:1.5;" width="224.8867" x="380" y="14.4453"/><rect fill="#F1F1F1" height="20.2969" rx="5" ry="5" style="stroke:#F1F1F1;stroke-width:1.5;" width="23.3506" x="660" y="54.8906"/><text fill="#000000" font-family="sans-serif" font-size="14" lengthAdjust="spacing" textLength="13.3506" x="665" y="69.8857">   </text><rect fill="none" height="20.2969" rx="5" ry="5" style="stroke:#000000;stroke-width:1.5;" width="23.3506" x="660" y="54.8906"/><rect fill="#F1F1F1" height="81.1875" rx="5" ry="5" style="stroke:#F1F1F1;stroke-width:1.5;" width="224.8867" x="738" y="24.4453"/><text fill="#000000" font-family="sans-serif" font-size="14" font-weight="bold" lengthAdjust="spacing" textLength="24.7871" x="743" y="39.4404">gin</text><text fill="#000000" font-family="sans-serif" font-size="14" lengthAdjust="spacing" textLength="56.2393" x="852.4629" y="39.4404">Number</text><line style="stroke:#000000;stroke-width:1.0;" x1="847.4629" x2="847.4629" y1="24.4453" y2="44.7422"/><line style="stroke:#000000;stroke-width:1.0;" x1="738" x2="962.8867" y1="44.7422" y2="44.7422"/><text fill="#000000" font-family="sans-serif" font-size="14" font-weight="bold" lengthAdjust="spacing" textLength="43.4971" x="743" y="59.7373">name</text><text fill="#000000" font-family="sans-serif" font-size="14" lengthAdjust="spacing" textLength="41.7813" x="852.4629" y="59.7373">String</text><line style="stroke:#000000;stroke-width:1.0;" x1="847.4629" x2="847.4629" y1="44.7422" y2="65.0391"/><line style="stroke:#000000;stroke-width:1.0;" x1="738" x2="962.8867" y1="65.0391" y2="65.0391"/><text fill="#000000" font-family="sans-serif" font-size="14" font-weight="bold" lengthAdjust="spacing" textLength="88.9492" x="743" y="80.0342">description</text><text fill="#000000" font-family="sans-serif" font-size="14" lengthAdjust="spacing" textLength="105.4238" x="852.4629" y="80.0342">Optional String</text><line style="stroke:#000000;stroke-width:1.0;" x1="847.4629" x2="847.4629" y1="65.0391" y2="85.3359"/><line style="stroke:#000000;stroke-width:1.0;" x1="738" x2="962.8867" y1="85.3359" y2="85.3359"/><text fill="#000000" font-family="sans-serif" font-size="14" font-weight="bold" lengthAdjust="spacing" textLength="99.4629" x="743" y="100.3311">user defined</text><text fill="#000000" font-family="sans-serif" font-size="14" lengthAdjust="spacing" textLength="13.3506" x="852.4629" y="100.3311">...</text><line style="stroke:#000000;stroke-width:1.0;" x1="847.4629" x2="847.4629" y1="85.3359" y2="105.6328"/><rect fill="none" height="81.1875" rx="5" ry="5" style="stroke:#000000;stroke-width:1.5;" width="224.8867" x="738" y="24.4453"/><rect fill="#F1F1F1" height="20.2969" rx="5" ry="5" style="stroke:#F1F1F1;stroke-width:1.5;" width="23.3506" x="302" y="151.8906"/><text fill="#000000" font-family="sans-serif" font-size="14" lengthAdjust="spacing" textLength="13.3506" x="307" y="166.8857">   </text><rect fill="none" height="20.2969" rx="5" ry="5" style="stroke:#000000;stroke-width:1.5;" width="23.3506" x="302" y="151.8906"/><rect fill="#F1F1F1" height="142.0781" rx="5" ry="5" style="stroke:#F1F1F1;stroke-width:1.5;" width="214.373" x="385.5" y="114"/><text fill="#000000" font-family="sans-serif" font-size="14" font-weight="bold" lengthAdjust="spacing" textLength="43.4971" x="390.5" y="128.9951">name</text><text fill="#000000" font-family="sans-serif" font-size="14" lengthAdjust="spacing" textLength="41.7813" x="489.4492" y="128.9951">String</text><line style="stroke:#000000;stroke-width:1.0;" x1="484.4492" x2="484.4492" y1="114" y2="134.2969"/><line style="stroke:#000000;stroke-width:1.0;" x1="385.5" x2="599.873" y1="134.2969" y2="134.2969"/><text fill="#000000" font-family="sans-serif" font-size="14" font-weight="bold" lengthAdjust="spacing" textLength="88.9492" x="390.5" y="149.292">description</text><text fill="#000000" font-family="sans-serif" font-size="14" lengthAdjust="spacing" textLength="105.4238" x="489.4492" y="149.292">Optional String</text><line style="stroke:#000000;stroke-width:1.0;" x1="484.4492" x2="484.4492" y1="134.2969" y2="154.5938"/><line style="stroke:#000000;stroke-width:1.0;" x1="385.5" x2="599.873" y1="154.5938" y2="154.5938"/><text fill="#000000" font-family="sans-serif" font-size="14" font-weight="bold" lengthAdjust="spacing" textLength="35.335" x="390.5" y="169.5889">type</text><text fill="#000000" font-family="sans-serif" font-size="14" lengthAdjust="spacing" textLength="41.7813" x="489.4492" y="169.5889">String</text><line style="stroke:#000000;stroke-width:1.0;" x1="484.4492" x2="484.4492" y1="154.5938" y2="174.8906"/><line style="stroke:#000000;stroke-width:1.0;" x1="385.5" x2="599.873" y1="174.8906" y2="174.8906"/><text fill="#000000" font-family="sans-serif" font-size="14" font-weight="bold" lengthAdjust="spacing" textLength="56.5127" x="390.5" y="189.8857">default</text><text fill="#000000" font-family="sans-serif" font-size="14" lengthAdjust="spacing" textLength="39.5322" x="489.4492" y="189.8857">Value</text><line style="stroke:#000000;stroke-width:1.0;" x1="484.4492" x2="484.4492" y1="174.8906" y2="195.1875"/><line style="stroke:#000000;stroke-width:1.0;" x1="385.5" x2="599.873" y1="195.1875" y2="195.1875"/><text fill="#000000" font-family="sans-serif" font-size="14" font-weight="bold" lengthAdjust="spacing" textLength="73.2949" x="390.5" y="210.1826">minimum</text><text fill="#000000" font-family="sans-serif" font-size="14" lengthAdjust="spacing" textLength="56.2393" x="489.4492" y="210.1826">Number</text><line style="stroke:#000000;stroke-width:1.0;" x1="484.4492" x2="484.4492" y1="195.1875" y2="215.4844"/><line style="stroke:#000000;stroke-width:1.0;" x1="385.5" x2="599.873" y1="215.4844" y2="215.4844"/><text fill="#000000" font-family="sans-serif" font-size="14" font-weight="bold" lengthAdjust="spacing" textLength="77.0068" x="390.5" y="230.4795">maximum</text><text fill="#000000" font-family="sans-serif" font-size="14" lengthAdjust="spacing" textLength="56.2393" x="489.4492" y="230.4795">Number</text><line style="stroke:#000000;stroke-width:1.0;" x1="484.4492" x2="484.4492" y1="215.4844" y2="235.7813"/><line style="stroke:#000000;stroke-width:1.0;" x1="385.5" x2="599.873" y1="235.7813" y2="235.7813"/><text fill="#000000" font-family="sans-serif" font-size="14" font-weight="bold" lengthAdjust="spacing" textLength="51.167" x="390.5" y="250.7764">values</text><text fill="#000000" font-family="sans-serif" font-size="14" lengthAdjust="spacing" textLength="13.3506" x="489.4492" y="250.7764">   </text><line style="stroke:#000000;stroke-width:1.0;" x1="484.4492" x2="484.4492" y1="235.7813" y2="256.0781"/><rect fill="none" height="142.0781" rx="5" ry="5" style="stroke:#000000;stroke-width:1.5;" width="214.373" x="385.5" y="114"/><rect fill="#F1F1F1" height="60.8906" rx="5" ry="5" style="stroke:#F1F1F1;stroke-width:1.5;" width="59.0752" x="642" y="215.5391"/><text fill="#000000" font-family="sans-serif" font-size="14" lengthAdjust="spacing" textLength="24.4727" x="647" y="230.5342">List</text><line style="stroke:#000000;stroke-width:1.0;" x1="642" x2="701.0752" y1="235.8359" y2="235.8359"/><text fill="#000000" font-family="sans-serif" font-size="14" lengthAdjust="spacing" textLength="13.4941" x="647" y="250.8311">of</text><line style="stroke:#000000;stroke-width:1.0;" x1="642" x2="701.0752" y1="256.1328" y2="256.1328"/><text fill="#000000" font-family="sans-serif" font-size="14" lengthAdjust="spacing" textLength="49.0752" x="647" y="271.1279">Strings</text><rect fill="none" height="60.8906" rx="5" ry="5" style="stroke:#000000;stroke-width:1.5;" width="59.0752" x="642" y="215.5391"/><path d="M235,81.0391 L248,81.0391 C258.4839,81.0391 268.7373,77.2624 277.8885,72.0595 " fill="none" style="stroke:#000000;stroke-width:1.0;stroke-dasharray:3.0,3.0;"/><path d="M279.4913,74.642 L279.8254,70.8575 L276.2857,69.4771 L284.3447,68.0526 L279.4913,74.642 " fill="#000000" style="stroke:#000000;stroke-width:1.0;"/><ellipse cx="235" cy="81.0391" fill="#000000" rx="3" ry="3" style="stroke:#000000;stroke-width:1.0;"/><path d="M670.6791,65.0391 L683.6791,65.0391 C694.3308,65.0391 711.2858,65.0391 730.3825,65.0391 " fill="none" style="stroke:#000000;stroke-width:1.0;stroke-dasharray:3.0,3.0;"/><path d="M730.3825,68.1224 L732.695,65.0391 L730.3825,61.9557 L738.0909,65.0391 L730.3825,68.1224 " fill="#000000" style="stroke:#000000;stroke-width:1.0;"/><ellipse cx="670.6791" cy="65.0391" fill="#000000" rx="3" ry="3" style="stroke:#000000;stroke-width:1.0;"/><path d="M593,65.0391 L606,65.0391 C621.7369,65.0391 639.6169,65.0391 652.6354,65.0391 " fill="none" style="stroke:#000000;stroke-width:1.0;stroke-dasharray:3.0,3.0;"/><path d="M652.6354,68.1517 L654.9699,65.0391 L652.6354,61.9264 L660.417,65.0391 L652.6354,68.1517 " fill="#000000" style="stroke:#000000;stroke-width:1.0;"/><ellipse cx="593" cy="65.0391" fill="#000000" rx="3" ry="3" style="stroke:#000000;stroke-width:1.0;"/><path d="M313.0926,101.2736 L325.6791,98.0209 C336.378,95.256 353.436,90.8477 372.6362,85.8859 " fill="none" style="stroke:#000000;stroke-width:1.0;stroke-dasharray:3.0,3.0;"/><path d="M373.4068,88.8678 L374.8726,85.3079 L371.8656,82.904 L380.0909,83.9594 L373.4068,88.8678 " fill="#000000" style="stroke:#000000;stroke-width:1.0;"/><ellipse cx="313.0926" cy="101.2736" fill="#000000" rx="3" ry="3" style="stroke:#000000;stroke-width:1.0;"/><path d="M235,101.0391 L248,101.0391 C263.7369,101.0391 281.6169,101.0391 294.6354,101.0391 " fill="none" style="stroke:#000000;stroke-width:1.0;stroke-dasharray:3.0,3.0;"/><path d="M294.6354,104.1517 L296.9699,101.0391 L294.6354,97.9264 L302.417,101.0391 L294.6354,104.1517 " fill="#000000" style="stroke:#000000;stroke-width:1.0;"/><ellipse cx="235" cy="101.0391" fill="#000000" rx="3" ry="3" style="stroke:#000000;stroke-width:1.0;"/><path d="M587,246.0391 L600,246.0391 C611.3172,246.0391 623.649,246.0391 634.8121,246.0391 " fill="none" style="stroke:#000000;stroke-width:1.0;stroke-dasharray:3.0,3.0;"/><path d="M634.8121,249.045 L637.0665,246.0391 L634.8121,243.0332 L642.3268,246.0391 L634.8121,249.045 " fill="#000000" style="stroke:#000000;stroke-width:1.0;"/><ellipse cx="587" cy="246.0391" fill="#000000" rx="3" ry="3" style="stroke:#000000;stroke-width:1.0;"/><path d="M312.7863,161.8822 L325.6791,163.5482 C337.3716,165.059 356.6595,167.5512 378.038,170.3136 " fill="none" style="stroke:#000000;stroke-width:1.0;stroke-dasharray:3.0,3.0;"/><path d="M377.6432,173.3696 L380.33,170.6098 L378.4329,167.2576 L385.678,171.3008 L377.6432,173.3696 " fill="#000000" style="stroke:#000000;stroke-width:1.0;"/><ellipse cx="312.7863" cy="161.8822" fill="#000000" rx="3" ry="3" style="stroke:#000000;stroke-width:1.0;"/><path d="M235,122.0391 L248,122.0391 C267.3578,122.0391 285.7903,135.066 298.0492,146.2515 " fill="none" style="stroke:#000000;stroke-width:1.0;stroke-dasharray:3.0,3.0;"/><path d="M295.938,148.4512 L299.6989,147.8349 L300.1604,144.0519 L303.5483,151.5295 L295.938,148.4512 " fill="#000000" style="stroke:#000000;stroke-width:1.0;"/><ellipse cx="235" cy="122.0391" fill="#000000" rx="3" ry="3" style="stroke:#000000;stroke-width:1.0;"/><!--SRC=[hLF1JXin4BtxAqO-4GbMbA8goWaefLAQD8YGN107PtUIcgx7AtiSG8X_nzueYn98Y10-MDQyDs-UP-mJpyhndRSadWJ49KaPb1sGGtQQPd9_4ItGvqvNh2qbS52VL0chB5zXdk3JmDOerlaQNYd-5_4RsTEUvJv8EqtxWkJbxP9cgr2gLC4dTXrCwwavRNRQe3ivRjYQ6DrKvRXQyVtAJTPCrzf_WvcWMvFSpURdx3PPmQE30gUQi4XfMPR9DypdbSZjsistIYnIbtFno5mFwek6yk5K-B7QAZPLeUH46Aiou3fkD6aJpCO9IQCUjXFcITPlUx4RElLkKv_52L9H_pLnMIhYKRy7StG-jW2-PKU7HyTPUuAilk-Dw3_PUuBScagN2AmDjiJUxyiUU1jSZb14FqvFGkfVItJLNC5LeCJhmA12wfx_MGRW5ysrisIGM7J7_LV2Z-E3CyqmH1TjmBWlpXSjZHcvBU8DEp2wlZXeYvwYML2pg8qaVjgewnuZDdm1]--></g></svg>