<svg xmlns="http://www.w3.org/2000/svg" xmlns:xlink="http://www.w3.org/1999/xlink" contentStyleType="text/css" height="913px" preserveAspectRatio="none" style="width:1308px;height:913px;background:#FFFFFF;" version="1.1" viewBox="0 0 1308 913" width="1308px" zoomAndPan="magnify"><defs/><g><!--cluster mgmt_proc--><g id="cluster_mgmt_proc"><rect fill="none" height="762.35" rx="2.5" ry="2.5" style="stroke:#181818;stroke-width:1.0;" width="552" x="7" y="7"/><path d="M220.0547,7 L220.0547,16.2969 L210.0547,26.2969 L7,26.2969 " fill="none" style="stroke:#181818;stroke-width:1.0;"/><text fill="#000000" font-family="sans-serif" font-size="14" font-weight="bold" lengthAdjust="spacing" textLength="203.0547" x="10" y="20.9951">The Management Process</text></g><!--cluster env_proc--><g id="cluster_env_proc"><rect fill="none" height="843.05" rx="2.5" ry="2.5" style="stroke:#181818;stroke-width:1.0;" width="675" x="627" y="64.04"/><path d="M873.5713,64.04 L873.5713,73.3369 L863.5713,83.3369 L627,83.3369 " fill="none" style="stroke:#181818;stroke-width:1.0;"/><text fill="#000000" font-family="sans-serif" font-size="14" font-weight="bold" lengthAdjust="spacing" textLength="236.5713" x="630" y="78.0351">The Environment Sub-Process</text></g><!--entity instance--><g id="elem_instance"><rect fill="#F1F1F1" height="215.5625" rx="2.5" ry="2.5" style="stroke:#181818;stroke-width:0.5;" width="520.0693" x="22.97" y="42"/><text fill="#000000" font-family="sans-serif" font-size="14" lengthAdjust="spacing" textLength="500.0693" x="32.97" y="64.9951">npc_maker.env.Environment(evo, env, mode, settings, stderr, timeout)</text><text fill="#000000" font-family="sans-serif" font-size="14" lengthAdjust="spacing" textLength="4.4502" x="32.97" y="81.292"> </text><ellipse cx="38.47" cy="93.3906" fill="#000000" rx="2.5" ry="2.5" style="stroke:#000000;stroke-width:0.0;"/><text fill="#000000" font-family="sans-serif" font-size="14" lengthAdjust="spacing" textLength="43.5313" x="44.97" y="97.5889">start()</text><ellipse cx="38.47" cy="109.6875" fill="#000000" rx="2.5" ry="2.5" style="stroke:#000000;stroke-width:0.0;"/><text fill="#000000" font-family="sans-serif" font-size="14" lengthAdjust="spacing" textLength="41.1592" x="44.97" y="113.8857">stop()</text><ellipse cx="38.47" cy="125.9844" fill="#000000" rx="2.5" ry="2.5" style="stroke:#000000;stroke-width:0.0;"/><text fill="#000000" font-family="sans-serif" font-size="14" lengthAdjust="spacing" textLength="53.1699" x="44.97" y="130.1826">pause()</text><ellipse cx="38.47" cy="142.2813" fill="#000000" rx="2.5" ry="2.5" style="stroke:#000000;stroke-width:0.0;"/><text fill="#000000" font-family="sans-serif" font-size="14" lengthAdjust="spacing" textLength="63.7109" x="44.97" y="146.4795">resume()</text><ellipse cx="38.47" cy="158.5781" fill="#000000" rx="2.5" ry="2.5" style="stroke:#000000;stroke-width:0.0;"/><text fill="#000000" font-family="sans-serif" font-size="14" lengthAdjust="spacing" textLength="75.5234" x="44.97" y="162.7764">save(path)</text><ellipse cx="38.47" cy="174.875" fill="#000000" rx="2.5" ry="2.5" style="stroke:#000000;stroke-width:0.0;"/><text fill="#000000" font-family="sans-serif" font-size="14" lengthAdjust="spacing" textLength="72.6729" x="44.97" y="179.0732">load(path)</text><ellipse cx="38.47" cy="191.1719" fill="#000000" rx="2.5" ry="2.5" style="stroke:#000000;stroke-width:0.0;"/><text fill="#000000" font-family="sans-serif" font-size="14" lengthAdjust="spacing" textLength="107.5088" x="44.97" y="195.3701">send(message)</text><ellipse cx="38.47" cy="207.4688" fill="#000000" rx="2.5" ry="2.5" style="stroke:#000000;stroke-width:0.0;"/><text fill="#000000" font-family="sans-serif" font-size="14" lengthAdjust="spacing" textLength="38.0625" x="44.97" y="211.667">quit()</text><ellipse cx="38.47" cy="223.7656" fill="#000000" rx="2.5" ry="2.5" style="stroke:#000000;stroke-width:0.0;"/><text fill="#000000" font-family="sans-serif" font-size="14" lengthAdjust="spacing" textLength="44.7822" x="44.97" y="227.9639">flush()</text><ellipse cx="38.47" cy="240.0625" fill="#000000" rx="2.5" ry="2.5" style="stroke:#000000;stroke-width:0.0;"/><text fill="#000000" font-family="sans-serif" font-size="14" lengthAdjust="spacing" textLength="36.1553" x="44.97" y="244.2607">poll()</text></g><!--entity evo--><g id="elem_evo"><rect fill="#F1F1F1" height="101.4844" rx="2.5" ry="2.5" style="stroke:#181818;stroke-width:0.5;" width="258.2627" x="159.87" y="432.34"/><text fill="#000000" font-family="sans-serif" font-size="14" lengthAdjust="spacing" textLength="176.791" x="169.87" y="455.3351">npc_maker.evo.Evolution</text><text fill="#000000" font-family="sans-serif" font-size="14" lengthAdjust="spacing" textLength="4.4502" x="169.87" y="471.632"> </text><ellipse cx="175.37" cy="483.7306" fill="#000000" rx="2.5" ry="2.5" style="stroke:#000000;stroke-width:0.0;"/><text fill="#000000" font-family="sans-serif" font-size="14" lengthAdjust="spacing" textLength="133.9229" x="181.87" y="487.9289">controller() -&gt; cmd</text><ellipse cx="175.37" cy="500.0275" fill="#000000" rx="2.5" ry="2.5" style="stroke:#000000;stroke-width:0.0;"/><text fill="#000000" font-family="sans-serif" font-size="14" lengthAdjust="spacing" textLength="226.2627" x="181.87" y="504.2257">birth(parents) -&gt; [genome, info]</text><ellipse cx="175.37" cy="516.3244" fill="#000000" rx="2.5" ry="2.5" style="stroke:#000000;stroke-width:0.0;"/><text fill="#000000" font-family="sans-serif" font-size="14" lengthAdjust="spacing" textLength="119.3076" x="181.87" y="520.5226">death(individual)</text></g><!--entity mgmt_stderr--><g id="elem_mgmt_stderr"><rect fill="#F1F1F1" height="36.2969" rx="2.5" ry="2.5" style="stroke:#181818;stroke-width:0.5;" width="61.7949" x="402.1" y="717.05"/><text fill="#000000" font-family="sans-serif" font-size="14" lengthAdjust="spacing" textLength="41.7949" x="412.1" y="740.0451">stderr</text></g><!--entity main--><g id="elem_main"><rect fill="#F1F1F1" height="101.4844" rx="2.5" ry="2.5" style="stroke:#181818;stroke-width:0.5;" width="287.4014" x="705.3" y="99.04"/><text fill="#000000" font-family="sans-serif" font-size="14" lengthAdjust="spacing" textLength="56.6016" x="715.3" y="122.0351">main.py</text><text fill="#000000" font-family="sans-serif" font-size="14" lengthAdjust="spacing" textLength="4.4502" x="715.3" y="138.332"> </text><text fill="#000000" font-family="sans-serif" font-size="14" lengthAdjust="spacing" textLength="201.3252" x="715.3" y="154.6289">1| npc_maker.env.get_args()</text><text fill="#000000" font-family="sans-serif" font-size="14" lengthAdjust="spacing" textLength="95.751" x="715.3" y="170.9257">2| while True:</text><text fill="#000000" font-family="sans-serif" font-size="14" lengthAdjust="spacing" textLength="267.4014" x="715.3" y="187.2226">3|     message = npc_maker.env.poll()</text></g><!--entity poll--><g id="elem_poll"><rect fill="#F1F1F1" height="36.2969" rx="2.5" ry="2.5" style="stroke:#181818;stroke-width:0.5;" width="167.9775" x="643.01" y="464.93"/><text fill="#000000" font-family="sans-serif" font-size="14" lengthAdjust="spacing" textLength="147.9775" x="653.01" y="487.9251">npc_maker.env.poll()</text></g><!--entity poll_results--><g id="elem_poll_results"><rect fill="#F1F1F1" height="297.0469" rx="2.5" ry="2.5" style="stroke:#181818;stroke-width:0.5;" width="245.8252" x="939.09" y="334.56"/><ellipse cx="954.59" cy="353.3569" fill="#000000" rx="2.5" ry="2.5" style="stroke:#000000;stroke-width:0.0;"/><text fill="#000000" font-family="sans-serif" font-size="14" lengthAdjust="spacing" textLength="36.5244" x="961.09" y="357.5551">None</text><ellipse cx="954.59" cy="369.6538" fill="#000000" rx="2.5" ry="2.5" style="stroke:#000000;stroke-width:0.0;"/><text fill="#000000" font-family="sans-serif" font-size="14" lengthAdjust="spacing" textLength="47.0791" x="961.09" y="373.852">"Start"</text><ellipse cx="954.59" cy="385.9506" fill="#000000" rx="2.5" ry="2.5" style="stroke:#000000;stroke-width:0.0;"/><text fill="#000000" font-family="sans-serif" font-size="14" lengthAdjust="spacing" textLength="44.707" x="961.09" y="390.1489">"Stop"</text><ellipse cx="954.59" cy="402.2475" fill="#000000" rx="2.5" ry="2.5" style="stroke:#000000;stroke-width:0.0;"/><text fill="#000000" font-family="sans-serif" font-size="14" lengthAdjust="spacing" textLength="54.6807" x="961.09" y="406.4457">"Pause"</text><ellipse cx="954.59" cy="418.5444" fill="#000000" rx="2.5" ry="2.5" style="stroke:#000000;stroke-width:0.0;"/><text fill="#000000" font-family="sans-serif" font-size="14" lengthAdjust="spacing" textLength="69.6377" x="961.09" y="422.7426">"Resume"</text><ellipse cx="954.59" cy="434.8413" fill="#000000" rx="2.5" ry="2.5" style="stroke:#000000;stroke-width:0.0;"/><text fill="#000000" font-family="sans-serif" font-size="14" lengthAdjust="spacing" textLength="83.4121" x="961.09" y="439.0395">"Heartbeat"</text><ellipse cx="954.59" cy="451.1381" fill="#000000" rx="2.5" ry="2.5" style="stroke:#000000;stroke-width:0.0;"/><text fill="#000000" font-family="sans-serif" font-size="14" lengthAdjust="spacing" textLength="42.1504" x="961.09" y="455.3364">"Quit"</text><ellipse cx="954.59" cy="467.435" fill="#000000" rx="2.5" ry="2.5" style="stroke:#000000;stroke-width:0.0;"/><text fill="#000000" font-family="sans-serif" font-size="14" lengthAdjust="spacing" textLength="119.752" x="961.09" y="471.6332">{"Save":"PATH"}</text><ellipse cx="954.59" cy="483.7319" fill="#000000" rx="2.5" ry="2.5" style="stroke:#000000;stroke-width:0.0;"/><text fill="#000000" font-family="sans-serif" font-size="14" lengthAdjust="spacing" textLength="119.2188" x="961.09" y="487.9301">{"Load":"PATH"}</text><ellipse cx="954.59" cy="500.0288" fill="#000000" rx="2.5" ry="2.5" style="stroke:#000000;stroke-width:0.0;"/><text fill="#000000" font-family="sans-serif" font-size="14" lengthAdjust="spacing" textLength="131.2773" x="961.09" y="504.227">{"Message":JSON}</text><ellipse cx="954.59" cy="516.3256" fill="#000000" rx="2.5" ry="2.5" style="stroke:#000000;stroke-width:0.0;"/><text fill="#000000" font-family="sans-serif" font-size="14" lengthAdjust="spacing" textLength="69.0225" x="961.09" y="520.5239">{"Birth":{</text><text fill="#000000" font-family="sans-serif" font-size="14" lengthAdjust="spacing" textLength="199.124" x="975.7912" y="536.8207">"population":"POPULATION",</text><text fill="#000000" font-family="sans-serif" font-size="14" lengthAdjust="spacing" textLength="97.1523" x="975.7912" y="553.1176">"name":UUID,</text><text fill="#000000" font-family="sans-serif" font-size="14" lengthAdjust="spacing" textLength="188.7266" x="975.7912" y="569.4145">"controller":["COMMAND"],</text><text fill="#000000" font-family="sans-serif" font-size="14" lengthAdjust="spacing" textLength="141.3467" x="975.7912" y="585.7114">"genome":GENOME,</text><text fill="#000000" font-family="sans-serif" font-size="14" lengthAdjust="spacing" textLength="117.4141" x="975.7912" y="602.0082">"parents":[UUID]</text><text fill="#000000" font-family="sans-serif" font-size="14" lengthAdjust="spacing" textLength="17.8145" x="957.9904" y="618.3051">}}</text></g><!--entity env_api--><g id="elem_env_api"><rect fill="#F1F1F1" height="85.1875" rx="2.5" ry="2.5" style="stroke:#181818;stroke-width:0.5;" width="183.1875" x="643.41" y="692.61"/><text fill="#000000" font-family="sans-serif" font-size="14" lengthAdjust="spacing" textLength="147.1299" x="653.41" y="715.6051">npc_maker.env.ack()</text><text fill="#000000" font-family="sans-serif" font-size="14" lengthAdjust="spacing" textLength="149.0029" x="653.41" y="731.902">npc_maker.env.info()</text><text fill="#000000" font-family="sans-serif" font-size="14" lengthAdjust="spacing" textLength="160.6719" x="653.41" y="748.1989">npc_maker.env.score()</text><text fill="#000000" font-family="sans-serif" font-size="14" lengthAdjust="spacing" textLength="163.1875" x="653.41" y="764.4957">npc_maker.env.death()</text></g><!--entity eprint--><g id="elem_eprint"><rect fill="#F1F1F1" height="36.2969" rx="2.5" ry="2.5" style="stroke:#181818;stroke-width:0.5;" width="184.2539" x="642.87" y="854.79"/><text fill="#000000" font-family="sans-serif" font-size="14" lengthAdjust="spacing" textLength="164.2539" x="652.87" y="877.7851">npc_maker.env.eprint()</text></g><!--entity stdin--><g id="elem_stdin"><ellipse cx="593" cy="483.08" fill="#F1F1F1" rx="8" ry="8" style="stroke:#181818;stroke-width:0.5;"/><text fill="#000000" font-family="sans-serif" font-size="14" lengthAdjust="spacing" textLength="34.4326" x="575.7837" y="513.0751">stdin</text></g><!--entity stdout--><g id="elem_stdout"><ellipse cx="593" cy="735.2" fill="#F1F1F1" rx="8" ry="8" style="stroke:#181818;stroke-width:0.5;"/><text fill="#000000" font-family="sans-serif" font-size="14" lengthAdjust="spacing" textLength="44.5977" x="570.7012" y="765.1951">stdout</text></g><!--entity stderr--><g id="elem_stderr"><ellipse cx="593" cy="872.94" fill="#F1F1F1" rx="8" ry="8" style="stroke:#181818;stroke-width:0.5;"/><text fill="#000000" font-family="sans-serif" font-size="14" lengthAdjust="spacing" textLength="41.7949" x="572.1025" y="902.9351">stderr</text></g><!--link instance to evo--><g id="link_instance_evo"><path codeLine="32" d="M284.94,257.89 C286,316.3 287.1517,379.871 287.9817,425.851 " fill="none" id="instance-to-evo" style="stroke:#181818;stroke-width:1.0;"/><polygon fill="#181818" points="288.09,431.85,291.9269,422.7793,287.9998,426.8508,283.9282,422.9237,288.09,431.85" style="stroke:#181818;stroke-width:1.0;"/><text fill="#000000" font-family="sans-serif" font-size="13" lengthAdjust="spacing" textLength="29.1104" x="287" y="300.6269">calls</text></g><!--link evo to mgmt_stderr--><!--link stdin to stdout--><!--link stdout to stderr--><!--link main to poll--><g id="link_main_poll"><path codeLine="90" d="M830.6,200.74 C802.78,276.3 753.4028,410.3694 735.4528,459.1294 " fill="none" id="main-to-poll" style="stroke:#181818;stroke-width:1.0;"/><polygon fill="#181818" points="733.38,464.76,740.2429,457.696,735.1073,460.0678,732.7355,454.9323,733.38,464.76" style="stroke:#181818;stroke-width:1.0;"/><text fill="#000000" font-family="sans-serif" font-size="13" lengthAdjust="spacing" textLength="29.1104" x="796" y="300.6269">calls</text></g><!--link poll to poll_results--><g id="link_poll_poll_results"><path codeLine="91" d="M811.1,483.08 C849.67,483.08 890.16,483.08 932.59,483.08 " fill="none" id="poll-to-poll_results" style="stroke:#181818;stroke-width:1.0;"/><polygon fill="#181818" points="938.59,483.08,929.59,479.08,933.59,483.08,929.59,487.08,938.59,483.08" style="stroke:#181818;stroke-width:1.0;"/><text fill="#000000" font-family="sans-serif" font-size="13" lengthAdjust="spacing" textLength="92.022" x="829.04" y="476.1469">returns one of</text></g><!--link main to env_api--><g id="link_main_env_api"><path codeLine="92" d="M992.89,186.6 C1069.25,213.72 1156.48,259.54 1202,334.56 C1270.49,447.43 1284.73,528.72 1202,631.61 C1155.86,688.98 955.4448,715.551 833.0148,726.801 " fill="none" id="main-to-env_api" style="stroke:#181818;stroke-width:1.0;"/><polygon fill="#181818" points="827.04,727.35,836.3683,730.5097,832.019,726.8925,835.6362,722.5432,827.04,727.35" style="stroke:#181818;stroke-width:1.0;"/><text fill="#000000" font-family="sans-serif" font-size="13" lengthAdjust="spacing" textLength="29.1104" x="1259" y="487.6469">calls</text></g><!--link poll to env_api--><!--link env_api to eprint--><!--link instance to main--><g id="link_instance_main"><path codeLine="99" d="M543.22,149.78 C598.83,149.78 649.61,149.78 698.92,149.78 " fill="none" id="instance-to-main" style="stroke:#181818;stroke-width:1.0;"/><polygon fill="#181818" points="704.92,149.78,695.92,145.78,699.92,149.78,695.92,153.78,704.92,149.78" style="stroke:#181818;stroke-width:1.0;"/><text fill="#000000" font-family="sans-serif" font-size="13" lengthAdjust="spacing" textLength="126.2739" x="561.17" y="142.8469">spawns subprocess</text></g><!--link instance to stdin--><g id="link_instance_stdin"><path codeLine="100" d="M489.14,258.04 C516.24,280.03 540.86,305.5 559,334.56 C588.09,381.15 592.1932,444.0018 592.7732,467.7018 " fill="none" id="instance-to-stdin" style="stroke:#181818;stroke-width:1.0;"/><polygon fill="#181818" points="592.92,473.7,596.6986,464.6048,592.7977,468.7015,588.701,464.8006,592.92,473.7" style="stroke:#181818;stroke-width:1.0;"/></g><!--link stdin to poll--><g id="link_stdin_poll"><path codeLine="101" d="M602.42,483.08 C615.89,483.08 623.35,483.08 636.81,483.08 " fill="none" id="stdin-to-poll" style="stroke:#181818;stroke-width:1.0;"/><polygon fill="#181818" points="642.81,483.08,633.81,479.08,637.81,483.08,633.81,487.08,642.81,483.08" style="stroke:#181818;stroke-width:1.0;"/></g><!--reverse link stdout to env_api--><g id="link_stdout_env_api"><path codeLine="102" d="M608.43,735.2 C621.98,735.2 629.53,735.2 643.08,735.2 " fill="none" id="stdout-backto-env_api" style="stroke:#181818;stroke-width:1.0;"/><polygon fill="#181818" points="602.43,735.2,611.43,739.2,607.43,735.2,611.43,731.2,602.43,735.2" style="stroke:#181818;stroke-width:1.0;"/></g><!--reverse link instance to stdout--><g id="link_instance_stdout"><path codeLine="103" d="M385.477,262.4401 C404.997,286.6401 420.46,308.3 436,334.56 C522.36,480.51 579.22,682.67 590.81,725.87 " fill="none" id="instance-backto-stdout" style="stroke:#181818;stroke-width:1.0;"/><polygon fill="#181818" points="381.71,257.77,384.247,267.2865,384.8491,261.6618,390.4739,262.2639,381.71,257.77" style="stroke:#181818;stroke-width:1.0;"/></g><!--reverse link stderr to eprint--><g id="link_stderr_eprint"><path codeLine="104" d="M608.43,872.94 C621.81,872.94 629.19,872.94 642.56,872.94 " fill="none" id="stderr-backto-eprint" style="stroke:#181818;stroke-width:1.0;"/><polygon fill="#181818" points="602.43,872.94,611.43,876.94,607.43,872.94,611.43,868.94,602.43,872.94" style="stroke:#181818;stroke-width:1.0;"/></g><!--reverse link mgmt_stderr to stderr--><g id="link_mgmt_stderr_stderr"><path codeLine="105" d="M435.7874,759.431 C438.8074,779.171 445.63,805.31 465,824.79 C499.05,859.06 560.12,868.65 583.52,871.14 " fill="none" id="mgmt_stderr-backto-stderr" style="stroke:#181818;stroke-width:1.0;"/><polygon fill="#181818" points="434.88,753.5,432.2871,763.0014,435.6361,758.4425,440.1951,761.7916,434.88,753.5" style="stroke:#181818;stroke-width:1.0;"/><text fill="#000000" font-family="sans-serif" font-size="13" lengthAdjust="spacing" textLength="118.8662" x="466" y="820.8569">inherits by default</text></g><!--SRC=[VLNRRXen47tVhnZvfII2I6tVLcgaD8cQLE7IGfuGYipk05PsxQtj1KK9_zxnsdiXsPO7y9ovs6EVCvXd8GkkUGw9oWibKTgvVSaGD2QMoss6KRGXDm9Rx136NF8jvXG5CwqID8O1Dv1lS_jK402lKGHjAH3IK9K4OKamW2oIfvm_exv0kR-ubNkXbNJL1hXNGo1m2BbASGW6hHLoQsXbKzHw25Rag4fxLXMglix9nxKTd3MMAXgZuAN1nj9eohmr3T_ZeE1sLmEPuka9O52cWvpwetPhx4yfsiqsMMbsxMugoofZTTe_jVMnzRswkDshhBH2oMutYP9MKo7KWpCONKAIfy6p5jhkw7oQQfhAjzoYL3bTb90RjGfXAL870o5JiHTfoREU0rKlvQyq7CmRTMJpO2FQn9q-XeHdcN4-PuwMEv6cA5UZRgde64LMRT7kK1C50AW1yWZPBEdbchNVhl9twpLHVl7E5NRfSB537vYNwr6NaCIaNZxcdFRqVRlbHV7IFi3djtVyf7wUkDwQyCfVtk2m4oIDXIunhg2lRr2LyZo1R-yA_8iL3kzLnFyIdXo7Csj2uZbCo1UMREw4m5fB5OqnSq9ehD-L41hp3YblJRHfa5z4yjfuPNCI2elPx6fnnuuD-a1g-OYE_Ism-ETyEcdXxuwxB7wj0FzXXIhAZ3l-kpBJsUF3rU9-Ec73Rf2absRnu-FzpGdSgeJ5ItOz7O-l9ZTiTHBZnS7Y7xUJwVZsn1L4HBckyYguZiSUxHA7U25w7uedpu4LfxXJOw_394fZhyUBjczs55hGJz_stjKcLRHsYgsOLKiMl1dWXZynJKDRQcc0zW6rwURNFNTKxskqMWmXRXw4uAwpEfWJwYUuLbBIdmWzie4rsWEY11eGO0yA2gzLD54pS62aB_r1OZ05Fr2MATSXy5sOdor-WhYFmzmve_f816MNzKG9yoI0TQKet6yRwqPC68q1x4xBc39fl0cwmVKBZTeDfzly2m00]--></g></svg>