<svg xmlns="http://www.w3.org/2000/svg" xmlns:xlink="http://www.w3.org/1999/xlink" contentStyleType="text/css" height="288px" preserveAspectRatio="none" style="width:970px;height:288px;background:#FFFFFF;" version="1.1" viewBox="0 0 970 288" width="970px" zoomAndPan="magnify"><defs/><g><rect fill="#F1F1F1" height="142.0781" rx="5" ry="5" style="stroke:#F1F1F1;stroke-width:1.5;" width="236.0088" x="10" y="10"/><text fill="#000000" font-family="sans-serif" font-size="14" font-weight="bold" lengthAdjust="spacing" textLength="43.4971" x="15" y="24.9951">name</text><text fill="#000000" font-family="sans-serif" font-size="14" lengthAdjust="spacing" textLength="41.7813" x="122.9795" y="24.9951">String</text><line style="stroke:#000000;stroke-width:1.0;" x1="117.9795" x2="117.9795" y1="10" y2="30.2969"/><line style="stroke:#000000;stroke-width:1.0;" x1="10" x2="246.0088" y1="30.2969" y2="30.2969"/><text fill="#000000" font-family="sans-serif" font-size="14" font-weight="bold" lengthAdjust="spacing" textLength="88.9492" x="15" y="45.292">description</text><text fill="#000000" font-family="sans-serif" font-size="14" lengthAdjust="spacing" textLength="105.4238" x="122.9795" y="45.292">Optional String</text><line style="stroke:#000000;stroke-width:1.0;" x1="117.9795" x2="117.9795" y1="30.2969" y2="50.5938"/><line style="stroke:#000000;stroke-width:1.0;" x1="10" x2="246.0088" y1="50.5938" y2="50.5938"/><text fill="#000000" font-family="sans-serif" font-size="14" font-weight="bold" lengthAdjust="spacing" textLength="36.1484" x="15" y="65.5889">spec</text><text fill="#000000" font-family="sans-serif" font-size="14" lengthAdjust="spacing" textLength="118.0293" x="122.9795" y="65.5889">Automatic String</text><line style="stroke:#000000;stroke-width:1.0;" x1="117.9795" x2="117.9795" y1="50.5938" y2="70.8906"/><line style="stroke:#000000;stroke-width:1.0;" x1="10" x2="246.0088" y1="70.8906" y2="70.8906"/><text fill="#000000" font-family="sans-serif" font-size="14" font-weight="bold" lengthAdjust="spacing" textLength="36.1279" x="15" y="85.8857">path</text><text fill="#000000" font-family="sans-serif" font-size="14" lengthAdjust="spacing" textLength="13.3506" x="122.9795" y="85.8857">   </text><line style="stroke:#000000;stroke-width:1.0;" x1="117.9795" x2="117.9795" y1="70.8906" y2="91.1875"/><line style="stroke:#000000;stroke-width:1.0;" x1="10" x2="246.0088" y1="91.1875" y2="91.1875"/><text fill="#000000" font-family="sans-serif" font-size="14" font-weight="bold" lengthAdjust="spacing" textLength="93.2832" x="15" y="106.1826">populations</text><text fill="#000000" font-family="sans-serif" font-size="14" lengthAdjust="spacing" textLength="13.3506" x="122.9795" y="106.1826">   </text><line style="stroke:#000000;stroke-width:1.0;" x1="117.9795" x2="117.9795" y1="91.1875" y2="111.4844"/><line style="stroke:#000000;stroke-width:1.0;" x1="10" x2="246.0088" y1="111.4844" y2="111.4844"/><text fill="#000000" font-family="sans-serif" font-size="14" font-weight="bold" lengthAdjust="spacing" textLength="64.333" x="15" y="126.4795">settings</text><text fill="#000000" font-family="sans-serif" font-size="14" lengthAdjust="spacing" textLength="13.3506" x="122.9795" y="126.4795">   </text><line style="stroke:#000000;stroke-width:1.0;" x1="117.9795" x2="117.9795" y1="111.4844" y2="131.7813"/><line style="stroke:#000000;stroke-width:1.0;" x1="10" x2="246.0088" y1="131.7813" y2="131.7813"/><text fill="#000000" font-family="sans-serif" font-size="14" font-weight="bold" lengthAdjust="spacing" textLength="97.9795" x="15" y="146.7764">custom data</text><text fill="#000000" font-family="sans-serif" font-size="14" lengthAdjust="spacing" textLength="62.7471" x="122.9795" y="146.7764">Anything</text><line style="stroke:#000000;stroke-width:1.0;" x1="117.9795" x2="117.9795" y1="131.7813" y2="152.0781"/><rect fill="none" height="142.0781" rx="5" ry="5" style="stroke:#000000;stroke-width:1.5;" width="236.0088" x="10" y="10"/><rect fill="#F1F1F1" height="60.8906" rx="5" ry="5" style="stroke:#F1F1F1;stroke-width:1.5;" width="59.0752" x="283" y="11.5391"/><text fill="#000000" font-family="sans-serif" font-size="14" lengthAdjust="spacing" textLength="24.4727" x="288" y="26.5342">List</text><line style="stroke:#000000;stroke-width:1.0;" x1="283" x2="342.0752" y1="31.8359" y2="31.8359"/><text fill="#000000" font-family="sans-serif" font-size="14" lengthAdjust="spacing" textLength="13.4941" x="288" y="46.8311">of</text><line style="stroke:#000000;stroke-width:1.0;" x1="283" x2="342.0752" y1="52.1328" y2="52.1328"/><text fill="#000000" font-family="sans-serif" font-size="14" lengthAdjust="spacing" textLength="49.0752" x="288" y="67.1279">Strings</text><rect fill="none" height="60.8906" rx="5" ry="5" style="stroke:#000000;stroke-width:1.5;" width="59.0752" x="283" y="11.5391"/><rect fill="#F1F1F1" height="20.2969" rx="5" ry="5" style="stroke:#F1F1F1;stroke-width:1.5;" width="23.3506" x="301" y="90.8906"/><text fill="#000000" font-family="sans-serif" font-size="14" lengthAdjust="spacing" textLength="13.3506" x="306" y="105.8857">   </text><rect fill="none" height="20.2969" rx="5" ry="5" style="stroke:#000000;stroke-width:1.5;" width="23.3506" x="301" y="90.8906"/><rect fill="#F1F1F1" height="81.1875" rx="5" ry="5" style="stroke:#F1F1F1;stroke-width:1.5;" width="223.4033" x="379" y="14.4453"/><text fill="#000000" font-family="sans-serif" font-size="14" font-weight="bold" lengthAdjust="spacing" textLength="43.4971" x="384" y="29.4404">name</text><text fill="#000000" font-family="sans-serif" font-size="14" lengthAdjust="spacing" textLength="41.7813" x="491.9795" y="29.4404">String</text><line style="stroke:#000000;stroke-width:1.0;" x1="486.9795" x2="486.9795" y1="14.4453" y2="34.7422"/><line style="stroke:#000000;stroke-width:1.0;" x1="379" x2="602.4033" y1="34.7422" y2="34.7422"/><text fill="#000000" font-family="sans-serif" font-size="14" font-weight="bold" lengthAdjust="spacing" textLength="88.9492" x="384" y="49.7373">description</text><text fill="#000000" font-family="sans-serif" font-size="14" lengthAdjust="spacing" textLength="105.4238" x="491.9795" y="49.7373">Optional String</text><line style="stroke:#000000;stroke-width:1.0;" x1="486.9795" x2="486.9795" y1="34.7422" y2="55.0391"/><line style="stroke:#000000;stroke-width:1.0;" x1="379" x2="602.4033" y1="55.0391" y2="55.0391"/><text fill="#000000" font-family="sans-serif" font-size="14" font-weight="bold" lengthAdjust="spacing" textLength="79.5225" x="384" y="70.0342">interfaces</text><text fill="#000000" font-family="sans-serif" font-size="14" lengthAdjust="spacing" textLength="13.3506" x="491.9795" y="70.0342">   </text><line style="stroke:#000000;stroke-width:1.0;" x1="486.9795" x2="486.9795" y1="55.0391" y2="75.3359"/><line style="stroke:#000000;stroke-width:1.0;" x1="379" x2="602.4033" y1="75.3359" y2="75.3359"/><text fill="#000000" font-family="sans-serif" font-size="14" font-weight="bold" lengthAdjust="spacing" textLength="97.9795" x="384" y="90.3311">custom data</text><text fill="#000000" font-family="sans-serif" font-size="14" lengthAdjust="spacing" textLength="62.7471" x="491.9795" y="90.3311">Anything</text><line style="stroke:#000000;stroke-width:1.0;" x1="486.9795" x2="486.9795" y1="75.3359" y2="95.6328"/><rect fill="none" height="81.1875" rx="5" ry="5" style="stroke:#000000;stroke-width:1.5;" width="223.4033" x="379" y="14.4453"/><rect fill="#F1F1F1" height="20.2969" rx="5" ry="5" style="stroke:#F1F1F1;stroke-width:1.5;" width="23.3506" x="657" y="54.8906"/><text fill="#000000" font-family="sans-serif" font-size="14" lengthAdjust="spacing" textLength="13.3506" x="662" y="69.8857">   </text><rect fill="none" height="20.2969" rx="5" ry="5" style="stroke:#000000;stroke-width:1.5;" width="23.3506" x="657" y="54.8906"/><rect fill="#F1F1F1" height="81.1875" rx="5" ry="5" style="stroke:#F1F1F1;stroke-width:1.5;" width="223.4033" x="735" y="24.4453"/><text fill="#000000" font-family="sans-serif" font-size="14" font-weight="bold" lengthAdjust="spacing" textLength="24.7871" x="740" y="39.4404">gin</text><text fill="#000000" font-family="sans-serif" font-size="14" lengthAdjust="spacing" textLength="56.2393" x="847.9795" y="39.4404">Number</text><line style="stroke:#000000;stroke-width:1.0;" x1="842.9795" x2="842.9795" y1="24.4453" y2="44.7422"/><line style="stroke:#000000;stroke-width:1.0;" x1="735" x2="958.4033" y1="44.7422" y2="44.7422"/><text fill="#000000" font-family="sans-serif" font-size="14" font-weight="bold" lengthAdjust="spacing" textLength="43.4971" x="740" y="59.7373">name</text><text fill="#000000" font-family="sans-serif" font-size="14" lengthAdjust="spacing" textLength="41.7813" x="847.9795" y="59.7373">String</text><line style="stroke:#000000;stroke-width:1.0;" x1="842.9795" x2="842.9795" y1="44.7422" y2="65.0391"/><line style="stroke:#000000;stroke-width:1.0;" x1="735" x2="958.4033" y1="65.0391" y2="65.0391"/><text fill="#000000" font-family="sans-serif" font-size="14" font-weight="bold" lengthAdjust="spacing" textLength="88.9492" x="740" y="80.0342">description</text><text fill="#000000" font-family="sans-serif" font-size="14" lengthAdjust="spacing" textLength="105.4238" x="847.9795" y="80.0342">Optional String</text><line style="stroke:#000000;stroke-width:1.0;" x1="842.9795" x2="842.9795" y1="65.0391" y2="85.3359"/><line style="stroke:#000000;stroke-width:1.0;" x1="735" x2="958.4033" y1="85.3359" y2="85.3359"/><text fill="#000000" font-family="sans-serif" font-size="14" font-weight="bold" lengthAdjust="spacing" textLength="97.9795" x="740" y="100.3311">custom data</text><text fill="#000000" font-family="sans-serif" font-size="14" lengthAdjust="spacing" textLength="62.7471" x="847.9795" y="100.3311">Anything</text><line style="stroke:#000000;stroke-width:1.0;" x1="842.9795" x2="842.9795" y1="85.3359" y2="105.6328"/><rect fill="none" height="81.1875" rx="5" ry="5" style="stroke:#000000;stroke-width:1.5;" width="223.4033" x="735" y="24.4453"/><rect fill="#F1F1F1" height="20.2969" rx="5" ry="5" style="stroke:#F1F1F1;stroke-width:1.5;" width="23.3506" x="301" y="151.8906"/><text fill="#000000" font-family="sans-serif" font-size="14" lengthAdjust="spacing" textLength="13.3506" x="306" y="166.8857">   </text><rect fill="none" height="20.2969" rx="5" ry="5" style="stroke:#000000;stroke-width:1.5;" width="23.3506" x="301" y="151.8906"/><rect fill="#F1F1F1" height="142.0781" rx="5" ry="5" style="stroke:#F1F1F1;stroke-width:1.5;" width="214.373" x="383.5" y="114"/><text fill="#000000" font-family="sans-serif" font-size="14" font-weight="bold" lengthAdjust="spacing" textLength="43.4971" x="388.5" y="128.9951">name</text><text fill="#000000" font-family="sans-serif" font-size="14" lengthAdjust="spacing" textLength="41.7813" x="487.4492" y="128.9951">String</text><line style="stroke:#000000;stroke-width:1.0;" x1="482.4492" x2="482.4492" y1="114" y2="134.2969"/><line style="stroke:#000000;stroke-width:1.0;" x1="383.5" x2="597.873" y1="134.2969" y2="134.2969"/><text fill="#000000" font-family="sans-serif" font-size="14" font-weight="bold" lengthAdjust="spacing" textLength="88.9492" x="388.5" y="149.292">description</text><text fill="#000000" font-family="sans-serif" font-size="14" lengthAdjust="spacing" textLength="105.4238" x="487.4492" y="149.292">Optional String</text><line style="stroke:#000000;stroke-width:1.0;" x1="482.4492" x2="482.4492" y1="134.2969" y2="154.5938"/><line style="stroke:#000000;stroke-width:1.0;" x1="383.5" x2="597.873" y1="154.5938" y2="154.5938"/><text fill="#000000" font-family="sans-serif" font-size="14" font-weight="bold" lengthAdjust="spacing" textLength="35.335" x="388.5" y="169.5889">type</text><text fill="#000000" font-family="sans-serif" font-size="14" lengthAdjust="spacing" textLength="41.7813" x="487.4492" y="169.5889">String</text><line style="stroke:#000000;stroke-width:1.0;" x1="482.4492" x2="482.4492" y1="154.5938" y2="174.8906"/><line style="stroke:#000000;stroke-width:1.0;" x1="383.5" x2="597.873" y1="174.8906" y2="174.8906"/><text fill="#000000" font-family="sans-serif" font-size="14" font-weight="bold" lengthAdjust="spacing" textLength="56.5127" x="388.5" y="189.8857">default</text><text fill="#000000" font-family="sans-serif" font-size="14" lengthAdjust="spacing" textLength="39.5322" x="487.4492" y="189.8857">Value</text><line style="stroke:#000000;stroke-width:1.0;" x1="482.4492" x2="482.4492" y1="174.8906" y2="195.1875"/><line style="stroke:#000000;stroke-width:1.0;" x1="383.5" x2="597.873" y1="195.1875" y2="195.1875"/><text fill="#000000" font-family="sans-serif" font-size="14" font-weight="bold" lengthAdjust="spacing" textLength="73.2949" x="388.5" y="210.1826">minimum</text><text fill="#000000" font-family="sans-serif" font-size="14" lengthAdjust="spacing" textLength="56.2393" x="487.4492" y="210.1826">Number</text><line style="stroke:#000000;stroke-width:1.0;" x1="482.4492" x2="482.4492" y1="195.1875" y2="215.4844"/><line style="stroke:#000000;stroke-width:1.0;" x1="383.5" x2="597.873" y1="215.4844" y2="215.4844"/><text fill="#000000" font-family="sans-serif" font-size="14" font-weight="bold" lengthAdjust="spacing" textLength="77.0068" x="388.5" y="230.4795">maximum</text><text fill="#000000" font-family="sans-serif" font-size="14" lengthAdjust="spacing" textLength="56.2393" x="487.4492" y="230.4795">Number</text><line style="stroke:#000000;stroke-width:1.0;" x1="482.4492" x2="482.4492" y1="215.4844" y2="235.7813"/><line style="stroke:#000000;stroke-width:1.0;" x1="383.5" x2="597.873" y1="235.7813" y2="235.7813"/><text fill="#000000" font-family="sans-serif" font-size="14" font-weight="bold" lengthAdjust="spacing" textLength="51.167" x="388.5" y="250.7764">values</text><text fill="#000000" font-family="sans-serif" font-size="14" lengthAdjust="spacing" textLength="13.3506" x="487.4492" y="250.7764">   </text><line style="stroke:#000000;stroke-width:1.0;" x1="482.4492" x2="482.4492" y1="235.7813" y2="256.0781"/><rect fill="none" height="142.0781" rx="5" ry="5" style="stroke:#000000;stroke-width:1.5;" width="214.373" x="383.5" y="114"/><rect fill="#F1F1F1" height="60.8906" rx="5" ry="5" style="stroke:#F1F1F1;stroke-width:1.5;" width="59.0752" x="639" y="215.5391"/><text fill="#000000" font-family="sans-serif" font-size="14" lengthAdjust="spacing" textLength="24.4727" x="644" y="230.5342">List</text><line style="stroke:#000000;stroke-width:1.0;" x1="639" x2="698.0752" y1="235.8359" y2="235.8359"/><text fill="#000000" font-family="sans-serif" font-size="14" lengthAdjust="spacing" textLength="13.4941" x="644" y="250.8311">of</text><line style="stroke:#000000;stroke-width:1.0;" x1="639" x2="698.0752" y1="256.1328" y2="256.1328"/><text fill="#000000" font-family="sans-serif" font-size="14" lengthAdjust="spacing" textLength="49.0752" x="644" y="271.1279">Strings</text><rect fill="none" height="60.8906" rx="5" ry="5" style="stroke:#000000;stroke-width:1.5;" width="59.0752" x="639" y="215.5391"/><path d="M233.5,81.0391 L246.5,81.0391 C257.1498,81.0391 267.5761,77.1857 276.8672,71.9015 " fill="none" style="stroke:#000000;stroke-width:1.0;stroke-dasharray:3.0,3.0;"/><path d="M278.4936,74.5221 L278.8327,70.6816 L275.2408,69.2808 L283.4189,67.8354 L278.4936,74.5221 " fill="#000000" style="stroke:#000000;stroke-width:1.0;"/><ellipse cx="233.5" cy="81.0391" fill="#000000" rx="3" ry="3" style="stroke:#000000;stroke-width:1.0;"/><path d="M667.6135,65.0391 L680.6135,65.0391 C691.2733,65.0391 708.2815,65.0391 727.42,65.0391 " fill="none" style="stroke:#000000;stroke-width:1.0;stroke-dasharray:3.0,3.0;"/><path d="M727.42,68.1288 L729.7373,65.0391 L727.42,61.9494 L735.1442,65.0391 L727.42,68.1288 " fill="#000000" style="stroke:#000000;stroke-width:1.0;"/><ellipse cx="667.6135" cy="65.0391" fill="#000000" rx="3" ry="3" style="stroke:#000000;stroke-width:1.0;"/><path d="M590,65.0391 L603,65.0391 C618.7369,65.0391 636.6169,65.0391 649.6354,65.0391 " fill="none" style="stroke:#000000;stroke-width:1.0;stroke-dasharray:3.0,3.0;"/><path d="M649.6354,68.1517 L651.9699,65.0391 L649.6354,61.9264 L657.417,65.0391 L649.6354,68.1517 " fill="#000000" style="stroke:#000000;stroke-width:1.0;"/><ellipse cx="590" cy="65.0391" fill="#000000" rx="3" ry="3" style="stroke:#000000;stroke-width:1.0;"/><path d="M312.0314,101.2908 L324.6135,98.0209 C335.3204,95.2383 352.4322,90.7912 371.6742,85.7904 " fill="none" style="stroke:#000000;stroke-width:1.0;stroke-dasharray:3.0,3.0;"/><path d="M372.4507,88.7784 L373.9152,85.208 L370.8976,82.8024 L379.1442,83.849 L372.4507,88.7784 " fill="#000000" style="stroke:#000000;stroke-width:1.0;"/><ellipse cx="312.0314" cy="101.2908" fill="#000000" rx="3" ry="3" style="stroke:#000000;stroke-width:1.0;"/><path d="M233.5,101.0391 L246.5,101.0391 C262.358,101.0391 280.3755,101.0391 293.4941,101.0391 " fill="none" style="stroke:#000000;stroke-width:1.0;stroke-dasharray:3.0,3.0;"/><path d="M293.4941,104.1756 L295.8466,101.0391 L293.4941,97.9025 L301.3356,101.0391 L293.4941,104.1756 " fill="#000000" style="stroke:#000000;stroke-width:1.0;"/><ellipse cx="233.5" cy="101.0391" fill="#000000" rx="3" ry="3" style="stroke:#000000;stroke-width:1.0;"/><path d="M585,246.0391 L598,246.0391 C608.9527,246.0391 620.8694,246.0391 631.7138,246.0391 " fill="none" style="stroke:#000000;stroke-width:1.0;stroke-dasharray:3.0,3.0;"/><path d="M631.7138,249.1102 L634.0171,246.0391 L631.7138,242.9679 L639.3916,246.0391 L631.7138,249.1102 " fill="#000000" style="stroke:#000000;stroke-width:1.0;"/><ellipse cx="585" cy="246.0391" fill="#000000" rx="3" ry="3" style="stroke:#000000;stroke-width:1.0;"/><path d="M311.7218,161.873 L324.6135,163.5482 C336.1715,165.0501 355.1931,167.5218 376.3011,170.2646 " fill="none" style="stroke:#000000;stroke-width:1.0;stroke-dasharray:3.0,3.0;"/><path d="M375.909,173.2824 L378.5644,170.5587 L376.6933,167.2469 L383.8455,171.245 L375.909,173.2824 " fill="#000000" style="stroke:#000000;stroke-width:1.0;"/><ellipse cx="311.7218" cy="161.873" fill="#000000" rx="3" ry="3" style="stroke:#000000;stroke-width:1.0;"/><path d="M233.5,122.0391 L246.5,122.0391 C265.966,122.0391 284.546,135.066 296.9116,146.2515 " fill="none" style="stroke:#000000;stroke-width:1.0;stroke-dasharray:3.0,3.0;"/><path d="M294.8004,148.4707 L298.576,147.8349 L299.0228,144.0324 L302.4595,151.5295 L294.8004,148.4707 " fill="#000000" style="stroke:#000000;stroke-width:1.0;"/><ellipse cx="233.5" cy="122.0391" fill="#000000" rx="3" ry="3" style="stroke:#000000;stroke-width:1.0;"/><!--SRC=[hLF1JXin4BtxAqO-WGIe1LIXdA2bHGf9GKsJIyLXiZi9BklnoXu78fH_nzueMoKb0LNrOMNDU_FcxPlTyo3evNTmh9uLfACPBUaEw85umrDziAoM50flQZ6ECtZJtB22TLQegSZmHHHdKKonWTSezmd_fNicY3u0xIRvkIG5VRUYkJfMc2U4p6wA-Jotj-rEM_HTZbksOI4_mOBM9xu-kUsQcaRxUxHZyXkIxxFvRtRRhYA6b3IKADZapdEvp_I_s8krojt6sxyfisnVxIUGIBEm_xISDxSZytgds0HZ9PammYhI9cuD6nljrarfYq-x2RCi6tPzkLkIsXhiGfqJbyr_fsuhP1dsUp0Z7r8CyF7e-CFnwT7Pc0HFzeRymEwHeN2sDXM164lxQk_gjWV1HLyGbCcJD-EOCznNNPmX_8YSUHsugOcxbzUh0dpbcV6EBR6exgZ_X_3fzF2p4HYGJpPWr5UNorXJH-7APBe3mv_V3izK3taQSPgqYTKNbtJzF6635m00]--></g></svg>