<svg xmlns="http://www.w3.org/2000/svg" xmlns:xlink="http://www.w3.org/1999/xlink" contentStyleType="text/css" data-diagram-type="JSON" height="332px" preserveAspectRatio="none" style="width:739px;height:332px;background:#FFFFFF;" version="1.1" viewBox="0 0 739 332" width="739px" zoomAndPan="magnify"><defs/><g><rect fill="#F1F1F1" height="142.0781" rx="5" ry="5" style="stroke:#F1F1F1;stroke-width:1.5;" width="154.4697" x="10" y="70.5547"/><text fill="#000000" font-family="sans-serif" font-size="14" font-weight="bold" lengthAdjust="spacing" textLength="43.4971" x="15" y="85.5498">name</text><text fill="#000000" font-family="sans-serif" font-size="14" lengthAdjust="spacing" textLength="41.7813" x="117.6885" y="85.5498">String</text><line style="stroke:#000000;stroke-width:1;" x1="112.6885" x2="112.6885" y1="70.5547" y2="90.8516"/><line style="stroke:#000000;stroke-width:1;" x1="10" x2="164.4697" y1="90.8516" y2="90.8516"/><text fill="#000000" font-family="sans-serif" font-size="14" font-weight="bold" lengthAdjust="spacing" textLength="88.9492" x="15" y="105.8467">description</text><text fill="#000000" font-family="sans-serif" font-size="14" lengthAdjust="spacing" textLength="41.7813" x="117.6885" y="105.8467">String</text><line style="stroke:#000000;stroke-width:1;" x1="112.6885" x2="112.6885" y1="90.8516" y2="111.1484"/><line style="stroke:#000000;stroke-width:1;" x1="10" x2="164.4697" y1="111.1484" y2="111.1484"/><text fill="#000000" font-family="sans-serif" font-size="14" font-weight="bold" lengthAdjust="spacing" textLength="36.1484" x="15" y="126.1436">spec</text><text fill="#000000" font-family="sans-serif" font-size="14" lengthAdjust="spacing" textLength="41.7813" x="117.6885" y="126.1436">String</text><line style="stroke:#000000;stroke-width:1;" x1="112.6885" x2="112.6885" y1="111.1484" y2="131.4453"/><line style="stroke:#000000;stroke-width:1;" x1="10" x2="164.4697" y1="131.4453" y2="131.4453"/><text fill="#000000" font-family="sans-serif" font-size="14" font-weight="bold" lengthAdjust="spacing" textLength="36.1279" x="15" y="146.4404">path</text><text fill="#000000" font-family="sans-serif" font-size="14" lengthAdjust="spacing" textLength="41.7813" x="117.6885" y="146.4404">String</text><line style="stroke:#000000;stroke-width:1;" x1="112.6885" x2="112.6885" y1="131.4453" y2="151.7422"/><line style="stroke:#000000;stroke-width:1;" x1="10" x2="164.4697" y1="151.7422" y2="151.7422"/><text fill="#000000" font-family="sans-serif" font-size="14" font-weight="bold" lengthAdjust="spacing" textLength="89.4551" x="15" y="166.7373">body_types</text><text fill="#000000" font-family="sans-serif" font-size="14" lengthAdjust="spacing" textLength="13.3506" x="117.6885" y="166.7373">   </text><line style="stroke:#000000;stroke-width:1;" x1="112.6885" x2="112.6885" y1="151.7422" y2="172.0391"/><line style="stroke:#000000;stroke-width:1;" x1="10" x2="164.4697" y1="172.0391" y2="172.0391"/><text fill="#000000" font-family="sans-serif" font-size="14" font-weight="bold" lengthAdjust="spacing" textLength="64.333" x="15" y="187.0342">settings</text><text fill="#000000" font-family="sans-serif" font-size="14" lengthAdjust="spacing" textLength="13.3506" x="117.6885" y="187.0342">   </text><line style="stroke:#000000;stroke-width:1;" x1="112.6885" x2="112.6885" y1="172.0391" y2="192.3359"/><line style="stroke:#000000;stroke-width:1;" x1="10" x2="164.4697" y1="192.3359" y2="192.3359"/><text fill="#000000" font-family="sans-serif" font-size="14" font-weight="bold" lengthAdjust="spacing" textLength="92.6885" x="15" y="207.3311">Unspecified</text><text fill="#000000" font-family="sans-serif" font-size="14" lengthAdjust="spacing" textLength="26.7354" x="117.6885" y="207.3311">Any</text><line style="stroke:#000000;stroke-width:1;" x1="112.6885" x2="112.6885" y1="192.3359" y2="212.6328"/><rect fill="none" height="142.0781" rx="5" ry="5" style="stroke:#000000;stroke-width:1.5;" width="154.4697" x="10" y="70.5547"/><rect fill="#F1F1F1" height="20.2969" rx="5" ry="5" style="stroke:#F1F1F1;stroke-width:1.5;" width="23.3506" x="201" y="130.4453"/><text fill="#000000" font-family="sans-serif" font-size="14" lengthAdjust="spacing" textLength="13.3506" x="206" y="145.4404">   </text><rect fill="none" height="20.2969" rx="5" ry="5" style="stroke:#000000;stroke-width:1.5;" width="23.3506" x="201" y="130.4453"/><rect fill="#F1F1F1" height="101.4844" rx="5" ry="5" style="stroke:#F1F1F1;stroke-width:1.5;" width="154.4697" x="266.5" y="38.8516"/><text fill="#000000" font-family="sans-serif" font-size="14" font-weight="bold" lengthAdjust="spacing" textLength="43.4971" x="271.5" y="53.8467">name</text><text fill="#000000" font-family="sans-serif" font-size="14" lengthAdjust="spacing" textLength="41.7813" x="374.1885" y="53.8467">String</text><line style="stroke:#000000;stroke-width:1;" x1="369.1885" x2="369.1885" y1="38.8516" y2="59.1484"/><line style="stroke:#000000;stroke-width:1;" x1="266.5" x2="420.9697" y1="59.1484" y2="59.1484"/><text fill="#000000" font-family="sans-serif" font-size="14" font-weight="bold" lengthAdjust="spacing" textLength="88.9492" x="271.5" y="74.1436">description</text><text fill="#000000" font-family="sans-serif" font-size="14" lengthAdjust="spacing" textLength="41.7813" x="374.1885" y="74.1436">String</text><line style="stroke:#000000;stroke-width:1;" x1="369.1885" x2="369.1885" y1="59.1484" y2="79.4453"/><line style="stroke:#000000;stroke-width:1;" x1="266.5" x2="420.9697" y1="79.4453" y2="79.4453"/><text fill="#000000" font-family="sans-serif" font-size="14" font-weight="bold" lengthAdjust="spacing" textLength="60.9834" x="271.5" y="94.4404">sensors</text><text fill="#000000" font-family="sans-serif" font-size="14" lengthAdjust="spacing" textLength="13.3506" x="374.1885" y="94.4404">   </text><line style="stroke:#000000;stroke-width:1;" x1="369.1885" x2="369.1885" y1="79.4453" y2="99.7422"/><line style="stroke:#000000;stroke-width:1;" x1="266.5" x2="420.9697" y1="99.7422" y2="99.7422"/><text fill="#000000" font-family="sans-serif" font-size="14" font-weight="bold" lengthAdjust="spacing" textLength="55.7539" x="271.5" y="114.7373">motors</text><text fill="#000000" font-family="sans-serif" font-size="14" lengthAdjust="spacing" textLength="13.3506" x="374.1885" y="114.7373">   </text><line style="stroke:#000000;stroke-width:1;" x1="369.1885" x2="369.1885" y1="99.7422" y2="120.0391"/><line style="stroke:#000000;stroke-width:1;" x1="266.5" x2="420.9697" y1="120.0391" y2="120.0391"/><text fill="#000000" font-family="sans-serif" font-size="14" font-weight="bold" lengthAdjust="spacing" textLength="92.6885" x="271.5" y="135.0342">Unspecified</text><text fill="#000000" font-family="sans-serif" font-size="14" lengthAdjust="spacing" textLength="26.7354" x="374.1885" y="135.0342">Any</text><line style="stroke:#000000;stroke-width:1;" x1="369.1885" x2="369.1885" y1="120.0391" y2="140.3359"/><rect fill="none" height="101.4844" rx="5" ry="5" style="stroke:#000000;stroke-width:1.5;" width="154.4697" x="266.5" y="38.8516"/><rect fill="#F1F1F1" height="20.2969" rx="5" ry="5" style="stroke:#F1F1F1;stroke-width:1.5;" width="23.3506" x="481" y="55.4453"/><text fill="#000000" font-family="sans-serif" font-size="14" lengthAdjust="spacing" textLength="13.3506" x="486" y="70.4404">   </text><rect fill="none" height="20.2969" rx="5" ry="5" style="stroke:#000000;stroke-width:1.5;" width="23.3506" x="481" y="55.4453"/><rect fill="#F1F1F1" height="81.1875" rx="5" ry="5" style="stroke:#F1F1F1;stroke-width:1.5;" width="168.9277" x="559" y="10"/><text fill="#000000" font-family="sans-serif" font-size="14" font-weight="bold" lengthAdjust="spacing" textLength="43.4971" x="564" y="24.9951">name</text><text fill="#000000" font-family="sans-serif" font-size="14" lengthAdjust="spacing" textLength="41.7813" x="666.6885" y="24.9951">String</text><line style="stroke:#000000;stroke-width:1;" x1="661.6885" x2="661.6885" y1="10" y2="30.2969"/><line style="stroke:#000000;stroke-width:1;" x1="559" x2="727.9277" y1="30.2969" y2="30.2969"/><text fill="#000000" font-family="sans-serif" font-size="14" font-weight="bold" lengthAdjust="spacing" textLength="14.8203" x="564" y="45.292">id</text><text fill="#000000" font-family="sans-serif" font-size="14" lengthAdjust="spacing" textLength="56.2393" x="666.6885" y="45.292">Number</text><line style="stroke:#000000;stroke-width:1;" x1="661.6885" x2="661.6885" y1="30.2969" y2="50.5938"/><line style="stroke:#000000;stroke-width:1;" x1="559" x2="727.9277" y1="50.5938" y2="50.5938"/><text fill="#000000" font-family="sans-serif" font-size="14" font-weight="bold" lengthAdjust="spacing" textLength="88.9492" x="564" y="65.5889">description</text><text fill="#000000" font-family="sans-serif" font-size="14" lengthAdjust="spacing" textLength="41.7813" x="666.6885" y="65.5889">String</text><line style="stroke:#000000;stroke-width:1;" x1="661.6885" x2="661.6885" y1="50.5938" y2="70.8906"/><line style="stroke:#000000;stroke-width:1;" x1="559" x2="727.9277" y1="70.8906" y2="70.8906"/><text fill="#000000" font-family="sans-serif" font-size="14" font-weight="bold" lengthAdjust="spacing" textLength="92.6885" x="564" y="85.8857">Unspecified</text><text fill="#000000" font-family="sans-serif" font-size="14" lengthAdjust="spacing" textLength="26.7354" x="666.6885" y="85.8857">Any</text><line style="stroke:#000000;stroke-width:1;" x1="661.6885" x2="661.6885" y1="70.8906" y2="91.1875"/><rect fill="none" height="81.1875" rx="5" ry="5" style="stroke:#000000;stroke-width:1.5;" width="168.9277" x="559" y="10"/><rect fill="#F1F1F1" height="20.2969" rx="5" ry="5" style="stroke:#F1F1F1;stroke-width:1.5;" width="23.3506" x="481" y="123.4453"/><text fill="#000000" font-family="sans-serif" font-size="14" lengthAdjust="spacing" textLength="13.3506" x="486" y="138.4404">   </text><rect fill="none" height="20.2969" rx="5" ry="5" style="stroke:#000000;stroke-width:1.5;" width="23.3506" x="481" y="123.4453"/><rect fill="#F1F1F1" height="81.1875" rx="5" ry="5" style="stroke:#F1F1F1;stroke-width:1.5;" width="168.9277" x="559" y="109"/><text fill="#000000" font-family="sans-serif" font-size="14" font-weight="bold" lengthAdjust="spacing" textLength="43.4971" x="564" y="123.9951">name</text><text fill="#000000" font-family="sans-serif" font-size="14" lengthAdjust="spacing" textLength="41.7813" x="666.6885" y="123.9951">String</text><line style="stroke:#000000;stroke-width:1;" x1="661.6885" x2="661.6885" y1="109" y2="129.2969"/><line style="stroke:#000000;stroke-width:1;" x1="559" x2="727.9277" y1="129.2969" y2="129.2969"/><text fill="#000000" font-family="sans-serif" font-size="14" font-weight="bold" lengthAdjust="spacing" textLength="14.8203" x="564" y="144.292">id</text><text fill="#000000" font-family="sans-serif" font-size="14" lengthAdjust="spacing" textLength="56.2393" x="666.6885" y="144.292">Number</text><line style="stroke:#000000;stroke-width:1;" x1="661.6885" x2="661.6885" y1="129.2969" y2="149.5938"/><line style="stroke:#000000;stroke-width:1;" x1="559" x2="727.9277" y1="149.5938" y2="149.5938"/><text fill="#000000" font-family="sans-serif" font-size="14" font-weight="bold" lengthAdjust="spacing" textLength="88.9492" x="564" y="164.5889">description</text><text fill="#000000" font-family="sans-serif" font-size="14" lengthAdjust="spacing" textLength="41.7813" x="666.6885" y="164.5889">String</text><line style="stroke:#000000;stroke-width:1;" x1="661.6885" x2="661.6885" y1="149.5938" y2="169.8906"/><line style="stroke:#000000;stroke-width:1;" x1="559" x2="727.9277" y1="169.8906" y2="169.8906"/><text fill="#000000" font-family="sans-serif" font-size="14" font-weight="bold" lengthAdjust="spacing" textLength="92.6885" x="564" y="184.8857">Unspecified</text><text fill="#000000" font-family="sans-serif" font-size="14" lengthAdjust="spacing" textLength="26.7354" x="666.6885" y="184.8857">Any</text><line style="stroke:#000000;stroke-width:1;" x1="661.6885" x2="661.6885" y1="169.8906" y2="190.1875"/><rect fill="none" height="81.1875" rx="5" ry="5" style="stroke:#000000;stroke-width:1.5;" width="168.9277" x="559" y="109"/><rect fill="#F1F1F1" height="20.2969" rx="5" ry="5" style="stroke:#F1F1F1;stroke-width:1.5;" width="23.3506" x="201" y="193.4453"/><text fill="#000000" font-family="sans-serif" font-size="14" lengthAdjust="spacing" textLength="13.3506" x="206" y="208.4404">   </text><rect fill="none" height="20.2969" rx="5" ry="5" style="stroke:#000000;stroke-width:1.5;" width="23.3506" x="201" y="193.4453"/><rect fill="#F1F1F1" height="142.0781" rx="5" ry="5" style="stroke:#F1F1F1;stroke-width:1.5;" width="165.1885" x="261" y="158.5547"/><text fill="#000000" font-family="sans-serif" font-size="14" font-weight="bold" lengthAdjust="spacing" textLength="43.4971" x="266" y="173.5498">name</text><text fill="#000000" font-family="sans-serif" font-size="14" lengthAdjust="spacing" textLength="41.7813" x="364.9492" y="173.5498">String</text><line style="stroke:#000000;stroke-width:1;" x1="359.9492" x2="359.9492" y1="158.5547" y2="178.8516"/><line style="stroke:#000000;stroke-width:1;" x1="261" x2="426.1885" y1="178.8516" y2="178.8516"/><text fill="#000000" font-family="sans-serif" font-size="14" font-weight="bold" lengthAdjust="spacing" textLength="88.9492" x="266" y="193.8467">description</text><text fill="#000000" font-family="sans-serif" font-size="14" lengthAdjust="spacing" textLength="41.7813" x="364.9492" y="193.8467">String</text><line style="stroke:#000000;stroke-width:1;" x1="359.9492" x2="359.9492" y1="178.8516" y2="199.1484"/><line style="stroke:#000000;stroke-width:1;" x1="261" x2="426.1885" y1="199.1484" y2="199.1484"/><text fill="#000000" font-family="sans-serif" font-size="14" font-weight="bold" lengthAdjust="spacing" textLength="35.335" x="266" y="214.1436">type</text><text fill="#000000" font-family="sans-serif" font-size="14" lengthAdjust="spacing" textLength="41.7813" x="364.9492" y="214.1436">String</text><line style="stroke:#000000;stroke-width:1;" x1="359.9492" x2="359.9492" y1="199.1484" y2="219.4453"/><line style="stroke:#000000;stroke-width:1;" x1="261" x2="426.1885" y1="219.4453" y2="219.4453"/><text fill="#000000" font-family="sans-serif" font-size="14" font-weight="bold" lengthAdjust="spacing" textLength="56.5127" x="266" y="234.4404">default</text><text fill="#000000" font-family="sans-serif" font-size="14" lengthAdjust="spacing" textLength="39.5322" x="364.9492" y="234.4404">Value</text><line style="stroke:#000000;stroke-width:1;" x1="359.9492" x2="359.9492" y1="219.4453" y2="239.7422"/><line style="stroke:#000000;stroke-width:1;" x1="261" x2="426.1885" y1="239.7422" y2="239.7422"/><text fill="#000000" font-family="sans-serif" font-size="14" font-weight="bold" lengthAdjust="spacing" textLength="73.2949" x="266" y="254.7373">minimum</text><text fill="#000000" font-family="sans-serif" font-size="14" lengthAdjust="spacing" textLength="56.2393" x="364.9492" y="254.7373">Number</text><line style="stroke:#000000;stroke-width:1;" x1="359.9492" x2="359.9492" y1="239.7422" y2="260.0391"/><line style="stroke:#000000;stroke-width:1;" x1="261" x2="426.1885" y1="260.0391" y2="260.0391"/><text fill="#000000" font-family="sans-serif" font-size="14" font-weight="bold" lengthAdjust="spacing" textLength="77.0068" x="266" y="275.0342">maximum</text><text fill="#000000" font-family="sans-serif" font-size="14" lengthAdjust="spacing" textLength="56.2393" x="364.9492" y="275.0342">Number</text><line style="stroke:#000000;stroke-width:1;" x1="359.9492" x2="359.9492" y1="260.0391" y2="280.3359"/><line style="stroke:#000000;stroke-width:1;" x1="261" x2="426.1885" y1="280.3359" y2="280.3359"/><text fill="#000000" font-family="sans-serif" font-size="14" font-weight="bold" lengthAdjust="spacing" textLength="51.167" x="266" y="295.3311">values</text><text fill="#000000" font-family="sans-serif" font-size="14" lengthAdjust="spacing" textLength="13.3506" x="364.9492" y="295.3311">   </text><line style="stroke:#000000;stroke-width:1;" x1="359.9492" x2="359.9492" y1="280.3359" y2="300.6328"/><rect fill="none" height="142.0781" rx="5" ry="5" style="stroke:#000000;stroke-width:1.5;" width="165.1885" x="261" y="158.5547"/><rect fill="#F1F1F1" height="60.8906" rx="5" ry="5" style="stroke:#F1F1F1;stroke-width:1.5;" width="59.0752" x="463" y="260.0938"/><text fill="#000000" font-family="sans-serif" font-size="14" lengthAdjust="spacing" textLength="24.4727" x="468" y="275.0889">List</text><line style="stroke:#000000;stroke-width:1;" x1="463" x2="522.0752" y1="280.3906" y2="280.3906"/><text fill="#000000" font-family="sans-serif" font-size="14" lengthAdjust="spacing" textLength="13.4941" x="468" y="295.3857">of</text><line style="stroke:#000000;stroke-width:1;" x1="463" x2="522.0752" y1="300.6875" y2="300.6875"/><text fill="#000000" font-family="sans-serif" font-size="14" lengthAdjust="spacing" textLength="49.0752" x="468" y="315.6826">Strings</text><rect fill="none" height="60.8906" rx="5" ry="5" style="stroke:#000000;stroke-width:1.5;" width="59.0752" x="463" y="260.0938"/><path d="M491.8348,65.7103 L504.7702,64.4167 C515.6841,63.3253 533.0286,61.5909 551.7946,59.7143" fill="none" style="stroke:#000000;stroke-width:1;stroke-dasharray:3,3;"/><path d="M552.096,62.7289 L554.0556,59.4882 L551.4931,56.6996 L559.3312,58.9606 L552.096,62.7289" fill="#000000"/><ellipse cx="491.8348" cy="65.7103" fill="#000000" rx="3" ry="3" style="stroke:#000000;stroke-width:1;"/><path d="M408,89.5938 L421,89.5938 C440.0579,89.5938 460.5498,81.7374 474.5962,75.0146" fill="none" style="stroke:#000000;stroke-width:1;stroke-dasharray:3,3;"/><path d="M475.9421,77.7011 L476.6111,74.0052 L473.2504,72.3282 L481.3124,71.65 L475.9421,77.7011" fill="#000000"/><ellipse cx="408" cy="89.5938" fill="#000000" rx="3" ry="3" style="stroke:#000000;stroke-width:1;"/><path d="M491.8436,133.4704 L504.7702,134.8492 C515.6841,136.0134 533.0286,137.8635 551.7946,139.8652" fill="none" style="stroke:#000000;stroke-width:1;stroke-dasharray:3,3;"/><path d="M551.473,142.8798 L554.0556,140.1063 L552.1161,136.8505 L559.3312,140.6691 L551.473,142.8798" fill="#000000"/><ellipse cx="491.8436" cy="133.4704" fill="#000000" rx="3" ry="3" style="stroke:#000000;stroke-width:1;"/><path d="M408,109.5938 L421,109.5938 C440.0579,109.5938 460.5498,117.4501 474.5962,124.1729" fill="none" style="stroke:#000000;stroke-width:1;stroke-dasharray:3,3;"/><path d="M473.2504,126.8593 L476.6111,125.1823 L475.9421,121.4864 L481.3124,127.5375 L473.2504,126.8593" fill="#000000"/><ellipse cx="408" cy="109.5938" fill="#000000" rx="3" ry="3" style="stroke:#000000;stroke-width:1;"/><path d="M212.4346,140.8156 L224.5366,136.0678 C233.1091,132.7048 245.6622,127.7801 259.4285,122.3795" fill="none" style="stroke:#000000;stroke-width:1;stroke-dasharray:3,3;"/><path d="M260.5733,125.2974 L261.617,121.5209 L258.2838,119.4615 L266.7234,119.5177 L260.5733,125.2974" fill="#000000"/><ellipse cx="212.4346" cy="140.8156" fill="#000000" rx="3" ry="3" style="stroke:#000000;stroke-width:1;"/><path d="M151.5,161.5938 L164.5,161.5938 C175.1719,161.5938 186.1292,157.1048 194.8269,152.2778" fill="none" style="stroke:#000000;stroke-width:1;stroke-dasharray:3,3;"/><path d="M196.3726,154.8547 L196.7595,151.1184 L193.2811,149.7009 L201.2691,148.4134 L196.3726,154.8547" fill="#000000"/><ellipse cx="151.5" cy="161.5938" fill="#000000" rx="3" ry="3" style="stroke:#000000;stroke-width:1;"/><path d="M414,290.5938 L427,290.5938 C436.257,290.5938 446.2556,290.5938 455.57,290.5938" fill="none" style="stroke:#000000;stroke-width:1;stroke-dasharray:3,3;"/><path d="M455.57,293.6465 L457.8595,290.5938 L455.57,287.541 L463.2018,290.5938 L455.57,293.6465" fill="#000000"/><ellipse cx="414" cy="290.5938" fill="#000000" rx="3" ry="3" style="stroke:#000000;stroke-width:1;"/><path d="M211.7891,203.3516 L224.5366,205.9011 C231.877,207.3691 242.1359,209.4209 253.576,211.709" fill="none" style="stroke:#000000;stroke-width:1;stroke-dasharray:3,3;"/><path d="M252.9624,214.7768 L255.8769,212.1691 L254.1896,208.6411 L261.2455,213.2429 L252.9624,214.7768" fill="#000000"/><ellipse cx="211.7891" cy="203.3516" fill="#000000" rx="3" ry="3" style="stroke:#000000;stroke-width:1;"/><path d="M151.5,182.5938 L164.5,182.5938 C175.1719,182.5938 186.1292,187.0827 194.8269,191.9097" fill="none" style="stroke:#000000;stroke-width:1;stroke-dasharray:3,3;"/><path d="M193.2811,194.4866 L196.7595,193.0691 L196.3726,189.3328 L201.2691,195.7741 L193.2811,194.4866" fill="#000000"/><ellipse cx="151.5" cy="182.5938" fill="#000000" rx="3" ry="3" style="stroke:#000000;stroke-width:1;"/><!--SRC=[vLJ1JW8n4BttAvgU804YH8pXX8gQ82WHbuiXfhixO9LEDsqN9OH_juMm1fOb7BpPGxDvy_hcpSjasyPoRJ-CGh8ar1s6N09hKJQqMk2KLJPe32RI8h52ORve4eZoQCBjUnuDLRnuiui4ZAkzhZ5_bjbNiOciUinCHZA0HkdTBeUxdTOrOudOSnvJ6O8kufpYC2C7w0CK4m5hvIjSi1nnjOECzsQLolwNKOyfR5wEjri9rZehVxPdHIo_pCSq9ZoTMKyOyLaA-tKfKCXK5kRC9Fy-JfXxsVMKh2UCPHNArCJV6qE6ZGi2EXJbYhG1u_N_W0nc76tGxz4vQECoeFLQuwpHhDNh8LZUB0NuYUeBQQHa8cP0hP1G9gNxGOyQbUe8QEpyQ16cFi4owV8vfyyfUbwBFYM0tSx35g2tE1TQeGIqf3lg_n8kpglNmj8XQEU3ZlgaiudKlOXKx2PiqU3bhdf9UXodAPywRK1oevokNhZQy0S0]--></g></svg>