<svg xmlns="http://www.w3.org/2000/svg" xmlns:xlink="http://www.w3.org/1999/xlink" contentStyleType="text/css" data-diagram-type="JSON" height="283px" preserveAspectRatio="none" style="width:740px;height:283px;background:#FFFFFF;" version="1.1" viewBox="0 0 740 283" width="740px" zoomAndPan="magnify"><defs/><g><rect fill="#F1F1F1" height="142.0781" rx="5" ry="5" style="stroke:#F1F1F1;stroke-width:1.5;" width="155.0645" x="10" y="25.5547"/><text fill="#000000" font-family="sans-serif" font-size="14" font-weight="bold" lengthAdjust="spacing" textLength="43.4971" x="15" y="40.5498">name</text><text fill="#000000" font-family="sans-serif" font-size="14" lengthAdjust="spacing" textLength="41.7813" x="118.2832" y="40.5498">String</text><line style="stroke:#000000;stroke-width:1;" x1="113.2832" x2="113.2832" y1="25.5547" y2="45.8516"/><line style="stroke:#000000;stroke-width:1;" x1="10" x2="165.0645" y1="45.8516" y2="45.8516"/><text fill="#000000" font-family="sans-serif" font-size="14" font-weight="bold" lengthAdjust="spacing" textLength="88.9492" x="15" y="60.8467">description</text><text fill="#000000" font-family="sans-serif" font-size="14" lengthAdjust="spacing" textLength="41.7813" x="118.2832" y="60.8467">String</text><line style="stroke:#000000;stroke-width:1;" x1="113.2832" x2="113.2832" y1="45.8516" y2="66.1484"/><line style="stroke:#000000;stroke-width:1;" x1="10" x2="165.0645" y1="66.1484" y2="66.1484"/><text fill="#000000" font-family="sans-serif" font-size="14" font-weight="bold" lengthAdjust="spacing" textLength="36.1484" x="15" y="81.1436">spec</text><text fill="#000000" font-family="sans-serif" font-size="14" lengthAdjust="spacing" textLength="41.7813" x="118.2832" y="81.1436">String</text><line style="stroke:#000000;stroke-width:1;" x1="113.2832" x2="113.2832" y1="66.1484" y2="86.4453"/><line style="stroke:#000000;stroke-width:1;" x1="10" x2="165.0645" y1="86.4453" y2="86.4453"/><text fill="#000000" font-family="sans-serif" font-size="14" font-weight="bold" lengthAdjust="spacing" textLength="36.1279" x="15" y="101.4404">path</text><text fill="#000000" font-family="sans-serif" font-size="14" lengthAdjust="spacing" textLength="41.7813" x="118.2832" y="101.4404">String</text><line style="stroke:#000000;stroke-width:1;" x1="113.2832" x2="113.2832" y1="86.4453" y2="106.7422"/><line style="stroke:#000000;stroke-width:1;" x1="10" x2="165.0645" y1="106.7422" y2="106.7422"/><text fill="#000000" font-family="sans-serif" font-size="14" font-weight="bold" lengthAdjust="spacing" textLength="93.2832" x="15" y="121.7373">populations</text><text fill="#000000" font-family="sans-serif" font-size="14" lengthAdjust="spacing" textLength="13.3506" x="118.2832" y="121.7373">   </text><line style="stroke:#000000;stroke-width:1;" x1="113.2832" x2="113.2832" y1="106.7422" y2="127.0391"/><line style="stroke:#000000;stroke-width:1;" x1="10" x2="165.0645" y1="127.0391" y2="127.0391"/><text fill="#000000" font-family="sans-serif" font-size="14" font-weight="bold" lengthAdjust="spacing" textLength="64.333" x="15" y="142.0342">settings</text><text fill="#000000" font-family="sans-serif" font-size="14" lengthAdjust="spacing" textLength="13.3506" x="118.2832" y="142.0342">   </text><line style="stroke:#000000;stroke-width:1;" x1="113.2832" x2="113.2832" y1="127.0391" y2="147.3359"/><line style="stroke:#000000;stroke-width:1;" x1="10" x2="165.0645" y1="147.3359" y2="147.3359"/><text fill="#000000" font-family="sans-serif" font-size="14" font-weight="bold" lengthAdjust="spacing" textLength="92.6885" x="15" y="162.3311">Unspecified</text><text fill="#000000" font-family="sans-serif" font-size="14" lengthAdjust="spacing" textLength="26.7354" x="118.2832" y="162.3311">Any</text><line style="stroke:#000000;stroke-width:1;" x1="113.2832" x2="113.2832" y1="147.3359" y2="167.6328"/><rect fill="none" height="142.0781" rx="5" ry="5" style="stroke:#000000;stroke-width:1.5;" width="155.0645" x="10" y="25.5547"/><rect fill="#F1F1F1" height="20.2969" rx="5" ry="5" style="stroke:#F1F1F1;stroke-width:1.5;" width="23.3506" x="202" y="86.4453"/><text fill="#000000" font-family="sans-serif" font-size="14" lengthAdjust="spacing" textLength="13.3506" x="207" y="101.4404">   </text><rect fill="none" height="20.2969" rx="5" ry="5" style="stroke:#000000;stroke-width:1.5;" width="23.3506" x="202" y="86.4453"/><rect fill="#F1F1F1" height="81.1875" rx="5" ry="5" style="stroke:#F1F1F1;stroke-width:1.5;" width="154.4697" x="267.5" y="10"/><text fill="#000000" font-family="sans-serif" font-size="14" font-weight="bold" lengthAdjust="spacing" textLength="43.4971" x="272.5" y="24.9951">name</text><text fill="#000000" font-family="sans-serif" font-size="14" lengthAdjust="spacing" textLength="41.7813" x="375.1885" y="24.9951">String</text><line style="stroke:#000000;stroke-width:1;" x1="370.1885" x2="370.1885" y1="10" y2="30.2969"/><line style="stroke:#000000;stroke-width:1;" x1="267.5" x2="421.9697" y1="30.2969" y2="30.2969"/><text fill="#000000" font-family="sans-serif" font-size="14" font-weight="bold" lengthAdjust="spacing" textLength="88.9492" x="272.5" y="45.292">description</text><text fill="#000000" font-family="sans-serif" font-size="14" lengthAdjust="spacing" textLength="41.7813" x="375.1885" y="45.292">String</text><line style="stroke:#000000;stroke-width:1;" x1="370.1885" x2="370.1885" y1="30.2969" y2="50.5938"/><line style="stroke:#000000;stroke-width:1;" x1="267.5" x2="421.9697" y1="50.5938" y2="50.5938"/><text fill="#000000" font-family="sans-serif" font-size="14" font-weight="bold" lengthAdjust="spacing" textLength="79.5225" x="272.5" y="65.5889">interfaces</text><text fill="#000000" font-family="sans-serif" font-size="14" lengthAdjust="spacing" textLength="13.3506" x="375.1885" y="65.5889">   </text><line style="stroke:#000000;stroke-width:1;" x1="370.1885" x2="370.1885" y1="50.5938" y2="70.8906"/><line style="stroke:#000000;stroke-width:1;" x1="267.5" x2="421.9697" y1="70.8906" y2="70.8906"/><text fill="#000000" font-family="sans-serif" font-size="14" font-weight="bold" lengthAdjust="spacing" textLength="92.6885" x="272.5" y="85.8857">Unspecified</text><text fill="#000000" font-family="sans-serif" font-size="14" lengthAdjust="spacing" textLength="26.7354" x="375.1885" y="85.8857">Any</text><line style="stroke:#000000;stroke-width:1;" x1="370.1885" x2="370.1885" y1="70.8906" y2="91.1875"/><rect fill="none" height="81.1875" rx="5" ry="5" style="stroke:#000000;stroke-width:1.5;" width="154.4697" x="267.5" y="10"/><rect fill="#F1F1F1" height="20.2969" rx="5" ry="5" style="stroke:#F1F1F1;stroke-width:1.5;" width="23.3506" x="482" y="50.4453"/><text fill="#000000" font-family="sans-serif" font-size="14" lengthAdjust="spacing" textLength="13.3506" x="487" y="65.4404">   </text><rect fill="none" height="20.2969" rx="5" ry="5" style="stroke:#000000;stroke-width:1.5;" width="23.3506" x="482" y="50.4453"/><rect fill="#F1F1F1" height="81.1875" rx="5" ry="5" style="stroke:#F1F1F1;stroke-width:1.5;" width="168.9277" x="560" y="20"/><text fill="#000000" font-family="sans-serif" font-size="14" font-weight="bold" lengthAdjust="spacing" textLength="24.7871" x="565" y="34.9951">gin</text><text fill="#000000" font-family="sans-serif" font-size="14" lengthAdjust="spacing" textLength="56.2393" x="667.6885" y="34.9951">Number</text><line style="stroke:#000000;stroke-width:1;" x1="662.6885" x2="662.6885" y1="20" y2="40.2969"/><line style="stroke:#000000;stroke-width:1;" x1="560" x2="728.9277" y1="40.2969" y2="40.2969"/><text fill="#000000" font-family="sans-serif" font-size="14" font-weight="bold" lengthAdjust="spacing" textLength="43.4971" x="565" y="55.292">name</text><text fill="#000000" font-family="sans-serif" font-size="14" lengthAdjust="spacing" textLength="41.7813" x="667.6885" y="55.292">String</text><line style="stroke:#000000;stroke-width:1;" x1="662.6885" x2="662.6885" y1="40.2969" y2="60.5938"/><line style="stroke:#000000;stroke-width:1;" x1="560" x2="728.9277" y1="60.5938" y2="60.5938"/><text fill="#000000" font-family="sans-serif" font-size="14" font-weight="bold" lengthAdjust="spacing" textLength="88.9492" x="565" y="75.5889">description</text><text fill="#000000" font-family="sans-serif" font-size="14" lengthAdjust="spacing" textLength="41.7813" x="667.6885" y="75.5889">String</text><line style="stroke:#000000;stroke-width:1;" x1="662.6885" x2="662.6885" y1="60.5938" y2="80.8906"/><line style="stroke:#000000;stroke-width:1;" x1="560" x2="728.9277" y1="80.8906" y2="80.8906"/><text fill="#000000" font-family="sans-serif" font-size="14" font-weight="bold" lengthAdjust="spacing" textLength="92.6885" x="565" y="95.8857">Unspecified</text><text fill="#000000" font-family="sans-serif" font-size="14" lengthAdjust="spacing" textLength="26.7354" x="667.6885" y="95.8857">Any</text><line style="stroke:#000000;stroke-width:1;" x1="662.6885" x2="662.6885" y1="80.8906" y2="101.1875"/><rect fill="none" height="81.1875" rx="5" ry="5" style="stroke:#000000;stroke-width:1.5;" width="168.9277" x="560" y="20"/><rect fill="#F1F1F1" height="20.2969" rx="5" ry="5" style="stroke:#F1F1F1;stroke-width:1.5;" width="23.3506" x="202" y="147.4453"/><text fill="#000000" font-family="sans-serif" font-size="14" lengthAdjust="spacing" textLength="13.3506" x="207" y="162.4404">   </text><rect fill="none" height="20.2969" rx="5" ry="5" style="stroke:#000000;stroke-width:1.5;" width="23.3506" x="202" y="147.4453"/><rect fill="#F1F1F1" height="142.0781" rx="5" ry="5" style="stroke:#F1F1F1;stroke-width:1.5;" width="165.1885" x="262" y="109.5547"/><text fill="#000000" font-family="sans-serif" font-size="14" font-weight="bold" lengthAdjust="spacing" textLength="43.4971" x="267" y="124.5498">name</text><text fill="#000000" font-family="sans-serif" font-size="14" lengthAdjust="spacing" textLength="41.7813" x="365.9492" y="124.5498">String</text><line style="stroke:#000000;stroke-width:1;" x1="360.9492" x2="360.9492" y1="109.5547" y2="129.8516"/><line style="stroke:#000000;stroke-width:1;" x1="262" x2="427.1885" y1="129.8516" y2="129.8516"/><text fill="#000000" font-family="sans-serif" font-size="14" font-weight="bold" lengthAdjust="spacing" textLength="88.9492" x="267" y="144.8467">description</text><text fill="#000000" font-family="sans-serif" font-size="14" lengthAdjust="spacing" textLength="41.7813" x="365.9492" y="144.8467">String</text><line style="stroke:#000000;stroke-width:1;" x1="360.9492" x2="360.9492" y1="129.8516" y2="150.1484"/><line style="stroke:#000000;stroke-width:1;" x1="262" x2="427.1885" y1="150.1484" y2="150.1484"/><text fill="#000000" font-family="sans-serif" font-size="14" font-weight="bold" lengthAdjust="spacing" textLength="35.335" x="267" y="165.1436">type</text><text fill="#000000" font-family="sans-serif" font-size="14" lengthAdjust="spacing" textLength="41.7813" x="365.9492" y="165.1436">String</text><line style="stroke:#000000;stroke-width:1;" x1="360.9492" x2="360.9492" y1="150.1484" y2="170.4453"/><line style="stroke:#000000;stroke-width:1;" x1="262" x2="427.1885" y1="170.4453" y2="170.4453"/><text fill="#000000" font-family="sans-serif" font-size="14" font-weight="bold" lengthAdjust="spacing" textLength="56.5127" x="267" y="185.4404">default</text><text fill="#000000" font-family="sans-serif" font-size="14" lengthAdjust="spacing" textLength="39.5322" x="365.9492" y="185.4404">Value</text><line style="stroke:#000000;stroke-width:1;" x1="360.9492" x2="360.9492" y1="170.4453" y2="190.7422"/><line style="stroke:#000000;stroke-width:1;" x1="262" x2="427.1885" y1="190.7422" y2="190.7422"/><text fill="#000000" font-family="sans-serif" font-size="14" font-weight="bold" lengthAdjust="spacing" textLength="73.2949" x="267" y="205.7373">minimum</text><text fill="#000000" font-family="sans-serif" font-size="14" lengthAdjust="spacing" textLength="56.2393" x="365.9492" y="205.7373">Number</text><line style="stroke:#000000;stroke-width:1;" x1="360.9492" x2="360.9492" y1="190.7422" y2="211.0391"/><line style="stroke:#000000;stroke-width:1;" x1="262" x2="427.1885" y1="211.0391" y2="211.0391"/><text fill="#000000" font-family="sans-serif" font-size="14" font-weight="bold" lengthAdjust="spacing" textLength="77.0068" x="267" y="226.0342">maximum</text><text fill="#000000" font-family="sans-serif" font-size="14" lengthAdjust="spacing" textLength="56.2393" x="365.9492" y="226.0342">Number</text><line style="stroke:#000000;stroke-width:1;" x1="360.9492" x2="360.9492" y1="211.0391" y2="231.3359"/><line style="stroke:#000000;stroke-width:1;" x1="262" x2="427.1885" y1="231.3359" y2="231.3359"/><text fill="#000000" font-family="sans-serif" font-size="14" font-weight="bold" lengthAdjust="spacing" textLength="51.167" x="267" y="246.3311">values</text><text fill="#000000" font-family="sans-serif" font-size="14" lengthAdjust="spacing" textLength="13.3506" x="365.9492" y="246.3311">   </text><line style="stroke:#000000;stroke-width:1;" x1="360.9492" x2="360.9492" y1="231.3359" y2="251.6328"/><rect fill="none" height="142.0781" rx="5" ry="5" style="stroke:#000000;stroke-width:1.5;" width="165.1885" x="262" y="109.5547"/><rect fill="#F1F1F1" height="60.8906" rx="5" ry="5" style="stroke:#F1F1F1;stroke-width:1.5;" width="59.0752" x="464" y="211.0938"/><text fill="#000000" font-family="sans-serif" font-size="14" lengthAdjust="spacing" textLength="24.4727" x="469" y="226.0889">List</text><line style="stroke:#000000;stroke-width:1;" x1="464" x2="523.0752" y1="231.3906" y2="231.3906"/><text fill="#000000" font-family="sans-serif" font-size="14" lengthAdjust="spacing" textLength="13.4941" x="469" y="246.3857">of</text><line style="stroke:#000000;stroke-width:1;" x1="464" x2="523.0752" y1="251.6875" y2="251.6875"/><text fill="#000000" font-family="sans-serif" font-size="14" lengthAdjust="spacing" textLength="49.0752" x="469" y="266.6826">Strings</text><rect fill="none" height="60.8906" rx="5" ry="5" style="stroke:#000000;stroke-width:1.5;" width="59.0752" x="464" y="211.0938"/><path d="M492.7702,60.5938 L505.7702,60.5938 C516.6841,60.5938 534.0286,60.5938 552.7946,60.5938 " fill="none" style="stroke:#000000;stroke-width:1;stroke-dasharray:3.0,3.0;"/><path d="M552.7946,63.6084 L555.0556,60.5938 L552.7946,57.5791 L560.3312,60.5938 L552.7946,63.6084 " fill="#000000" style="stroke:#000000;stroke-width:1;"/><ellipse cx="492.7702" cy="60.5938" fill="#000000" rx="3" ry="3" style="stroke:#000000;stroke-width:1;"/><path d="M409,60.5938 L422,60.5938 C439.9291,60.5938 460.405,60.5938 474.7456,60.5938 " fill="none" style="stroke:#000000;stroke-width:1;stroke-dasharray:3.0,3.0;"/><path d="M474.7456,63.6613 L477.0463,60.5938 L474.7456,57.5262 L482.4146,60.5938 L474.7456,63.6613 " fill="#000000" style="stroke:#000000;stroke-width:1;"/><ellipse cx="409" cy="60.5938" fill="#000000" rx="3" ry="3" style="stroke:#000000;stroke-width:1;"/><path d="M213.2812,96.8481 L225.5366,92.5116 C234.1091,89.4782 246.6622,85.0364 260.4285,80.1652 " fill="none" style="stroke:#000000;stroke-width:1;stroke-dasharray:3.0,3.0;"/><path d="M261.461,83.0831 L262.617,79.3908 L259.396,77.2473 L267.7234,77.5839 L261.461,83.0831 " fill="#000000" style="stroke:#000000;stroke-width:1;"/><ellipse cx="213.2812" cy="96.8481" fill="#000000" rx="3" ry="3" style="stroke:#000000;stroke-width:1;"/><path d="M153,116.5938 L166,116.5938 C176.3919,116.5938 187.1185,112.4028 195.6957,107.8578 " fill="none" style="stroke:#000000;stroke-width:1;stroke-dasharray:3.0,3.0;"/><path d="M197.2225,110.5158 L197.6892,106.7128 L194.169,105.1999 L202.3406,104.041 L197.2225,110.5158 " fill="#000000" style="stroke:#000000;stroke-width:1;"/><ellipse cx="153" cy="116.5938" fill="#000000" rx="3" ry="3" style="stroke:#000000;stroke-width:1;"/><path d="M415,241.5938 L428,241.5938 C437.257,241.5938 447.2556,241.5938 456.57,241.5938 " fill="none" style="stroke:#000000;stroke-width:1;stroke-dasharray:3.0,3.0;"/><path d="M456.57,244.6465 L458.8595,241.5938 L456.57,238.541 L464.2018,241.5938 L456.57,244.6465 " fill="#000000" style="stroke:#000000;stroke-width:1;"/><ellipse cx="415" cy="241.5938" fill="#000000" rx="3" ry="3" style="stroke:#000000;stroke-width:1;"/><path d="M212.7354,157.37 L225.5366,159.6348 C232.877,160.9335 243.1359,162.7486 254.576,164.7726 " fill="none" style="stroke:#000000;stroke-width:1;stroke-dasharray:3.0,3.0;"/><path d="M254.0332,167.8404 L256.8769,165.1797 L255.1188,161.7048 L262.2455,166.1295 L254.0332,167.8404 " fill="#000000" style="stroke:#000000;stroke-width:1;"/><ellipse cx="212.7354" cy="157.37" fill="#000000" rx="3" ry="3" style="stroke:#000000;stroke-width:1;"/><path d="M153,137.5938 L166,137.5938 C176.3919,137.5938 187.1185,141.7847 195.6957,146.3297 " fill="none" style="stroke:#000000;stroke-width:1;stroke-dasharray:3.0,3.0;"/><path d="M194.169,148.9876 L197.6892,147.4747 L197.2225,143.6717 L202.3406,150.1465 L194.169,148.9876 " fill="#000000" style="stroke:#000000;stroke-width:1;"/><ellipse cx="153" cy="137.5938" fill="#000000" rx="3" ry="3" style="stroke:#000000;stroke-width:1;"/><!--SRC=[hLDDJm8n4BttLpGzGG942I7A2HKrGL0YmiLmABl3MjrED_r02U6_sx9X3P_Hn1wQpPiths_UPDl6SctVZKAo9DGVXbm2Qr4sj5fWmYev6eE9jCYiKBXVD1b4-sZ6xTi1L6KkvK77-EBh6WndMNmTTr5KJxafI08jw1cFOFkXmmyMNObOIpuwEGMz8_axTtzoMP17658KCm5n85_XWkqHLrl8P6VUKmfvvsIpBx3MM_ct1HnZsKLsKcF6NMe3OSnJ1xjrAL189uzkWqd-TPem3xBhALbF6CigbAbPk7D3XasE17GeoXLf0yRhFuKCKevsrE_HEMZZCw3djVfPlL6xd8BbpT88Fr1z8esKp4GAr0e9PLAw7_IeKKv7G6DlHukf2m6MIPVFENrs67Wj-fG1TZiF6u3UubneXHBGakwu_qDeDghNmj8XQ6-3ZlkaaoVgEo8L-m5RTFHoLxqWFOw9uudN1YGtoklgXQyDlm40]--></g></svg>