<svg xmlns="http://www.w3.org/2000/svg" xmlns:xlink="http://www.w3.org/1999/xlink" contentStyleType="text/css" height="201px" preserveAspectRatio="none" style="width:479px;height:201px;background:#FFFFFF;" version="1.1" viewBox="0 0 479 201" width="479px" zoomAndPan="magnify"><title>Minimal System Configuration</title><defs/><g><text fill="#000000" font-family="sans-serif" font-size="14" font-weight="bold" lengthAdjust="spacing" textLength="238.5605" x="113.5562" y="22.9951">Minimal System Configuration</text><!--entity mgmt--><g id="elem_mgmt"><rect fill="#F1F1F1" height="62.5938" rx="2.5" ry="2.5" style="stroke:#181818;stroke-width:0.5;" width="132.2236" x="172.28" y="44.2969"/><rect fill="#F1F1F1" height="10" style="stroke:#181818;stroke-width:0.5;" width="15" x="284.5036" y="49.2969"/><rect fill="#F1F1F1" height="2" style="stroke:#181818;stroke-width:0.5;" width="4" x="282.5036" y="51.2969"/><rect fill="#F1F1F1" height="2" style="stroke:#181818;stroke-width:0.5;" width="4" x="282.5036" y="55.2969"/><text fill="#000000" font-family="sans-serif" font-size="14" lengthAdjust="spacing" textLength="92.2236" x="187.28" y="77.292">Management</text><text fill="#000000" font-family="sans-serif" font-size="14" lengthAdjust="spacing" textLength="59.623" x="187.28" y="93.5889">Program</text></g><!--entity evo--><g id="elem_evo"><rect fill="#F1F1F1" height="62.5938" rx="2.5" ry="2.5" style="stroke:#181818;stroke-width:0.5;" width="105.2764" x="7" y="133.2969"/><rect fill="#F1F1F1" height="10" style="stroke:#181818;stroke-width:0.5;" width="15" x="92.2764" y="138.2969"/><rect fill="#F1F1F1" height="2" style="stroke:#181818;stroke-width:0.5;" width="4" x="90.2764" y="140.2969"/><rect fill="#F1F1F1" height="2" style="stroke:#181818;stroke-width:0.5;" width="4" x="90.2764" y="144.2969"/><text fill="#000000" font-family="sans-serif" font-size="14" lengthAdjust="spacing" textLength="65.2764" x="22" y="166.292">Evolution</text><text fill="#000000" font-family="sans-serif" font-size="14" lengthAdjust="spacing" textLength="51.7412" x="22" y="182.5889">Service</text></g><!--entity env--><g id="elem_env"><rect fill="#F1F1F1" height="46.2969" rx="2.5" ry="2.5" style="stroke:#181818;stroke-width:0.5;" width="129.7012" x="173.54" y="141.4369"/><rect fill="#F1F1F1" height="10" style="stroke:#181818;stroke-width:0.5;" width="15" x="283.2412" y="146.4369"/><rect fill="#F1F1F1" height="2" style="stroke:#181818;stroke-width:0.5;" width="4" x="281.2412" y="148.4369"/><rect fill="#F1F1F1" height="2" style="stroke:#181818;stroke-width:0.5;" width="4" x="281.2412" y="152.4369"/><text fill="#000000" font-family="sans-serif" font-size="14" lengthAdjust="spacing" textLength="89.7012" x="188.54" y="174.432">Environment</text></g><!--entity ctrl--><g id="elem_ctrl"><rect fill="#F1F1F1" height="46.2969" rx="2.5" ry="2.5" style="stroke:#181818;stroke-width:0.5;" width="109.1729" x="364.5" y="141.4369"/><rect fill="#F1F1F1" height="10" style="stroke:#181818;stroke-width:0.5;" width="15" x="453.6729" y="146.4369"/><rect fill="#F1F1F1" height="2" style="stroke:#181818;stroke-width:0.5;" width="4" x="451.6729" y="148.4369"/><rect fill="#F1F1F1" height="2" style="stroke:#181818;stroke-width:0.5;" width="4" x="451.6729" y="152.4369"/><text fill="#000000" font-family="sans-serif" font-size="14" lengthAdjust="spacing" textLength="69.1729" x="379.5" y="174.432">Controller</text></g><!--link mgmt to env--><g id="link_mgmt_env"><path d="M238.39,107.2469 C238.39,118.4869 238.39,129.7169 238.39,140.9469 " fill="none" id="mgmt-env" style="stroke:#181818;stroke-width:1.0;"/></g><!--link evo to env--><g id="link_evo_env"><path d="M112.71,164.5869 C131.65,164.5869 153.29,164.5869 173.16,164.5869 " fill="none" id="evo-env" style="stroke:#181818;stroke-width:1.0;"/></g><!--link env to ctrl--><g id="link_env_ctrl"><path d="M303.65,164.5869 C323.46,164.5869 345.06,164.5869 364.11,164.5869 " fill="none" id="env-ctrl" style="stroke:#181818;stroke-width:1.0;"/></g><!--SRC=[BOn12iCm30JlVeK-a5UK7WE579qUZAku0ba2HJ7qzusTt9RPsMNS75p1g7mTFcIOdLH2S796c4ce9eRbjpjMUAXiL0vBbnFd9AbWHV5LNgR5Kdr3sg6MwY4-c_BHpLKMj4OPHubDpquQcKgVNb1QYEUzcpAZ3PRTE8J-1TCGpYLCTvJMOrV-]--></g></svg>