<svg xmlns="http://www.w3.org/2000/svg" xmlns:xlink="http://www.w3.org/1999/xlink" contentStyleType="text/css" height="311px" preserveAspectRatio="none" style="width:503px;height:311px;background:#FFFFFF;" version="1.1" viewBox="0 0 503 311" width="503px" zoomAndPan="magnify"><title>Management Programs May Contain</title><defs/><g><text fill="#000000" font-family="sans-serif" font-size="14" font-weight="bold" lengthAdjust="spacing" textLength="287.0205" x="101.4199" y="22.9951">Management Programs May Contain</text><text fill="#000000" font-family="sans-serif" font-size="14" font-weight="bold" lengthAdjust="spacing" textLength="178.3975" x="155.7314" y="39.292">Multiple Environments</text><!--entity mgmt--><g id="elem_mgmt"><rect fill="#F1F1F1" height="62.5938" rx="2.5" ry="2.5" style="stroke:#181818;stroke-width:0.5;" width="132.2236" x="177.69" y="60.5938"/><rect fill="#F1F1F1" height="10" style="stroke:#181818;stroke-width:0.5;" width="15" x="289.9136" y="65.5938"/><rect fill="#F1F1F1" height="2" style="stroke:#181818;stroke-width:0.5;" width="4" x="287.9136" y="67.5938"/><rect fill="#F1F1F1" height="2" style="stroke:#181818;stroke-width:0.5;" width="4" x="287.9136" y="71.5938"/><text fill="#000000" font-family="sans-serif" font-size="14" lengthAdjust="spacing" textLength="92.2236" x="192.69" y="93.5889">Management</text><text fill="#000000" font-family="sans-serif" font-size="14" lengthAdjust="spacing" textLength="59.623" x="192.69" y="109.8857">Program</text></g><!--entity evo1--><g id="elem_evo1"><rect fill="#F1F1F1" height="62.5938" rx="2.5" ry="2.5" style="stroke:#181818;stroke-width:0.5;" width="105.2764" x="7" y="144.5938"/><rect fill="#F1F1F1" height="10" style="stroke:#181818;stroke-width:0.5;" width="15" x="92.2764" y="149.5938"/><rect fill="#F1F1F1" height="2" style="stroke:#181818;stroke-width:0.5;" width="4" x="90.2764" y="151.5938"/><rect fill="#F1F1F1" height="2" style="stroke:#181818;stroke-width:0.5;" width="4" x="90.2764" y="155.5938"/><text fill="#000000" font-family="sans-serif" font-size="14" lengthAdjust="spacing" textLength="65.2764" x="22" y="177.5889">Evolution</text><text fill="#000000" font-family="sans-serif" font-size="14" lengthAdjust="spacing" textLength="65.0986" x="22" y="193.8857">Service 1</text></g><!--entity evo2--><g id="elem_evo2"><rect fill="#F1F1F1" height="62.5938" rx="2.5" ry="2.5" style="stroke:#181818;stroke-width:0.5;" width="105.2764" x="7" y="242.5938"/><rect fill="#F1F1F1" height="10" style="stroke:#181818;stroke-width:0.5;" width="15" x="92.2764" y="247.5938"/><rect fill="#F1F1F1" height="2" style="stroke:#181818;stroke-width:0.5;" width="4" x="90.2764" y="249.5938"/><rect fill="#F1F1F1" height="2" style="stroke:#181818;stroke-width:0.5;" width="4" x="90.2764" y="253.5938"/><text fill="#000000" font-family="sans-serif" font-size="14" lengthAdjust="spacing" textLength="65.2764" x="22" y="275.5889">Evolution</text><text fill="#000000" font-family="sans-serif" font-size="14" lengthAdjust="spacing" textLength="65.0986" x="22" y="291.8857">Service 2</text></g><!--entity env1--><g id="elem_env1"><rect fill="#F1F1F1" height="46.2969" rx="2.5" ry="2.5" style="stroke:#181818;stroke-width:0.5;" width="143.0586" x="172.28" y="157.7338"/><rect fill="#F1F1F1" height="10" style="stroke:#181818;stroke-width:0.5;" width="15" x="295.3386" y="162.7338"/><rect fill="#F1F1F1" height="2" style="stroke:#181818;stroke-width:0.5;" width="4" x="293.3386" y="164.7338"/><rect fill="#F1F1F1" height="2" style="stroke:#181818;stroke-width:0.5;" width="4" x="293.3386" y="168.7338"/><text fill="#000000" font-family="sans-serif" font-size="14" lengthAdjust="spacing" textLength="103.0586" x="187.28" y="190.7289">Environment 1</text></g><!--entity env2--><g id="elem_env2"><rect fill="#F1F1F1" height="46.2969" rx="2.5" ry="2.5" style="stroke:#181818;stroke-width:0.5;" width="143.0586" x="172.28" y="242.7338"/><rect fill="#F1F1F1" height="10" style="stroke:#181818;stroke-width:0.5;" width="15" x="295.3386" y="247.7338"/><rect fill="#F1F1F1" height="2" style="stroke:#181818;stroke-width:0.5;" width="4" x="293.3386" y="249.7338"/><rect fill="#F1F1F1" height="2" style="stroke:#181818;stroke-width:0.5;" width="4" x="293.3386" y="253.7338"/><text fill="#000000" font-family="sans-serif" font-size="14" lengthAdjust="spacing" textLength="103.0586" x="187.28" y="275.7289">Environment 2</text></g><!--entity ctrl1--><g id="elem_ctrl1"><rect fill="#F1F1F1" height="46.2969" rx="2.5" ry="2.5" style="stroke:#181818;stroke-width:0.5;" width="122.5303" x="375.33" y="157.7338"/><rect fill="#F1F1F1" height="10" style="stroke:#181818;stroke-width:0.5;" width="15" x="477.8603" y="162.7338"/><rect fill="#F1F1F1" height="2" style="stroke:#181818;stroke-width:0.5;" width="4" x="475.8603" y="164.7338"/><rect fill="#F1F1F1" height="2" style="stroke:#181818;stroke-width:0.5;" width="4" x="475.8603" y="168.7338"/><text fill="#000000" font-family="sans-serif" font-size="14" lengthAdjust="spacing" textLength="82.5303" x="390.33" y="190.7289">Controller 1</text></g><!--entity ctrl2--><g id="elem_ctrl2"><rect fill="#F1F1F1" height="46.2969" rx="2.5" ry="2.5" style="stroke:#181818;stroke-width:0.5;" width="122.5303" x="375.33" y="242.7338"/><rect fill="#F1F1F1" height="10" style="stroke:#181818;stroke-width:0.5;" width="15" x="477.8603" y="247.7338"/><rect fill="#F1F1F1" height="2" style="stroke:#181818;stroke-width:0.5;" width="4" x="475.8603" y="249.7338"/><rect fill="#F1F1F1" height="2" style="stroke:#181818;stroke-width:0.5;" width="4" x="475.8603" y="253.7338"/><text fill="#000000" font-family="sans-serif" font-size="14" lengthAdjust="spacing" textLength="82.5303" x="390.33" y="275.7289">Controller 2</text></g><!--link mgmt to env1--><g id="link_mgmt_env1"><path d="M243.81,123.5438 C243.81,134.7838 243.81,146.0138 243.81,157.2438 " fill="none" id="mgmt-env1" style="stroke:#181818;stroke-width:1.0;"/></g><!--link mgmt to env2--><g id="link_mgmt_env2"><path d="M177.21,121.3038 C163.23,130.7338 150.31,142.6538 142.28,157.3838 C132.28,175.7338 132.02,186.1838 142.28,204.3838 C151.43,220.6338 166.8,233.0838 182.85,242.3838 " fill="none" id="mgmt-env2" style="stroke:#181818;stroke-width:1.0;"/></g><!--link evo1 to env1--><g id="link_evo1_env1"><path d="M112.35,177.3038 C130.87,177.8138 152.07,178.3938 171.92,178.9438 " fill="none" id="evo1-env1" style="stroke:#181818;stroke-width:1.0;"/></g><!--link evo2 to env2--><g id="link_evo2_env2"><path d="M112.35,271.6138 C130.87,270.8038 152.07,269.8738 171.92,269.0037 " fill="none" id="evo2-env2" style="stroke:#181818;stroke-width:1.0;"/></g><!--link env1 to ctrl1--><g id="link_env1_ctrl1"><path d="M315.58,180.8838 C335.09,180.8838 356.08,180.8838 374.97,180.8838 " fill="none" id="env1-ctrl1" style="stroke:#181818;stroke-width:1.0;"/></g><!--link env2 to ctrl2--><g id="link_env2_ctrl2"><path d="M315.58,265.8837 C335.09,265.8837 356.08,265.8837 374.97,265.8837 " fill="none" id="env2-ctrl2" style="stroke:#181818;stroke-width:1.0;"/></g><!--SRC=[ROun2iCm34Ltdq8No11VeNGC53ec7KogkWPRBefYwErhDtP3e9l- -r_Iz_WGa0Zix5FWxXXdSP6K4YSUOJ1aB0OaWGj7ooOicRtX54cCeuc6rOjxvUIPakD89ReeDUwB4zND6vW5WWsYndEAVYr_9heY9pSZz5yRK-p_shhPEjlxgxP6gJzotNZEbx8SlKUkyLdOzmUkVrmhLJf2jntTPwrAEUYgKQfKaPrCYjWE5zIK_W00]--></g></svg>