<svg xmlns="http://www.w3.org/2000/svg" xmlns:xlink="http://www.w3.org/1999/xlink" contentStyleType="text/css" height="388px" preserveAspectRatio="none" style="width:532px;height:388px;background:#FFFFFF;" version="1.1" viewBox="0 0 532 388" width="532px" zoomAndPan="magnify"><title>Evolution Services May Be Shared By</title><defs/><g><text fill="#000000" font-family="sans-serif" font-size="14" font-weight="bold" lengthAdjust="spacing" textLength="293.4395" x="115.5298" y="22.9951">Evolution Services May Be Shared By</text><text fill="#000000" font-family="sans-serif" font-size="14" font-weight="bold" lengthAdjust="spacing" textLength="504.499" x="10" y="39.292">Multiple Management Programs, Environments, and Controllers</text><!--entity evo--><g id="elem_evo"><rect fill="#F1F1F1" height="62.5938" rx="2.5" ry="2.5" style="stroke:#181818;stroke-width:0.5;" width="105.2764" x="24.3194" y="190.5937"/><rect fill="#F1F1F1" height="10" style="stroke:#181818;stroke-width:0.5;" width="15" x="109.5957" y="195.5937"/><rect fill="#F1F1F1" height="2" style="stroke:#181818;stroke-width:0.5;" width="4" x="107.5957" y="197.5937"/><rect fill="#F1F1F1" height="2" style="stroke:#181818;stroke-width:0.5;" width="4" x="107.5957" y="201.5937"/><text fill="#000000" font-family="sans-serif" font-size="14" lengthAdjust="spacing" textLength="65.2764" x="39.3194" y="223.5889">Evolution</text><text fill="#000000" font-family="sans-serif" font-size="14" lengthAdjust="spacing" textLength="51.7412" x="39.3194" y="239.8857">Service</text></g><!--entity mgmt1--><g id="elem_mgmt1"><rect fill="#F1F1F1" height="62.5938" rx="2.5" ry="2.5" style="stroke:#181818;stroke-width:0.5;" width="132.2236" x="195.0094" y="60.5938"/><rect fill="#F1F1F1" height="10" style="stroke:#181818;stroke-width:0.5;" width="15" x="307.233" y="65.5938"/><rect fill="#F1F1F1" height="2" style="stroke:#181818;stroke-width:0.5;" width="4" x="305.233" y="67.5938"/><rect fill="#F1F1F1" height="2" style="stroke:#181818;stroke-width:0.5;" width="4" x="305.233" y="71.5938"/><text fill="#000000" font-family="sans-serif" font-size="14" lengthAdjust="spacing" textLength="92.2236" x="210.0094" y="93.5889">Management</text><text fill="#000000" font-family="sans-serif" font-size="14" lengthAdjust="spacing" textLength="72.9805" x="210.0094" y="109.8857">Program 1</text></g><!--entity mgmt2--><g id="elem_mgmt2"><rect fill="#F1F1F1" height="62.5938" rx="2.5" ry="2.5" style="stroke:#181818;stroke-width:0.5;" width="132.2236" x="195.0094" y="319.5937"/><rect fill="#F1F1F1" height="10" style="stroke:#181818;stroke-width:0.5;" width="15" x="307.233" y="324.5937"/><rect fill="#F1F1F1" height="2" style="stroke:#181818;stroke-width:0.5;" width="4" x="305.233" y="326.5937"/><rect fill="#F1F1F1" height="2" style="stroke:#181818;stroke-width:0.5;" width="4" x="305.233" y="330.5937"/><text fill="#000000" font-family="sans-serif" font-size="14" lengthAdjust="spacing" textLength="92.2236" x="210.0094" y="352.5889">Management</text><text fill="#000000" font-family="sans-serif" font-size="14" lengthAdjust="spacing" textLength="72.9805" x="210.0094" y="368.8857">Program 2</text></g><!--entity env1--><g id="elem_env1"><rect fill="#F1F1F1" height="46.2969" rx="2.5" ry="2.5" style="stroke:#181818;stroke-width:0.5;" width="143.0586" x="189.5994" y="157.7338"/><rect fill="#F1F1F1" height="10" style="stroke:#181818;stroke-width:0.5;" width="15" x="312.658" y="162.7338"/><rect fill="#F1F1F1" height="2" style="stroke:#181818;stroke-width:0.5;" width="4" x="310.658" y="164.7338"/><rect fill="#F1F1F1" height="2" style="stroke:#181818;stroke-width:0.5;" width="4" x="310.658" y="168.7338"/><text fill="#000000" font-family="sans-serif" font-size="14" lengthAdjust="spacing" textLength="103.0586" x="204.5994" y="190.7289">Environment 1</text></g><!--entity env2--><g id="elem_env2"><rect fill="#F1F1F1" height="46.2969" rx="2.5" ry="2.5" style="stroke:#181818;stroke-width:0.5;" width="143.0586" x="189.5994" y="238.7338"/><rect fill="#F1F1F1" height="10" style="stroke:#181818;stroke-width:0.5;" width="15" x="312.658" y="243.7338"/><rect fill="#F1F1F1" height="2" style="stroke:#181818;stroke-width:0.5;" width="4" x="310.658" y="245.7338"/><rect fill="#F1F1F1" height="2" style="stroke:#181818;stroke-width:0.5;" width="4" x="310.658" y="249.7338"/><text fill="#000000" font-family="sans-serif" font-size="14" lengthAdjust="spacing" textLength="103.0586" x="204.5994" y="271.7289">Environment 2</text></g><!--entity ctrl1--><g id="elem_ctrl1"><rect fill="#F1F1F1" height="46.2969" rx="2.5" ry="2.5" style="stroke:#181818;stroke-width:0.5;" width="122.5303" x="392.6494" y="157.7338"/><rect fill="#F1F1F1" height="10" style="stroke:#181818;stroke-width:0.5;" width="15" x="495.1796" y="162.7338"/><rect fill="#F1F1F1" height="2" style="stroke:#181818;stroke-width:0.5;" width="4" x="493.1796" y="164.7338"/><rect fill="#F1F1F1" height="2" style="stroke:#181818;stroke-width:0.5;" width="4" x="493.1796" y="168.7338"/><text fill="#000000" font-family="sans-serif" font-size="14" lengthAdjust="spacing" textLength="82.5303" x="407.6494" y="190.7289">Controller 1</text></g><!--entity ctrl2--><g id="elem_ctrl2"><rect fill="#F1F1F1" height="46.2969" rx="2.5" ry="2.5" style="stroke:#181818;stroke-width:0.5;" width="122.5303" x="392.6494" y="238.7338"/><rect fill="#F1F1F1" height="10" style="stroke:#181818;stroke-width:0.5;" width="15" x="495.1796" y="243.7338"/><rect fill="#F1F1F1" height="2" style="stroke:#181818;stroke-width:0.5;" width="4" x="493.1796" y="245.7338"/><rect fill="#F1F1F1" height="2" style="stroke:#181818;stroke-width:0.5;" width="4" x="493.1796" y="249.7338"/><text fill="#000000" font-family="sans-serif" font-size="14" lengthAdjust="spacing" textLength="82.5303" x="407.6494" y="271.7289">Controller 2</text></g><!--link evo to env1--><g id="link_evo_env1"><path d="M129.6694,210.2437 C148.1894,206.0837 169.3894,201.3137 189.2394,196.8437 " fill="none" id="evo-env1" style="stroke:#181818;stroke-width:1.0;"/></g><!--link evo to env2--><g id="link_evo_env2"><path d="M129.6694,233.2437 C148.1894,237.3037 169.3894,241.9637 189.2394,246.3237 " fill="none" id="evo-env2" style="stroke:#181818;stroke-width:1.0;"/></g><!--link mgmt1 to env1--><g id="link_mgmt1_env1"><path d="M261.1294,123.5437 C261.1294,134.7837 261.1294,146.0138 261.1294,157.2437 " fill="none" id="mgmt1-env1" style="stroke:#181818;stroke-width:1.0;"/></g><!--link env2 to mgmt2--><g id="link_env2_mgmt2"><path d="M261.1294,285.1937 C261.1294,296.5438 261.1294,307.8937 261.1294,319.2537 " fill="none" id="env2-mgmt2" style="stroke:#181818;stroke-width:1.0;"/></g><!--link env1 to ctrl1--><g id="link_env1_ctrl1"><path d="M332.8994,180.8837 C352.4094,180.8837 373.3994,180.8837 392.2894,180.8837 " fill="none" id="env1-ctrl1" style="stroke:#181818;stroke-width:1.0;"/></g><!--link env2 to ctrl2--><g id="link_env2_ctrl2"><path d="M332.8994,261.8837 C352.4094,261.8837 373.3994,261.8837 392.2894,261.8837 " fill="none" id="env2-ctrl2" style="stroke:#181818;stroke-width:1.0;"/></g><!--SRC=[ROwn3i8m34JtVCLz00pD9u0OAo4nKeQeDILIwY3NZSJVavBI2edDVZxVNQ2xGYF4zmz5vuLQzP6DKQ-1S4enJ3F0XIJvbaRKxeK3uV9mGXqEhuRhAQX_PdNjsFKq42lE4djnmxZ3YPENo3FDc-CEnyWgCGIIqPZh6j7mad636q4fckjcsF3YYEfp7lf1g_y2kmfiTj_Ibq_YLFro- -LPltLRvArAg7wuNRar9jV4VbzCjzcQJpzy3vdakLIQoImhnkLKDli6]--></g></svg>