<svg xmlns="http://www.w3.org/2000/svg" xmlns:xlink="http://www.w3.org/1999/xlink" contentStyleType="text/css" height="267px" preserveAspectRatio="none" style="width:493px;height:267px;background:#FFFFFF;" version="1.1" viewBox="0 0 493 267" width="493px" zoomAndPan="magnify"><title>Environments May Contain</title><defs/><g><text fill="#000000" font-family="sans-serif" font-size="14" font-weight="bold" lengthAdjust="spacing" textLength="212.0371" x="133.4966" y="22.9951">Environments May Contain</text><text fill="#000000" font-family="sans-serif" font-size="14" font-weight="bold" lengthAdjust="spacing" textLength="275.7617" x="101.6343" y="39.292">Multiple Populations of Controllers</text><!--entity evo1--><g id="elem_evo1"><rect fill="#FFFFE0" height="62.5938" rx="2.5" ry="2.5" style="stroke:#181818;stroke-width:0.5;" width="105.2764" x="7" y="100.5938"/><rect fill="#FFFFE0" height="10" style="stroke:#181818;stroke-width:0.5;" width="15" x="92.2764" y="105.5938"/><rect fill="#FFFFE0" height="2" style="stroke:#181818;stroke-width:0.5;" width="4" x="90.2764" y="107.5938"/><rect fill="#FFFFE0" height="2" style="stroke:#181818;stroke-width:0.5;" width="4" x="90.2764" y="111.5938"/><text fill="#000000" font-family="sans-serif" font-size="14" lengthAdjust="spacing" textLength="65.2764" x="22" y="133.5889">Evolution</text><text fill="#000000" font-family="sans-serif" font-size="14" lengthAdjust="spacing" textLength="65.0986" x="22" y="149.8857">Service 1</text></g><!--entity evo2--><g id="elem_evo2"><rect fill="#ADD8E6" height="62.5938" rx="2.5" ry="2.5" style="stroke:#181818;stroke-width:0.5;" width="105.2764" x="7" y="198.5938"/><rect fill="#ADD8E6" height="10" style="stroke:#181818;stroke-width:0.5;" width="15" x="92.2764" y="203.5938"/><rect fill="#ADD8E6" height="2" style="stroke:#181818;stroke-width:0.5;" width="4" x="90.2764" y="205.5938"/><rect fill="#ADD8E6" height="2" style="stroke:#181818;stroke-width:0.5;" width="4" x="90.2764" y="209.5938"/><text fill="#000000" font-family="sans-serif" font-size="14" lengthAdjust="spacing" textLength="65.2764" x="22" y="231.5889">Evolution</text><text fill="#000000" font-family="sans-serif" font-size="14" lengthAdjust="spacing" textLength="65.0986" x="22" y="247.8857">Service 2</text></g><!--entity env--><g id="elem_env"><rect fill="#F1F1F1" height="46.2969" rx="2.5" ry="2.5" style="stroke:#181818;stroke-width:0.5;" width="129.7012" x="173.54" y="157.7338"/><rect fill="#F1F1F1" height="10" style="stroke:#181818;stroke-width:0.5;" width="15" x="283.2412" y="162.7338"/><rect fill="#F1F1F1" height="2" style="stroke:#181818;stroke-width:0.5;" width="4" x="281.2412" y="164.7338"/><rect fill="#F1F1F1" height="2" style="stroke:#181818;stroke-width:0.5;" width="4" x="281.2412" y="168.7338"/><text fill="#000000" font-family="sans-serif" font-size="14" lengthAdjust="spacing" textLength="89.7012" x="188.54" y="190.7289">Environment</text></g><!--entity ctrl1--><g id="elem_ctrl1"><rect fill="#FFFFE0" height="46.2969" rx="2.5" ry="2.5" style="stroke:#181818;stroke-width:0.5;" width="122.5303" x="364.5" y="116.7338"/><rect fill="#FFFFE0" height="10" style="stroke:#181818;stroke-width:0.5;" width="15" x="467.0303" y="121.7338"/><rect fill="#FFFFE0" height="2" style="stroke:#181818;stroke-width:0.5;" width="4" x="465.0303" y="123.7338"/><rect fill="#FFFFE0" height="2" style="stroke:#181818;stroke-width:0.5;" width="4" x="465.0303" y="127.7338"/><text fill="#000000" font-family="sans-serif" font-size="14" lengthAdjust="spacing" textLength="82.5303" x="379.5" y="149.7289">Controller 1</text></g><!--entity ctrl2--><g id="elem_ctrl2"><rect fill="#ADD8E6" height="46.2969" rx="2.5" ry="2.5" style="stroke:#181818;stroke-width:0.5;" width="122.5303" x="364.5" y="197.7338"/><rect fill="#ADD8E6" height="10" style="stroke:#181818;stroke-width:0.5;" width="15" x="467.0303" y="202.7338"/><rect fill="#ADD8E6" height="2" style="stroke:#181818;stroke-width:0.5;" width="4" x="465.0303" y="204.7338"/><rect fill="#ADD8E6" height="2" style="stroke:#181818;stroke-width:0.5;" width="4" x="465.0303" y="208.7338"/><text fill="#000000" font-family="sans-serif" font-size="14" lengthAdjust="spacing" textLength="82.5303" x="379.5" y="230.7289">Controller 2</text></g><!--entity mgmt--><g id="elem_mgmt"><rect fill="#F1F1F1" height="62.5938" rx="2.5" ry="2.5" style="stroke:#181818;stroke-width:0.5;" width="132.2236" x="172.28" y="60.5938"/><rect fill="#F1F1F1" height="10" style="stroke:#181818;stroke-width:0.5;" width="15" x="284.5036" y="65.5938"/><rect fill="#F1F1F1" height="2" style="stroke:#181818;stroke-width:0.5;" width="4" x="282.5036" y="67.5938"/><rect fill="#F1F1F1" height="2" style="stroke:#181818;stroke-width:0.5;" width="4" x="282.5036" y="71.5938"/><text fill="#000000" font-family="sans-serif" font-size="14" lengthAdjust="spacing" textLength="92.2236" x="187.28" y="93.5889">Management</text><text fill="#000000" font-family="sans-serif" font-size="14" lengthAdjust="spacing" textLength="59.623" x="187.28" y="109.8857">Program</text></g><!--link mgmt to env--><g id="link_mgmt_env"><path d="M238.39,123.5438 C238.39,134.7838 238.39,146.0138 238.39,157.2438 " fill="none" id="mgmt-env" style="stroke:#181818;stroke-width:1.0;"/></g><!--link evo1 to env--><g id="link_evo1_env"><path d="M112.71,146.3238 C131.65,151.5738 153.29,157.5738 173.16,163.0838 " fill="none" id="evo1-env" style="stroke:#181818;stroke-width:1.0;"/></g><!--link evo2 to env--><g id="link_evo2_env"><path d="M112.71,215.4538 C131.65,210.2038 153.29,204.2038 173.16,198.6938 " fill="none" id="evo2-env" style="stroke:#181818;stroke-width:1.0;"/></g><!--link env to ctrl1--><g id="link_env_ctrl1"><path d="M303.7,166.6638 C323.36,162.3138 344.91,157.5538 364.3,153.2638 " fill="none" id="env-ctrl1" style="stroke:#181818;stroke-width:1.0;"/></g><!--link env to ctrl2--><g id="link_env_ctrl2"><path d="M303.7,194.7638 C323.36,199.0038 344.91,203.6538 364.3,207.8438 " fill="none" id="env-ctrl2" style="stroke:#181818;stroke-width:1.0;"/></g><!--SRC=[RO_F2i8m38VlVOg0Pm_s4HHl3WHFuZoK6MSXIoJBAhwzjkhyWvVoA_cIBo4y6fY0nlPaS8YAZKLXvomQ8ImvHHNkaAs7AbnX8MmXSitLG1RFTsGjvu52Rkf1ZWLG8KBjdTijaz2GQpLlK5Di46Px23rWaXbCLjcwHIAv_6NzY_LFTau3tidtLW-0azkznKz5Oqg_ZW_8Zz3ty2fmQ37Fhdcjqche2jcrdJcNNvWMOpbXEcO_Pauv5ltdnzy0]--></g></svg>