<svg xmlns="http://www.w3.org/2000/svg" xmlns:xlink="http://www.w3.org/1999/xlink" contentStyleType="text/css" height="388px" preserveAspectRatio="none" style="width:494px;height:388px;background:#FFFFFF;" version="1.1" viewBox="0 0 494 388" width="494px" zoomAndPan="magnify"><title>Evolution Services May Be Shared By</title><defs/><g><text fill="#000000" font-family="sans-serif" font-size="14" font-weight="bold" lengthAdjust="spacing" textLength="293.4395" x="93.4218" y="22.9951">Evolution Services May Be Shared By</text><text fill="#000000" font-family="sans-serif" font-size="14" font-weight="bold" lengthAdjust="spacing" textLength="401.584" x="39.3496" y="39.292">Multiple Management Programs and Environments</text><!--entity evo--><g id="elem_evo"><rect fill="#F1F1F1" height="62.5938" rx="2.5" ry="2.5" style="stroke:#181818;stroke-width:0.5;" width="105.2764" x="7" y="190.5937"/><rect fill="#F1F1F1" height="10" style="stroke:#181818;stroke-width:0.5;" width="15" x="92.2764" y="195.5937"/><rect fill="#F1F1F1" height="2" style="stroke:#181818;stroke-width:0.5;" width="4" x="90.2764" y="197.5937"/><rect fill="#F1F1F1" height="2" style="stroke:#181818;stroke-width:0.5;" width="4" x="90.2764" y="201.5937"/><text fill="#000000" font-family="sans-serif" font-size="14" lengthAdjust="spacing" textLength="65.2764" x="22" y="223.5889">Evolution</text><text fill="#000000" font-family="sans-serif" font-size="14" lengthAdjust="spacing" textLength="51.7412" x="22" y="239.8857">Service</text></g><!--entity mgmt1--><g id="elem_mgmt1"><rect fill="#F1F1F1" height="62.5938" rx="2.5" ry="2.5" style="stroke:#181818;stroke-width:0.5;" width="132.2236" x="177.69" y="60.5938"/><rect fill="#F1F1F1" height="10" style="stroke:#181818;stroke-width:0.5;" width="15" x="289.9136" y="65.5938"/><rect fill="#F1F1F1" height="2" style="stroke:#181818;stroke-width:0.5;" width="4" x="287.9136" y="67.5938"/><rect fill="#F1F1F1" height="2" style="stroke:#181818;stroke-width:0.5;" width="4" x="287.9136" y="71.5938"/><text fill="#000000" font-family="sans-serif" font-size="14" lengthAdjust="spacing" textLength="92.2236" x="192.69" y="93.5889">Management</text><text fill="#000000" font-family="sans-serif" font-size="14" lengthAdjust="spacing" textLength="72.9805" x="192.69" y="109.8857">Program 1</text></g><!--entity mgmt2--><g id="elem_mgmt2"><rect fill="#F1F1F1" height="62.5938" rx="2.5" ry="2.5" style="stroke:#181818;stroke-width:0.5;" width="132.2236" x="177.69" y="319.5937"/><rect fill="#F1F1F1" height="10" style="stroke:#181818;stroke-width:0.5;" width="15" x="289.9136" y="324.5937"/><rect fill="#F1F1F1" height="2" style="stroke:#181818;stroke-width:0.5;" width="4" x="287.9136" y="326.5937"/><rect fill="#F1F1F1" height="2" style="stroke:#181818;stroke-width:0.5;" width="4" x="287.9136" y="330.5937"/><text fill="#000000" font-family="sans-serif" font-size="14" lengthAdjust="spacing" textLength="92.2236" x="192.69" y="352.5889">Management</text><text fill="#000000" font-family="sans-serif" font-size="14" lengthAdjust="spacing" textLength="72.9805" x="192.69" y="368.8857">Program 2</text></g><!--entity env1--><g id="elem_env1"><rect fill="#F1F1F1" height="46.2969" rx="2.5" ry="2.5" style="stroke:#181818;stroke-width:0.5;" width="143.0586" x="172.28" y="157.7338"/><rect fill="#F1F1F1" height="10" style="stroke:#181818;stroke-width:0.5;" width="15" x="295.3386" y="162.7338"/><rect fill="#F1F1F1" height="2" style="stroke:#181818;stroke-width:0.5;" width="4" x="293.3386" y="164.7338"/><rect fill="#F1F1F1" height="2" style="stroke:#181818;stroke-width:0.5;" width="4" x="293.3386" y="168.7338"/><text fill="#000000" font-family="sans-serif" font-size="14" lengthAdjust="spacing" textLength="103.0586" x="187.28" y="190.7289">Environment 1</text></g><!--entity env2--><g id="elem_env2"><rect fill="#F1F1F1" height="46.2969" rx="2.5" ry="2.5" style="stroke:#181818;stroke-width:0.5;" width="143.0586" x="172.28" y="238.7338"/><rect fill="#F1F1F1" height="10" style="stroke:#181818;stroke-width:0.5;" width="15" x="295.3386" y="243.7338"/><rect fill="#F1F1F1" height="2" style="stroke:#181818;stroke-width:0.5;" width="4" x="293.3386" y="245.7338"/><rect fill="#F1F1F1" height="2" style="stroke:#181818;stroke-width:0.5;" width="4" x="293.3386" y="249.7338"/><text fill="#000000" font-family="sans-serif" font-size="14" lengthAdjust="spacing" textLength="103.0586" x="187.28" y="271.7289">Environment 2</text></g><!--entity ctrl1--><g id="elem_ctrl1"><rect fill="#F1F1F1" height="46.2969" rx="2.5" ry="2.5" style="stroke:#181818;stroke-width:0.5;" width="112.9531" x="375.33" y="157.7338"/><rect fill="#F1F1F1" height="10" style="stroke:#181818;stroke-width:0.5;" width="15" x="468.2831" y="162.7338"/><rect fill="#F1F1F1" height="2" style="stroke:#181818;stroke-width:0.5;" width="4" x="466.2831" y="164.7338"/><rect fill="#F1F1F1" height="2" style="stroke:#181818;stroke-width:0.5;" width="4" x="466.2831" y="168.7338"/><text fill="#000000" font-family="sans-serif" font-size="14" lengthAdjust="spacing" textLength="72.9531" x="390.33" y="190.7289">AI Agent 1</text></g><!--entity ctrl2--><g id="elem_ctrl2"><rect fill="#F1F1F1" height="46.2969" rx="2.5" ry="2.5" style="stroke:#181818;stroke-width:0.5;" width="112.9531" x="375.33" y="238.7338"/><rect fill="#F1F1F1" height="10" style="stroke:#181818;stroke-width:0.5;" width="15" x="468.2831" y="243.7338"/><rect fill="#F1F1F1" height="2" style="stroke:#181818;stroke-width:0.5;" width="4" x="466.2831" y="245.7338"/><rect fill="#F1F1F1" height="2" style="stroke:#181818;stroke-width:0.5;" width="4" x="466.2831" y="249.7338"/><text fill="#000000" font-family="sans-serif" font-size="14" lengthAdjust="spacing" textLength="72.9531" x="390.33" y="271.7289">AI Agent 2</text></g><!--link evo to env1--><g id="link_evo_env1"><path d="M112.35,210.2437 C130.87,206.0837 152.07,201.3137 171.92,196.8437 " fill="none" id="evo-env1" style="stroke:#181818;stroke-width:1.0;"/></g><!--link evo to env2--><g id="link_evo_env2"><path d="M112.35,233.2437 C130.87,237.3037 152.07,241.9637 171.92,246.3237 " fill="none" id="evo-env2" style="stroke:#181818;stroke-width:1.0;"/></g><!--link mgmt1 to env1--><g id="link_mgmt1_env1"><path d="M243.81,123.5437 C243.81,134.7837 243.81,146.0138 243.81,157.2437 " fill="none" id="mgmt1-env1" style="stroke:#181818;stroke-width:1.0;"/></g><!--link env2 to mgmt2--><g id="link_env2_mgmt2"><path d="M243.81,285.1937 C243.81,296.5438 243.81,307.8937 243.81,319.2537 " fill="none" id="env2-mgmt2" style="stroke:#181818;stroke-width:1.0;"/></g><!--link env1 to ctrl1--><g id="link_env1_ctrl1"><path d="M315.66,180.8837 C335.27,180.8837 356.27,180.8837 374.9,180.8837 " fill="none" id="env1-ctrl1" style="stroke:#181818;stroke-width:1.0;"/></g><!--link env2 to ctrl2--><g id="link_env2_ctrl2"><path d="M315.66,261.8837 C335.27,261.8837 356.27,261.8837 374.9,261.8837 " fill="none" id="env2-ctrl2" style="stroke:#181818;stroke-width:1.0;"/></g><!--SRC=[ROvD2i8m48NtESMxW8lc1WekN1G4bzP5QCSqa4ua7GFUtjJqHy7Tv7iltuodkq02ehEze7EHMd61bH8ddd1CmJydW0l5v5eQKPiN3eHBRo9rEBmQhfzUt2EtQyF6qa0iECTWenb66EvmvEHYu2aObRgkqePdwmrc1AMWhfkYuTc1wXCFTf3gVq6l1PtjsxBv9t6gVhbUUExlJzZRhTnAzDKNrIlLIkKJiTiLuJPhzRaDIv19diiv4vbgHLkYyj9l]--></g></svg>