<svg xmlns="http://www.w3.org/2000/svg" xmlns:xlink="http://www.w3.org/1999/xlink" contentStyleType="text/css" height="227px" preserveAspectRatio="none" style="width:494px;height:227px;background:#FFFFFF;" version="1.1" viewBox="0 0 494 227" width="494px" zoomAndPan="magnify"><title>The NPC Maker</title><defs/><g><text fill="#000000" font-family="sans-serif" font-size="14" font-weight="bold" lengthAdjust="spacing" textLength="120.1006" x="180.2076" y="22.9951">The NPC Maker</text><text fill="#000000" font-family="sans-serif" font-size="14" font-weight="bold" lengthAdjust="spacing" textLength="164.9033" x="157.8062" y="39.292">System Organization</text><!--entity mgmt--><g id="elem_mgmt"><rect fill="#F1F1F1" height="62.5938" rx="2.5" ry="2.5" style="stroke:#181818;stroke-width:0.5;" width="132.2236" x="7" y="60.5938"/><rect fill="#F1F1F1" height="10" style="stroke:#181818;stroke-width:0.5;" width="15" x="119.2236" y="65.5938"/><rect fill="#F1F1F1" height="2" style="stroke:#181818;stroke-width:0.5;" width="4" x="117.2236" y="67.5938"/><rect fill="#F1F1F1" height="2" style="stroke:#181818;stroke-width:0.5;" width="4" x="117.2236" y="71.5938"/><text fill="#000000" font-family="sans-serif" font-size="14" lengthAdjust="spacing" textLength="92.2236" x="22" y="93.5889">Management</text><text fill="#000000" font-family="sans-serif" font-size="14" lengthAdjust="spacing" textLength="59.623" x="22" y="109.8857">Program</text></g><!--entity evo--><g id="elem_evo"><rect fill="#F1F1F1" height="62.5938" rx="2.5" ry="2.5" style="stroke:#181818;stroke-width:0.5;" width="127.8965" x="9.16" y="158.5938"/><rect fill="#F1F1F1" height="10" style="stroke:#181818;stroke-width:0.5;" width="15" x="117.0565" y="163.5938"/><rect fill="#F1F1F1" height="2" style="stroke:#181818;stroke-width:0.5;" width="4" x="115.0565" y="165.5938"/><rect fill="#F1F1F1" height="2" style="stroke:#181818;stroke-width:0.5;" width="4" x="115.0565" y="169.5938"/><text fill="#000000" font-family="sans-serif" font-size="14" lengthAdjust="spacing" textLength="87.8965" x="24.16" y="191.5889">Evolutionary</text><text fill="#000000" font-family="sans-serif" font-size="14" lengthAdjust="spacing" textLength="68.5645" x="24.16" y="207.8857">Algorithm</text></g><!--entity env--><g id="elem_env"><rect fill="#F1F1F1" height="46.2969" rx="2.5" ry="2.5" style="stroke:#181818;stroke-width:0.5;" width="129.7012" x="199.22" y="117.7338"/><rect fill="#F1F1F1" height="10" style="stroke:#181818;stroke-width:0.5;" width="15" x="308.9212" y="122.7338"/><rect fill="#F1F1F1" height="2" style="stroke:#181818;stroke-width:0.5;" width="4" x="306.9212" y="124.7338"/><rect fill="#F1F1F1" height="2" style="stroke:#181818;stroke-width:0.5;" width="4" x="306.9212" y="128.7338"/><text fill="#000000" font-family="sans-serif" font-size="14" lengthAdjust="spacing" textLength="89.7012" x="214.22" y="150.7289">Environment</text></g><!--entity ctrl--><g id="elem_ctrl"><rect fill="#F1F1F1" height="46.2969" rx="2.5" ry="2.5" style="stroke:#181818;stroke-width:0.5;" width="99.5957" x="388.92" y="117.7338"/><rect fill="#F1F1F1" height="10" style="stroke:#181818;stroke-width:0.5;" width="15" x="468.5157" y="122.7338"/><rect fill="#F1F1F1" height="2" style="stroke:#181818;stroke-width:0.5;" width="4" x="466.5157" y="124.7338"/><rect fill="#F1F1F1" height="2" style="stroke:#181818;stroke-width:0.5;" width="4" x="466.5157" y="128.7338"/><text fill="#000000" font-family="sans-serif" font-size="14" lengthAdjust="spacing" textLength="59.5957" x="403.92" y="150.7289">AI Agent</text></g><!--link mgmt to env--><g id="link_mgmt_env"><path d="M139.67,108.8838 C158.86,113.8638 179.81,119.2938 198.91,124.2438 " fill="none" id="mgmt-env" style="stroke:#181818;stroke-width:1;"/></g><!--link evo to env--><g id="link_evo_env"><path d="M137.56,173.4338 C157.29,168.3138 179.05,162.6738 198.83,157.5438 " fill="none" id="evo-env" style="stroke:#181818;stroke-width:1;"/></g><!--link env to ctrl--><g id="link_env_ctrl"><path d="M329.36,140.8838 C348.92,140.8838 370.1,140.8838 388.49,140.8838 " fill="none" id="env-ctrl" style="stroke:#181818;stroke-width:1;"/></g><!--SRC=[FSmn3i8m30NGFQVm1JX4XHWO2fLWQnciObABn9PS4wcSdeOAjg_lzvteuU0And5okBFHwAmIWhCdWkj4SEhsqEAJR93BCZjbE5j4uJTkiczHC58cyK4wqsYORu0pv9Wzz8UYwLKbsZ98aw8Q-xG9Ahe2AMmgTR-LKaBV7A69lsPqIo7KTx3RVU_hy1-br5ZD1m00]--></g></svg>